{
copyright = "Copyright (c) 2015, Cadson Demak (info@cadsondemak.com)";
customParameters = (
{
name = vendorID;
value = CDK;
},
{
name = description;
value = "Copyright (c) 2015, Cadson Demak (info@cadsondemak.com)";
},
{
name = license;

glyphs = (
{
glyphname = A;
lastChange = "2015-08-01 09:24:51 +0000";
layers = (
{
layerId = "C94C01B0-3DB6-4E3E-9BA4-195D35EE6A10";
name = Regular;
paths = (
{
closed = 1;
nodes = (
"262 0 LINE",
"262 73 LINE",
"212 73 LINE",
"256 201 LINE",
"464 201 LINE",
"508 73 LINE",
"458 73 LINE",
"458 0 LINE",
"686 0 LINE",
"686 73 LINE",
"656 73 LINE SMOOTH",
"626 73 OFFCURVE",
"610 81 OFFCURVE",
"600 109 CURVE SMOOTH",
"411 647 LINE",
"310 647 LINE",
"119 109 LINE SMOOTH",
"109 81 OFFCURVE",
"93 73 OFFCURVE",
"64 73 CURVE SMOOTH",
"33 73 LINE",
"33 0 LINE"
);
},
{
closed = 1;
nodes = (
"361 508 LINE",
"444 264 LINE",
"276 264 LINE"
);
}
);
width = 719;
}
);
leftKerningGroup = A;
note = A;
rightKerningGroup = A;
unicode = 0041;
},
{
glyphname = Aacute;
lastChange = "2015-08-01 09:24:49 +0000";
layers = (
{
layerId = "C94C01B0-3DB6-4E3E-9BA4-195D35EE6A10";
name = Regular;
paths = (
{
closed = 1;
nodes = (
"262 0 LINE",
"262 73 LINE",
"212 73 LINE",
"256 201 LINE",
"464 201 LINE",
"508 73 LINE",
"458 73 LINE",
"458 0 LINE",
"686 0 LINE",
"686 73 LINE",
"656 73 LINE SMOOTH",
"626 73 OFFCURVE",
"610 81 OFFCURVE",
"600 109 CURVE SMOOTH",
"411 647 LINE",
"310 647 LINE",
"119 109 LINE SMOOTH",
"109 81 OFFCURVE",
"93 73 OFFCURVE",
"64 73 CURVE SMOOTH",
"33 73 LINE",
"33 0 LINE"
);
},
{
closed = 1;
nodes = (
"361 508 LINE",
"444 264 LINE",
"276 264 LINE"
);
},
{
closed = 1;
nodes = (
"394 701 LINE",
"508 880 LINE",
"383 880 LINE",
"303 701 LINE"
);
}
);
width = 719;
}
);
leftKerningGroup = A;
note = Aacute;
rightKerningGroup = A;
unicode = 00C1;
},
{
glyphname = Abreve;
lastChange = "2015-08-01 09:24:48 +0000";
layers = (
{
layerId = "C94C01B0-3DB6-4E3E-9BA4-195D35EE6A10";
name = Regular;
paths = (
{
closed = 1;
nodes = (
"262 0 LINE",
"262 73 LINE",
"212 73 LINE",
"256 201 LINE",
"464 201 LINE",
"508 73 LINE",
"458 73 LINE",
"458 0 LINE",
"686 0 LINE",
"686 73 LINE",
"656 73 LINE SMOOTH",
"626 73 OFFCURVE",
"610 81 OFFCURVE",
"600 109 CURVE SMOOTH",
"411 647 LINE",
"310 647 LINE",
"119 109 LINE SMOOTH",
"109 81 OFFCURVE",
"93 73 OFFCURVE",
"64 73 CURVE SMOOTH",
"33 73 LINE",
"33 0 LINE"
);
},
{
closed = 1;
nodes = (
"361 508 LINE",
"444 264 LINE",
"276 264 LINE"
);
},
{
closed = 1;
nodes = (
"458 701 OFFCURVE",
"520 757 OFFCURVE",
"520 844 CURVE",
"433 844 LINE",
"433 796 OFFCURVE",
"408 769 OFFCURVE",
"361 769 CURVE SMOOTH",
"316 769 OFFCURVE",
"289 796 OFFCURVE",
"289 844 CURVE",
"202 844 LINE",
"202 757 OFFCURVE",
"264 701 OFFCURVE",
"361 701 CURVE SMOOTH"
);
}
);
width = 719;
}
);
leftKerningGroup = A;
note = Abreve;
rightKerningGroup = A;
unicode = 0102;
},
{
glyphname = Abreveacute;
lastChange = "2015-08-01 09:24:45 +0000";
layers = (
{
layerId = "C94C01B0-3DB6-4E3E-9BA4-195D35EE6A10";
name = Regular;
paths = (
{
closed = 1;
nodes = (
"262 0 LINE",
"262 73 LINE",
"212 73 LINE",
"256 201 LINE",
"464 201 LINE",
"508 73 LINE",
"458 73 LINE",
"458 0 LINE",
"686 0 LINE",
"686 73 LINE",
"656 73 LINE SMOOTH",
"626 73 OFFCURVE",
"610 81 OFFCURVE",
"600 109 CURVE SMOOTH",
"411 647 LINE",
"310 647 LINE",
"119 109 LINE SMOOTH",
"109 81 OFFCURVE",
"93 73 OFFCURVE",
"64 73 CURVE SMOOTH",
"33 73 LINE",
"33 0 LINE"
);
},
{
closed = 1;
nodes = (
"361 508 LINE",
"444 264 LINE",
"276 264 LINE"
);
},
{
closed = 1;
nodes = (
"453 701 OFFCURVE",
"525 756 OFFCURVE",
"525 850 CURVE",
"450 850 LINE",
"450 797 OFFCURVE",
"420 766 OFFCURVE",
"361 766 CURVE SMOOTH",
"305 766 OFFCURVE",
"273 797 OFFCURVE",
"273 850 CURVE",
"198 850 LINE",
"198 756 OFFCURVE",
"270 701 OFFCURVE",
"361 701 CURVE SMOOTH"
);
},
{
closed = 1;
nodes = (
"387 847 LINE",
"489 991 LINE",
"379 991 LINE",
"313 847 LINE"
);
}
);
width = 719;
}
);
leftKerningGroup = A;
note = Abreveacute;
rightKerningGroup = A;
unicode = 1EAE;
},
{
glyphname = Abrevedotbelow;
lastChange = "2015-08-01 09:24:50 +0000";
layers = (
{
layerId = "C94C01B0-3DB6-4E3E-9BA4-195D35EE6A10";
name = Regular;
paths = (
{
closed = 1;
nodes = (
"262 0 LINE",
"262 73 LINE",
"212 73 LINE",
"256 201 LINE",
"464 201 LINE",
"508 73 LINE",
"458 73 LINE",
"458 0 LINE",
"686 0 LINE",
"686 73 LINE",
"656 73 LINE SMOOTH",
"626 73 OFFCURVE",
"610 81 OFFCURVE",
"600 109 CURVE SMOOTH",
"411 647 LINE",
"310 647 LINE",
"119 109 LINE SMOOTH",
"109 81 OFFCURVE",
"93 73 OFFCURVE",
"64 73 CURVE SMOOTH",
"33 73 LINE",
"33 0 LINE"
);
},
{
closed = 1;
nodes = (
"407 -158 LINE",
"407 -62 LINE",
"315 -62 LINE",
"315 -158 LINE"
);
},
{
closed = 1;
nodes = (
"361 508 LINE",
"444 264 LINE",
"276 264 LINE"
);
},
{
closed = 1;
nodes = (
"458 701 OFFCURVE",
"520 757 OFFCURVE",
"520 844 CURVE",
"433 844 LINE",
"433 796 OFFCURVE",
"408 769 OFFCURVE",
"361 769 CURVE SMOOTH",
"316 769 OFFCURVE",
"289 796 OFFCURVE",
"289 844 CURVE",
"202 844 LINE",
"202 757 OFFCURVE",
"264 701 OFFCURVE",
"361 701 CURVE SMOOTH"
);
}
);
width = 719;
}
);
leftKerningGroup = A;
note = Abrevedotbelow;
rightKerningGroup = A;
unicode = 1EB6;
},
{
glyphname = Abrevegrave;
lastChange = "2015-08-01 09:24:51 +0000";
layers = (
{
layerId = "C94C01B0-3DB6-4E3E-9BA4-195D35EE6A10";
name = Regular;
paths = (
{
closed = 1;
nodes = (
"262 0 LINE",
"262 73 LINE",
"212 73 LINE",
"256 201 LINE",
"464 201 LINE",
"508 73 LINE",
"458 73 LINE",
"458 0 LINE",
"686 0 LINE",
"686 73 LINE",
"656 73 LINE SMOOTH",
"626 73 OFFCURVE",
"610 81 OFFCURVE",
"600 109 CURVE SMOOTH",
"411 647 LINE",
"310 647 LINE",
"119 109 LINE SMOOTH",
"109 81 OFFCURVE",
"93 73 OFFCURVE",
"64 73 CURVE SMOOTH",
"33 73 LINE",
"33 0 LINE"
);
},
{
closed = 1;
nodes = (
"361 508 LINE",
"444 264 LINE",
"276 264 LINE"
);
},
{
closed = 1;
nodes = (
"454 701 OFFCURVE",
"526 756 OFFCURVE",
"526 850 CURVE",
"451 850 LINE",
"451 797 OFFCURVE",
"419 766 OFFCURVE",
"363 766 CURVE SMOOTH",
"304 766 OFFCURVE",
"274 797 OFFCURVE",
"274 850 CURVE",
"199 850 LINE",
"199 756 OFFCURVE",
"271 701 OFFCURVE",
"363 701 CURVE SMOOTH"
);
},
{
closed = 1;
nodes = (
"411 847 LINE",
"345 991 LINE",
"235 991 LINE",
"337 847 LINE"
);
}
);
width = 719;
}
);
leftKerningGroup = A;
note = Abrevegrave;
rightKerningGroup = A;
unicode = 1EB0;
},
{
glyphname = Abrevehookabove;
lastChange = "2015-08-01 09:24:48 +0000";
layers = (
{
layerId = "C94C01B0-3DB6-4E3E-9BA4-195D35EE6A10";
name = Regular;
paths = (
{
closed = 1;
nodes = (
"262 0 LINE",
"262 73 LINE",
"212 73 LINE",
"256 201 LINE",
"464 201 LINE",
"508 73 LINE",
"458 73 LINE",
"458 0 LINE",
"686 0 LINE",
"686 73 LINE",
"656 73 LINE SMOOTH",
"626 73 OFFCURVE",
"610 81 OFFCURVE",
"600 109 CURVE SMOOTH",
"411 647 LINE",
"310 647 LINE",
"119 109 LINE SMOOTH",
"109 81 OFFCURVE",
"93 73 OFFCURVE",
"64 73 CURVE SMOOTH",
"33 73 LINE",
"33 0 LINE"
);
},
{
closed = 1;
nodes = (
"361 508 LINE",
"444 264 LINE",
"276 264 LINE"
);
},
{
closed = 1;
nodes = (
"453 701 OFFCURVE",
"525 756 OFFCURVE",
"525 850 CURVE",
"450 850 LINE",
"450 797 OFFCURVE",
"420 766 OFFCURVE",
"361 766 CURVE SMOOTH",
"305 766 OFFCURVE",
"273 797 OFFCURVE",
"273 850 CURVE",
"198 850 LINE",
"198 756 OFFCURVE",
"270 701 OFFCURVE",
"361 701 CURVE SMOOTH"
);
},
{
closed = 1;
nodes = (
"391 839 LINE",
"391 862 LINE",
"432 870 OFFCURVE",
"450 890 OFFCURVE",
"450 926 CURVE SMOOTH",
"450 971 OFFCURVE",
"422 996 OFFCURVE",
"364 996 CURVE SMOOTH",
"339 996 OFFCURVE",
"316 992 OFFCURVE",
"302 987 CURVE",
"302 936 LINE",
"313 940 OFFCURVE",
"328 944 OFFCURVE",
"343 944 CURVE SMOOTH",
"364 944 OFFCURVE",
"377 936 OFFCURVE",
"377 918 CURVE SMOOTH",
"377 894 OFFCURVE",
"365 885 OFFCURVE",
"320 885 CURVE",
"320 839 LINE"
);
}
);
width = 719;
}
);
leftKerningGroup = A;
note = Abrevehookabove;
rightKerningGroup = A;
unicode = 1EB2;
},
{
glyphname = Abrevetilde;
lastChange = "2015-08-01 09:24:44 +0000";
layers = (
{
layerId = "C94C01B0-3DB6-4E3E-9BA4-195D35EE6A10";
name = Regular;
paths = (
{
closed = 1;
nodes = (
"262 0 LINE",
"262 73 LINE",
"212 73 LINE",
"256 201 LINE",
"464 201 LINE",
"508 73 LINE",
"458 73 LINE",
"458 0 LINE",
"686 0 LINE",
"686 73 LINE",
"656 73 LINE SMOOTH",
"626 73 OFFCURVE",
"610 81 OFFCURVE",
"600 109 CURVE SMOOTH",
"411 647 LINE",
"310 647 LINE",
"119 109 LINE SMOOTH",
"109 81 OFFCURVE",
"93 73 OFFCURVE",
"64 73 CURVE SMOOTH",
"33 73 LINE",
"33 0 LINE"
);
},
{
closed = 1;
nodes = (
"361 508 LINE",
"444 264 LINE",
"276 264 LINE"
);
},
{
closed = 1;
nodes = (
"453 701 OFFCURVE",
"525 756 OFFCURVE",
"525 850 CURVE",
"450 850 LINE",
"450 797 OFFCURVE",
"419 766 OFFCURVE",
"361 766 CURVE SMOOTH",
"305 766 OFFCURVE",
"273 797 OFFCURVE",
"273 850 CURVE",
"198 850 LINE",
"198 756 OFFCURVE",
"270 701 OFFCURVE",
"361 701 CURVE SMOOTH"
);
},
{
closed = 1;
nodes = (
"484 883 OFFCURVE",
"509 911 OFFCURVE",
"509 981 CURVE",
"450 981 LINE",
"450 955 OFFCURVE",
"443 941 OFFCURVE",
"420 941 CURVE SMOOTH",
"385 941 OFFCURVE",
"348 983 OFFCURVE",
"296 983 CURVE SMOOTH",
"240 983 OFFCURVE",
"212 956 OFFCURVE",
"212 885 CURVE",
"271 885 LINE",
"271 911 OFFCURVE",
"279 925 OFFCURVE",
"302 925 CURVE SMOOTH",
"337 925 OFFCURVE",
"380 883 OFFCURVE",
"429 883 CURVE SMOOTH"
);
}
);
width = 719;
}
);
leftKerningGroup = A;
note = Abrevetilde;
rightKerningGroup = A;
unicode = 1EB4;
},
{
glyphname = Acaron;
lastChange = "2015-08-01 09:24:48 +0000";
layers = (
{
layerId = "C94C01B0-3DB6-4E3E-9BA4-195D35EE6A10";
name = Regular;
paths = (
{
closed = 1;
nodes = (
"262 0 LINE",
"262 73 LINE",
"212 73 LINE",
"256 201 LINE",
"464 201 LINE",
"508 73 LINE",
"458 73 LINE",
"458 0 LINE",
"686 0 LINE",
"686 73 LINE",
"656 73 LINE SMOOTH",
"626 73 OFFCURVE",
"610 81 OFFCURVE",
"600 109 CURVE SMOOTH",
"411 647 LINE",
"310 647 LINE",
"119 109 LINE SMOOTH",
"109 81 OFFCURVE",
"93 73 OFFCURVE",
"64 73 CURVE SMOOTH",
"33 73 LINE",
"33 0 LINE"
);
},
{
closed = 1;
nodes = (
"361 508 LINE",
"444 264 LINE",
"276 264 LINE"
);
},
{
closed = 1;
nodes = (
"414 700 LINE",
"539 888 LINE",
"439 888 LINE",
"362 762 LINE",
"285 888 LINE",
"186 888 LINE",
"311 700 LINE"
);
}
);
width = 719;
}
);
leftKerningGroup = A;
note = Acaron;
rightKerningGroup = A;
unicode = 01CD;
},
{
glyphname = Acircumflex;
lastChange = "2015-08-01 09:24:50 +0000";
layers = (
{
layerId = "C94C01B0-3DB6-4E3E-9BA4-195D35EE6A10";
name = Regular;
paths = (
{
closed = 1;
nodes = (
"262 0 LINE",
"262 73 LINE",
"212 73 LINE",
"256 201 LINE",
"464 201 LINE",
"508 73 LINE",
"458 73 LINE",
"458 0 LINE",
"686 0 LINE",
"686 73 LINE",
"656 73 LINE SMOOTH",
"626 73 OFFCURVE",
"610 81 OFFCURVE",
"600 109 CURVE SMOOTH",
"411 647 LINE",
"310 647 LINE",
"119 109 LINE SMOOTH",
"109 81 OFFCURVE",
"93 73 OFFCURVE",
"64 73 CURVE SMOOTH",
"33 73 LINE",
"33 0 LINE"
);
},
{
closed = 1;
nodes = (
"361 508 LINE",
"444 264 LINE",
"276 264 LINE"
);
},
{
closed = 1;
nodes = (
"284 701 LINE",
"361 827 LINE",
"438 701 LINE",
"538 701 LINE",
"413 889 LINE",
"310 889 LINE",
"185 701 LINE"
);
}
);
width = 719;
}
);
leftKerningGroup = A;
note = Acircumflex;
rightKerningGroup = A;
unicode = 00C2;
},
{
glyphname = Acircumflexacute;
lastChange = "2015-08-01 09:24:44 +0000";
layers = (
{
layerId = "C94C01B0-3DB6-4E3E-9BA4-195D35EE6A10";
name = Regular;
paths = (
{
closed = 1;
nodes = (
"262 0 LINE",
"262 73 LINE",
"212 73 LINE",
"256 201 LINE",
"464 201 LINE",
"508 73 LINE",
"458 73 LINE",
"458 0 LINE",
"686 0 LINE",
"686 73 LINE",
"656 73 LINE SMOOTH",
"626 73 OFFCURVE",
"610 81 OFFCURVE",
"600 109 CURVE SMOOTH",
"411 647 LINE",
"310 647 LINE",
"119 109 LINE SMOOTH",
"109 81 OFFCURVE",
"93 73 OFFCURVE",
"64 73 CURVE SMOOTH",
"33 73 LINE",
"33 0 LINE"
);
},
{
closed = 1;
nodes = (
"361 508 LINE",
"444 264 LINE",
"276 264 LINE"
);
},
{
closed = 1;
nodes = (
"298 703 LINE",
"362 788 LINE",
"424 703 LINE",
"519 703 LINE",
"412 838 LINE",
"312 838 LINE",
"205 703 LINE"
);
},
{
closed = 1;
nodes = (
"539 812 LINE",
"637 939 LINE",
"524 939 LINE",
"461 812 LINE"
);
}
);
width = 719;
}
);
leftKerningGroup = A;
note = Acircumflexacute;
rightKerningGroup = A;
unicode = 1EA4;
},
{
glyphname = Acircumflexdotbelow;
lastChange = "2015-08-01 09:24:46 +0000";
layers = (
{
layerId = "C94C01B0-3DB6-4E3E-9BA4-195D35EE6A10";
name = Regular;
paths = (
{
closed = 1;
nodes = (
"262 0 LINE",
"262 73 LINE",
"212 73 LINE",
"256 201 LINE",
"464 201 LINE",
"508 73 LINE",
"458 73 LINE",
"458 0 LINE",
"686 0 LINE",
"686 73 LINE",
"656 73 LINE SMOOTH",
"626 73 OFFCURVE",
"610 81 OFFCURVE",
"600 109 CURVE SMOOTH",
"411 647 LINE",
"310 647 LINE",
"119 109 LINE SMOOTH",
"109 81 OFFCURVE",
"93 73 OFFCURVE",
"64 73 CURVE SMOOTH",
"33 73 LINE",
"33 0 LINE"
);
},
{
closed = 1;
nodes = (
"407 -158 LINE",
"407 -62 LINE",
"315 -62 LINE",
"315 -158 LINE"
);
},
{
closed = 1;
nodes = (
"361 508 LINE",
"444 264 LINE",
"276 264 LINE"
);
},
{
closed = 1;
nodes = (
"284 701 LINE",
"361 827 LINE",
"438 701 LINE",
"538 701 LINE",
"413 889 LINE",
"310 889 LINE",
"185 701 LINE"
);
}
);
width = 719;
}
);
leftKerningGroup = A;
note = Acircumflexdotbelow;
rightKerningGroup = A;
unicode = 1EAC;
},
{
glyphname = Acircumflexgrave;
lastChange = "2015-08-01 09:24:48 +0000";
layers = (
{
layerId = "C94C01B0-3DB6-4E3E-9BA4-195D35EE6A10";
name = Regular;
paths = (
{
closed = 1;
nodes = (
"262 0 LINE",
"262 73 LINE",
"212 73 LINE",
"256 201 LINE",
"464 201 LINE",
"508 73 LINE",
"458 73 LINE",
"458 0 LINE",
"686 0 LINE",
"686 73 LINE",
"656 73 LINE SMOOTH",
"626 73 OFFCURVE",
"610 81 OFFCURVE",
"600 109 CURVE SMOOTH",
"411 647 LINE",
"310 647 LINE",
"119 109 LINE SMOOTH",
"109 81 OFFCURVE",
"93 73 OFFCURVE",
"64 73 CURVE SMOOTH",
"33 73 LINE",
"33 0 LINE"
);
},
{
closed = 1;
nodes = (
"361 508 LINE",
"444 264 LINE",
"276 264 LINE"
);
},
{
closed = 1;
nodes = (
"262 812 LINE",
"199 939 LINE",
"86 939 LINE",
"184 812 LINE"
);
},
{
closed = 1;
nodes = (
"299 703 LINE",
"361 788 LINE",
"425 703 LINE",
"518 703 LINE",
"411 838 LINE",
"311 838 LINE",
"204 703 LINE"
);
}
);
width = 719;
}
);
leftKerningGroup = A;
note = Acircumflexgrave;
rightKerningGroup = A;
unicode = 1EA6;
},
{
glyphname = Acircumflexhookabove;
lastChange = "2015-08-01 09:24:47 +0000";
layers = (
{
layerId = "C94C01B0-3DB6-4E3E-9BA4-195D35EE6A10";
name = Regular;
paths = (
{
closed = 1;
nodes = (
"262 0 LINE",
"262 73 LINE",
"212 73 LINE",
"256 201 LINE",
"464 201 LINE",
"508 73 LINE",
"458 73 LINE",
"458 0 LINE",
"686 0 LINE",
"686 73 LINE",
"656 73 LINE SMOOTH",
"626 73 OFFCURVE",
"610 81 OFFCURVE",
"600 109 CURVE SMOOTH",
"411 647 LINE",
"310 647 LINE",
"119 109 LINE SMOOTH",
"109 81 OFFCURVE",
"93 73 OFFCURVE",
"64 73 CURVE SMOOTH",
"33 73 LINE",
"33 0 LINE"
);
},
{
closed = 1;
nodes = (
"361 508 LINE",
"444 264 LINE",
"276 264 LINE"
);
},
{
closed = 1;
nodes = (
"298 701 LINE",
"360 786 LINE",
"424 701 LINE",
"518 701 LINE",
"411 836 LINE",
"310 836 LINE",
"204 701 LINE"
);
},
{
closed = 1;
nodes = (
"509 827 LINE",
"509 850 LINE",
"550 858 OFFCURVE",
"568 878 OFFCURVE",
"568 914 CURVE SMOOTH",
"568 959 OFFCURVE",
"540 984 OFFCURVE",
"481 984 CURVE SMOOTH",
"457 984 OFFCURVE",
"434 980 OFFCURVE",
"420 975 CURVE",
"420 924 LINE",
"431 928 OFFCURVE",
"446 932 OFFCURVE",
"461 932 CURVE SMOOTH",
"481 932 OFFCURVE",
"495 924 OFFCURVE",
"495 906 CURVE SMOOTH",
"495 882 OFFCURVE",
"483 873 OFFCURVE",
"438 873 CURVE",
"438 827 LINE"
);
}
);
width = 719;
}
);
leftKerningGroup = A;
note = Acircumflexhookabove;
rightKerningGroup = A;
unicode = 1EA8;
},
{
glyphname = Acircumflextilde;
lastChange = "2015-08-01 09:24:48 +0000";
layers = (
{
layerId = "C94C01B0-3DB6-4E3E-9BA4-195D35EE6A10";
name = Regular;
paths = (
{
closed = 1;
nodes = (
"262 0 LINE",
"262 73 LINE",
"212 73 LINE",
"256 201 LINE",
"464 201 LINE",
"508 73 LINE",
"458 73 LINE",
"458 0 LINE",
"686 0 LINE",
"686 73 LINE",
"656 73 LINE SMOOTH",
"626 73 OFFCURVE",
"610 81 OFFCURVE",
"600 109 CURVE SMOOTH",
"411 647 LINE",
"310 647 LINE",
"119 109 LINE SMOOTH",
"109 81 OFFCURVE",
"93 73 OFFCURVE",
"64 73 CURVE SMOOTH",
"33 73 LINE",
"33 0 LINE"
);
},
{
closed = 1;
nodes = (
"361 508 LINE",
"444 264 LINE",
"276 264 LINE"
);
},
{
closed = 1;
nodes = (
"298 701 LINE",
"360 786 LINE",
"424 701 LINE",
"518 701 LINE",
"411 836 LINE",
"310 836 LINE",
"204 701 LINE"
);
},
{
closed = 1;
nodes = (
"485 854 OFFCURVE",
"510 882 OFFCURVE",
"510 952 CURVE",
"451 952 LINE",
"451 926 OFFCURVE",
"443 912 OFFCURVE",
"420 912 CURVE SMOOTH",
"385 912 OFFCURVE",
"348 954 OFFCURVE",
"296 954 CURVE SMOOTH",
"240 954 OFFCURVE",
"212 927 OFFCURVE",
"212 856 CURVE",
"271 856 LINE",
"271 882 OFFCURVE",
"279 896 OFFCURVE",
"302 896 CURVE SMOOTH",
"337 896 OFFCURVE",
"380 854 OFFCURVE",
"429 854 CURVE SMOOTH"
);
}
);
width = 719;
}
);
leftKerningGroup = A;
note = Acircumflextilde;
rightKerningGroup = A;
unicode = 1EAA;
},
{
glyphname = Adieresis;
lastChange = "2015-08-01 09:24:47 +0000";
layers = (
{
layerId = "C94C01B0-3DB6-4E3E-9BA4-195D35EE6A10";
name = Regular;
paths = (
{
closed = 1;
nodes = (
"262 0 LINE",
"262 73 LINE",
"212 73 LINE",
"256 201 LINE",
"464 201 LINE",
"508 73 LINE",
"458 73 LINE",
"458 0 LINE",
"686 0 LINE",
"686 73 LINE",
"656 73 LINE SMOOTH",
"626 73 OFFCURVE",
"610 81 OFFCURVE",
"600 109 CURVE SMOOTH",
"411 647 LINE",
"310 647 LINE",
"119 109 LINE SMOOTH",
"109 81 OFFCURVE",
"93 73 OFFCURVE",
"64 73 CURVE SMOOTH",
"33 73 LINE",
"33 0 LINE"
);
},
{
closed = 1;
nodes = (
"361 508 LINE",
"444 264 LINE",
"276 264 LINE"
);
},
{
closed = 1;
nodes = (
"300 720 LINE",
"300 816 LINE",
"208 816 LINE",
"208 720 LINE"
);
},
{
closed = 1;
nodes = (
"514 720 LINE",
"514 816 LINE",
"421 816 LINE",
"421 720 LINE"
);
}
);
width = 719;
}
);
leftKerningGroup = A;
note = Adieresis;
rightKerningGroup = A;
unicode = 00C4;
},
{
glyphname = Adotbelow;
lastChange = "2015-08-01 09:24:50 +0000";
layers = (
{
layerId = "C94C01B0-3DB6-4E3E-9BA4-195D35EE6A10";
name = Regular;
paths = (
{
closed = 1;
nodes = (
"262 0 LINE",
"262 73 LINE",
"212 73 LINE",
"256 201 LINE",
"464 201 LINE",
"508 73 LINE",
"458 73 LINE",
"458 0 LINE",
"686 0 LINE",
"686 73 LINE",
"656 73 LINE SMOOTH",
"626 73 OFFCURVE",
"610 81 OFFCURVE",
"600 109 CURVE SMOOTH",
"411 647 LINE",
"310 647 LINE",
"119 109 LINE SMOOTH",
"109 81 OFFCURVE",
"93 73 OFFCURVE",
"64 73 CURVE SMOOTH",
"33 73 LINE",
"33 0 LINE"
);
},
{
closed = 1;
nodes = (
"396 -158 LINE",
"396 -62 LINE",
"304 -62 LINE",
"304 -158 LINE"
);
},
{
closed = 1;
nodes = (
"361 508 LINE",
"444 264 LINE",
"276 264 LINE"
);
}
);
width = 719;
}
);
leftKerningGroup = A;
note = Adotbelow;
rightKerningGroup = A;
unicode = 1EA0;
},
{
glyphname = Agrave;
lastChange = "2015-08-01 09:24:49 +0000";
layers = (
{
layerId = "C94C01B0-3DB6-4E3E-9BA4-195D35EE6A10";
name = Regular;
paths = (
{
closed = 1;
nodes = (
"262 0 LINE",
"262 73 LINE",
"212 73 LINE",
"256 201 LINE",
"464 201 LINE",
"508 73 LINE",
"458 73 LINE",
"458 0 LINE",
"686 0 LINE",
"686 73 LINE",
"656 73 LINE SMOOTH",
"626 73 OFFCURVE",
"610 81 OFFCURVE",
"600 109 CURVE SMOOTH",
"411 647 LINE",
"310 647 LINE",
"119 109 LINE SMOOTH",
"109 81 OFFCURVE",
"93 73 OFFCURVE",
"64 73 CURVE SMOOTH",
"33 73 LINE",
"33 0 LINE"
);
},
{
closed = 1;
nodes = (
"361 508 LINE",
"444 264 LINE",
"276 264 LINE"
);
},
{
closed = 1;
nodes = (
"402 701 LINE",
"322 880 LINE",
"196 880 LINE",
"310 701 LINE"
);
}
);
width = 719;
}
);
leftKerningGroup = A;
note = Agrave;
rightKerningGroup = A;
unicode = 00C0;
},
{
glyphname = Ahookabove;
lastChange = "2015-08-01 09:24:45 +0000";
layers = (
{
layerId = "C94C01B0-3DB6-4E3E-9BA4-195D35EE6A10";
name = Regular;
paths = (
{
closed = 1;
nodes = (
"262 0 LINE",
"262 73 LINE",
"212 73 LINE",
"256 201 LINE",
"464 201 LINE",
"508 73 LINE",
"458 73 LINE",
"458 0 LINE",
"686 0 LINE",
"686 73 LINE",
"656 73 LINE SMOOTH",
"626 73 OFFCURVE",
"610 81 OFFCURVE",
"600 109 CURVE SMOOTH",
"411 647 LINE",
"310 647 LINE",
"119 109 LINE SMOOTH",
"109 81 OFFCURVE",
"93 73 OFFCURVE",
"64 73 CURVE SMOOTH",
"33 73 LINE",
"33 0 LINE"
);
},
{
closed = 1;
nodes = (
"361 508 LINE",
"444 264 LINE",
"276 264 LINE"
);
},
{
closed = 1;
nodes = (
"400 699 LINE",
"400 739 LINE",
"443 751 OFFCURVE",
"465 777 OFFCURVE",
"465 819 CURVE SMOOTH",
"465 880 OFFCURVE",
"421 903 OFFCURVE",
"350 903 CURVE SMOOTH",
"321 903 OFFCURVE",
"294 898 OFFCURVE",
"278 892 CURVE",
"278 833 LINE",
"291 838 OFFCURVE",
"310 842 OFFCURVE",
"327 842 CURVE SMOOTH",
"363 842 OFFCURVE",
"376 833 OFFCURVE",
"376 807 CURVE SMOOTH",
"376 782 OFFCURVE",
"363 764 OFFCURVE",
"314 764 CURVE",
"314 699 LINE"
);
}
);
width = 719;
}
);
leftKerningGroup = A;
note = Ahookabove;
rightKerningGroup = A;
unicode = 1EA2;
},
{
glyphname = Amacron;
lastChange = "2015-08-01 09:24:47 +0000";
layers = (
{
layerId = "C94C01B0-3DB6-4E3E-9BA4-195D35EE6A10";
name = Regular;
paths = (
{
closed = 1;
nodes = (
"262 0 LINE",
"262 73 LINE",
"212 73 LINE",
"256 201 LINE",
"464 201 LINE",
"508 73 LINE",
"458 73 LINE",
"458 0 LINE",
"686 0 LINE",
"686 73 LINE",
"656 73 LINE SMOOTH",
"626 73 OFFCURVE",
"610 81 OFFCURVE",
"600 109 CURVE SMOOTH",
"411 647 LINE",
"310 647 LINE",
"119 109 LINE SMOOTH",
"109 81 OFFCURVE",
"93 73 OFFCURVE",
"64 73 CURVE SMOOTH",
"33 73 LINE",
"33 0 LINE"
);
},
{
closed = 1;
nodes = (
"361 508 LINE",
"444 264 LINE",
"276 264 LINE"
);
},
{
closed = 1;
nodes = (
"506 721 LINE",
"506 790 LINE",
"217 790 LINE",
"217 721 LINE"
);
}
);
width = 719;
}
);
leftKerningGroup = A;
note = Amacron;
rightKerningGroup = A;
unicode = 0100;
},
{
glyphname = Aogonek;
lastChange = "2015-08-01 09:24:50 +0000";
layers = (
{
layerId = "C94C01B0-3DB6-4E3E-9BA4-195D35EE6A10";
name = Regular;
paths = (
{
closed = 1;
nodes = (
"262 0 LINE",
"262 73 LINE",
"212 73 LINE",
"256 201 LINE",
"464 201 LINE",
"508 73 LINE",
"458 73 LINE",
"458 0 LINE",
"686 0 LINE",
"686 73 LINE",
"656 73 LINE SMOOTH",
"626 73 OFFCURVE",
"610 81 OFFCURVE",
"600 109 CURVE SMOOTH",
"411 647 LINE",
"310 647 LINE",
"119 109 LINE SMOOTH",
"109 81 OFFCURVE",
"93 73 OFFCURVE",
"64 73 CURVE SMOOTH",
"33 73 LINE",
"33 0 LINE"
);
},
{
closed = 1;
nodes = (
"596 -209 OFFCURVE",
"620 -202 OFFCURVE",
"635 -191 CURVE",
"635 -129 LINE",
"621 -134 OFFCURVE",
"606 -137 OFFCURVE",
"593 -137 CURVE SMOOTH",
"568 -137 OFFCURVE",
"556 -122 OFFCURVE",
"556 -91 CURVE SMOOTH",
"556 -55 OFFCURVE",
"573 -27 OFFCURVE",
"606 0 CURVE",
"518 0 LINE",
"487 -27 OFFCURVE",
"467 -67 OFFCURVE",
"467 -111 CURVE SMOOTH",
"467 -180 OFFCURVE",
"512 -209 OFFCURVE",
"569 -209 CURVE SMOOTH"
);
},
{
closed = 1;
nodes = (
"361 508 LINE",
"444 264 LINE",
"276 264 LINE"
);
}
);
width = 719;
}
);
leftKerningGroup = A;
note = Aogonek;
rightKerningGroup = A;
unicode = 0104;
},
{
glyphname = Aring;
lastChange = "2015-08-01 09:24:45 +0000";
layers = (
{
layerId = "C94C01B0-3DB6-4E3E-9BA4-195D35EE6A10";
name = Regular;
paths = (
{
closed = 1;
nodes = (
"262 0 LINE",
"262 73 LINE",
"212 73 LINE",
"256 201 LINE",
"464 201 LINE",
"508 73 LINE",
"458 73 LINE",
"458 0 LINE",
"686 0 LINE",
"686 73 LINE",
"656 73 LINE SMOOTH",
"626 73 OFFCURVE",
"610 81 OFFCURVE",
"600 109 CURVE SMOOTH",
"411 647 LINE",
"310 647 LINE",
"119 109 LINE SMOOTH",
"109 81 OFFCURVE",
"93 73 OFFCURVE",
"64 73 CURVE SMOOTH",
"33 73 LINE",
"33 0 LINE"
);
},
{
closed = 1;
nodes = (
"361 508 LINE",
"444 264 LINE",
"276 264 LINE"
);
},
{
closed = 1;
nodes = (
"424 601 OFFCURVE",
"475 651 OFFCURVE",
"475 714 CURVE SMOOTH",
"475 777 OFFCURVE",
"424 828 OFFCURVE",
"361 828 CURVE SMOOTH",
"298 828 OFFCURVE",
"248 777 OFFCURVE",
"248 714 CURVE SMOOTH",
"248 651 OFFCURVE",
"298 601 OFFCURVE",
"361 601 CURVE SMOOTH"
);
},
{
closed = 1;
nodes = (
"331 661 OFFCURVE",
"308 684 OFFCURVE",
"308 714 CURVE SMOOTH",
"308 744 OFFCURVE",
"331 768 OFFCURVE",
"361 768 CURVE SMOOTH",
"391 768 OFFCURVE",
"414 744 OFFCURVE",
"414 714 CURVE SMOOTH",
"414 684 OFFCURVE",
"391 661 OFFCURVE",
"361 661 CURVE SMOOTH"
);
}
);
width = 719;
}
);
leftKerningGroup = A;
note = Aring;
rightKerningGroup = A;
unicode = 00C5;
},
{
glyphname = Aringacute;
lastChange = "2015-08-01 09:24:45 +0000";
layers = (
{
layerId = "C94C01B0-3DB6-4E3E-9BA4-195D35EE6A10";
name = Regular;
paths = (
{
closed = 1;
nodes = (
"262 0 LINE",
"262 73 LINE",
"212 73 LINE",
"256 201 LINE",
"464 201 LINE",
"508 73 LINE",
"458 73 LINE",
"458 0 LINE",
"686 0 LINE",
"686 73 LINE",
"656 73 LINE SMOOTH",
"626 73 OFFCURVE",
"610 81 OFFCURVE",
"600 109 CURVE SMOOTH",
"411 647 LINE",
"310 647 LINE",
"119 109 LINE SMOOTH",
"109 81 OFFCURVE",
"93 73 OFFCURVE",
"64 73 CURVE SMOOTH",
"33 73 LINE",
"33 0 LINE"
);
},
{
closed = 1;
nodes = (
"361 508 LINE",
"444 264 LINE",
"276 264 LINE"
);
},
{
closed = 1;
nodes = (
"424 603 OFFCURVE",
"475 653 OFFCURVE",
"475 716 CURVE SMOOTH",
"475 779 OFFCURVE",
"424 830 OFFCURVE",
"361 830 CURVE SMOOTH",
"298 830 OFFCURVE",
"248 779 OFFCURVE",
"248 716 CURVE SMOOTH",
"248 653 OFFCURVE",
"298 603 OFFCURVE",
"361 603 CURVE SMOOTH"
);
},
{
closed = 1;
nodes = (
"331 663 OFFCURVE",
"308 686 OFFCURVE",
"308 716 CURVE SMOOTH",
"308 746 OFFCURVE",
"331 770 OFFCURVE",
"361 770 CURVE SMOOTH",
"391 770 OFFCURVE",
"414 746 OFFCURVE",
"414 716 CURVE SMOOTH",
"414 686 OFFCURVE",
"391 663 OFFCURVE",
"361 663 CURVE SMOOTH"
);
},
{
closed = 1;
nodes = (
"394 856 LINE",
"508 1035 LINE",
"383 1035 LINE",
"303 856 LINE"
);
}
);
width = 719;
}
);
leftKerningGroup = A;
note = Aringacute;
rightKerningGroup = A;
unicode = 01FA;
},
{
glyphname = Atilde;
lastChange = "2015-08-01 09:24:45 +0000";
layers = (
{
layerId = "C94C01B0-3DB6-4E3E-9BA4-195D35EE6A10";
name = Regular;
paths = (
{
closed = 1;
nodes = (
"262 0 LINE",
"262 73 LINE",
"212 73 LINE",
"256 201 LINE",
"464 201 LINE",
"508 73 LINE",
"458 73 LINE",
"458 0 LINE",
"686 0 LINE",
"686 73 LINE",
"656 73 LINE SMOOTH",
"626 73 OFFCURVE",
"610 81 OFFCURVE",
"600 109 CURVE SMOOTH",
"411 647 LINE",
"310 647 LINE",
"119 109 LINE SMOOTH",
"109 81 OFFCURVE",
"93 73 OFFCURVE",
"64 73 CURVE SMOOTH",
"33 73 LINE",
"33 0 LINE"
);
},
{
closed = 1;
nodes = (
"361 508 LINE",
"444 264 LINE",
"276 264 LINE"
);
},
{
closed = 1;
nodes = (
"244 701 LINE",
"244 742 OFFCURVE",
"260 754 OFFCURVE",
"289 754 CURVE SMOOTH",
"341 754 OFFCURVE",
"378 701 OFFCURVE",
"449 701 CURVE SMOOTH",
"522 701 OFFCURVE",
"556 742 OFFCURVE",
"556 838 CURVE",
"478 838 LINE",
"478 797 OFFCURVE",
"463 784 OFFCURVE",
"434 784 CURVE SMOOTH",
"385 784 OFFCURVE",
"347 838 OFFCURVE",
"275 838 CURVE SMOOTH",
"201 838 OFFCURVE",
"166 795 OFFCURVE",
"166 701 CURVE"
);
}
);
width = 719;
}
);
leftKerningGroup = A;
note = Atilde;
rightKerningGroup = A;
unicode = 00C3;
},
{
glyphname = AE;
lastChange = "2015-08-01 09:24:49 +0000";
layers = (
{
layerId = "C94C01B0-3DB6-4E3E-9BA4-195D35EE6A10";
name = Regular;
paths = (
{
closed = 1;
nodes = (
"262 0 LINE",
"262 73 LINE",
"212 73 LINE",
"259 201 LINE",
"402 201 LINE",
"402 111 LINE SMOOTH",
"402 84 OFFCURVE",
"392 73 OFFCURVE",
"365 73 CURVE SMOOTH",
"336 73 LINE",
"336 0 LINE",
"805 0 LINE",
"805 130 LINE",
"709 130 LINE",
"709 110 LINE SMOOTH",
"709 84 OFFCURVE",
"698 73 OFFCURVE",
"671 73 CURVE SMOOTH",
"504 73 LINE",
"504 287 LINE",
"671 287 LINE",
"671 361 LINE",
"504 361 LINE",
"504 574 LINE",
"671 574 LINE SMOOTH",
"698 574 OFFCURVE",
"709 563 OFFCURVE",
"709 537 CURVE SMOOTH",
"709 518 LINE",
"805 518 LINE",
"805 647 LINE",
"323 647 LINE",
"119 109 LINE SMOOTH",
"109 81 OFFCURVE",
"93 73 OFFCURVE",
"64 73 CURVE SMOOTH",
"33 73 LINE",
"33 0 LINE"
);
},
{
closed = 1;
nodes = (
"395 573 LINE",
"402 573 LINE",
"402 274 LINE",
"282 274 LINE"
);
}
);
width = 838;
}
);
leftKerningGroup = A;
note = AE;
unicode = 00C6;
},
{
glyphname = AEacute;
lastChange = "2015-08-01 09:24:49 +0000";
layers = (
{
layerId = "C94C01B0-3DB6-4E3E-9BA4-195D35EE6A10";
name = Regular;
paths = (
{
closed = 1;
nodes = (
"262 0 LINE",
"262 73 LINE",
"212 73 LINE",
"259 201 LINE",
"402 201 LINE",
"402 111 LINE SMOOTH",
"402 84 OFFCURVE",
"392 73 OFFCURVE",
"365 73 CURVE SMOOTH",
"336 73 LINE",
"336 0 LINE",
"805 0 LINE",
"805 130 LINE",
"709 130 LINE",
"709 110 LINE SMOOTH",
"709 84 OFFCURVE",
"698 73 OFFCURVE",
"671 73 CURVE SMOOTH",
"504 73 LINE",
"504 287 LINE",
"671 287 LINE",
"671 361 LINE",
"504 361 LINE",
"504 574 LINE",
"671 574 LINE SMOOTH",
"698 574 OFFCURVE",
"709 563 OFFCURVE",
"709 537 CURVE SMOOTH",
"709 518 LINE",
"805 518 LINE",
"805 647 LINE",
"323 647 LINE",
"119 109 LINE SMOOTH",
"109 81 OFFCURVE",
"93 73 OFFCURVE",
"64 73 CURVE SMOOTH",
"33 73 LINE",
"33 0 LINE"
);
},
{
closed = 1;
nodes = (
"395 573 LINE",
"402 573 LINE",
"402 274 LINE",
"282 274 LINE"
);
},
{
closed = 1;
nodes = (
"517 701 LINE",
"631 880 LINE",
"506 880 LINE",
"426 701 LINE"
);
}
);
width = 838;
}
);
leftKerningGroup = A;
note = AEacute;
unicode = 01FC;
},
{
glyphname = B;
lastChange = "2015-08-01 09:24:47 +0000";
layers = (
{
layerId = "C94C01B0-3DB6-4E3E-9BA4-195D35EE6A10";
name = Regular;
paths = (
{
closed = 1;
nodes = (
"385 0 LINE SMOOTH",
"496 0 OFFCURVE",
"558 78 OFFCURVE",
"558 179 CURVE SMOOTH",
"558 253 OFFCURVE",
"524 306 OFFCURVE",
"457 329 CURVE",
"517 356 OFFCURVE",
"547 412 OFFCURVE",
"547 475 CURVE SMOOTH",
"547 584 OFFCURVE",
"484 647 OFFCURVE",
"369 647 CURVE SMOOTH",
"33 647 LINE",
"33 573 LINE",
"62 573 LINE SMOOTH",
"89 573 OFFCURVE",
"99 562 OFFCURVE",
"99 537 CURVE SMOOTH",
"99 111 LINE SMOOTH",
"99 84 OFFCURVE",
"89 73 OFFCURVE",
"62 73 CURVE SMOOTH",
"33 73 LINE",
"33 0 LINE"
);
},
{
closed = 1;
nodes = (
"205 288 LINE",
"340 288 LINE SMOOTH",
"416 288 OFFCURVE",
"454 258 OFFCURVE",
"454 182 CURVE SMOOTH",
"454 108 OFFCURVE",
"415 73 OFFCURVE",
"356 73 CURVE SMOOTH",
"205 73 LINE"
);
},
{
closed = 1;
nodes = (
"205 574 LINE",
"339 574 LINE SMOOTH",
"413 574 OFFCURVE",
"443 540 OFFCURVE",
"443 470 CURVE SMOOTH",
"443 401 OFFCURVE",
"402 363 OFFCURVE",
"334 363 CURVE SMOOTH",
"205 363 LINE"
);
}
);
width = 591;
}
);
note = B;
unicode = 0042;
},
{
glyphname = C;
lastChange = "2015-08-01 09:24:47 +0000";
layers = (
{
layerId = "C94C01B0-3DB6-4E3E-9BA4-195D35EE6A10";
name = Regular;
paths = (
{
closed = 1;
nodes = (
"446 -15 OFFCURVE",
"503 -3 OFFCURVE",
"564 37 CURVE",
"525 99 LINE",
"477 69 OFFCURVE",
"429 59 OFFCURVE",
"367 59 CURVE SMOOTH",
"224 59 OFFCURVE",
"136 156 OFFCURVE",
"136 320 CURVE SMOOTH",
"136 487 OFFCURVE",
"215 588 OFFCURVE",
"351 588 CURVE SMOOTH",
"395 588 OFFCURVE",
"432 581 OFFCURVE",
"461 568 CURVE",
"461 504 LINE",
"566 504 LINE",
"566 606 LINE",
"514 644 OFFCURVE",
"446 662 OFFCURVE",
"351 662 CURVE SMOOTH",
"133 662 OFFCURVE",
"33 514 OFFCURVE",
"33 320 CURVE SMOOTH",
"33 125 OFFCURVE",
"147 -15 OFFCURVE",
"363 -15 CURVE SMOOTH"
);
}
);
width = 599;
}
);
leftKerningGroup = C;
note = C;
unicode = 0043;
},
{
glyphname = Cacute;
lastChange = "2015-08-01 09:24:44 +0000";
layers = (
{
layerId = "C94C01B0-3DB6-4E3E-9BA4-195D35EE6A10";
name = Regular;
paths = (
{
closed = 1;
nodes = (
"446 -15 OFFCURVE",
"503 -3 OFFCURVE",
"564 37 CURVE",
"525 99 LINE",
"477 69 OFFCURVE",
"429 59 OFFCURVE",
"367 59 CURVE SMOOTH",
"224 59 OFFCURVE",
"136 156 OFFCURVE",
"136 320 CURVE SMOOTH",
"136 487 OFFCURVE",
"215 588 OFFCURVE",
"351 588 CURVE SMOOTH",
"395 588 OFFCURVE",
"432 581 OFFCURVE",
"461 568 CURVE",
"461 504 LINE",
"566 504 LINE",
"566 606 LINE",
"514 644 OFFCURVE",
"446 662 OFFCURVE",
"351 662 CURVE SMOOTH",
"133 662 OFFCURVE",
"33 514 OFFCURVE",
"33 320 CURVE SMOOTH",
"33 125 OFFCURVE",
"147 -15 OFFCURVE",
"363 -15 CURVE SMOOTH"
);
},
{
closed = 1;
nodes = (
"376 701 LINE",
"490 880 LINE",
"365 880 LINE",
"285 701 LINE"
);
}
);
width = 599;
}
);
leftKerningGroup = C;
note = Cacute;
unicode = 0106;
},
{
glyphname = Ccaron;
lastChange = "2015-08-01 09:24:44 +0000";
layers = (
{
layerId = "C94C01B0-3DB6-4E3E-9BA4-195D35EE6A10";
name = Regular;
paths = (
{
closed = 1;
nodes = (
"446 -15 OFFCURVE",
"503 -3 OFFCURVE",
"564 37 CURVE",
"525 99 LINE",
"477 69 OFFCURVE",
"429 59 OFFCURVE",
"367 59 CURVE SMOOTH",
"224 59 OFFCURVE",
"136 156 OFFCURVE",
"136 320 CURVE SMOOTH",
"136 487 OFFCURVE",
"215 588 OFFCURVE",
"351 588 CURVE SMOOTH",
"395 588 OFFCURVE",
"432 581 OFFCURVE",
"461 568 CURVE",
"461 504 LINE",
"566 504 LINE",
"566 606 LINE",
"514 644 OFFCURVE",
"446 662 OFFCURVE",
"351 662 CURVE SMOOTH",
"133 662 OFFCURVE",
"33 514 OFFCURVE",
"33 320 CURVE SMOOTH",
"33 125 OFFCURVE",
"147 -15 OFFCURVE",
"363 -15 CURVE SMOOTH"
);
},
{
closed = 1;
nodes = (
"390 701 LINE",
"515 889 LINE",
"415 889 LINE",
"338 763 LINE",
"261 889 LINE",
"162 889 LINE",
"287 701 LINE"
);
}
);
width = 599;
}
);
leftKerningGroup = C;
note = Ccaron;
unicode = 010C;
},
{
glyphname = Ccedilla;
lastChange = "2015-08-01 09:24:50 +0000";
layers = (
{
layerId = "C94C01B0-3DB6-4E3E-9BA4-195D35EE6A10";
name = Regular;
paths = (
{
closed = 1;
nodes = (
"446 -15 OFFCURVE",
"503 -3 OFFCURVE",
"564 37 CURVE",
"525 99 LINE",
"477 69 OFFCURVE",
"429 59 OFFCURVE",
"367 59 CURVE SMOOTH",
"224 59 OFFCURVE",
"136 156 OFFCURVE",
"136 320 CURVE SMOOTH",
"136 487 OFFCURVE",
"215 588 OFFCURVE",
"351 588 CURVE SMOOTH",
"395 588 OFFCURVE",
"432 581 OFFCURVE",
"461 568 CURVE",
"461 504 LINE",
"566 504 LINE",
"566 606 LINE",
"514 644 OFFCURVE",
"446 662 OFFCURVE",
"351 662 CURVE SMOOTH",
"133 662 OFFCURVE",
"33 514 OFFCURVE",
"33 320 CURVE SMOOTH",
"33 125 OFFCURVE",
"147 -15 OFFCURVE",
"363 -15 CURVE SMOOTH"
);
},
{
closed = 1;
nodes = (
"426 -228 OFFCURVE",
"470 -194 OFFCURVE",
"470 -133 CURVE SMOOTH",
"470 -86 OFFCURVE",
"448 -56 OFFCURVE",
"389 -46 CURVE",
"397 0 LINE",
"302 0 LINE",
"289 -82 LINE",
"365 -82 OFFCURVE",
"381 -97 OFFCURVE",
"381 -130 CURVE SMOOTH",
"381 -154 OFFCURVE",
"363 -166 OFFCURVE",
"324 -166 CURVE SMOOTH",
"302 -166 OFFCURVE",
"277 -161 OFFCURVE",
"259 -153 CURVE",
"259 -215 LINE",
"282 -224 OFFCURVE",
"306 -228 OFFCURVE",
"334 -228 CURVE SMOOTH"
);
}
);
width = 599;
}
);
leftKerningGroup = C;
note = Ccedilla;
unicode = 00C7;
},
{
glyphname = Ccircumflex;
lastChange = "2015-08-01 09:24:46 +0000";
layers = (
{
layerId = "C94C01B0-3DB6-4E3E-9BA4-195D35EE6A10";
name = Regular;
paths = (
{
closed = 1;
nodes = (
"446 -15 OFFCURVE",
"503 -3 OFFCURVE",
"564 37 CURVE",
"525 99 LINE",
"477 69 OFFCURVE",
"429 59 OFFCURVE",
"367 59 CURVE SMOOTH",
"224 59 OFFCURVE",
"136 156 OFFCURVE",
"136 320 CURVE SMOOTH",
"136 487 OFFCURVE",
"215 588 OFFCURVE",
"351 588 CURVE SMOOTH",
"395 588 OFFCURVE",
"432 581 OFFCURVE",
"461 568 CURVE",
"461 504 LINE",
"566 504 LINE",
"566 606 LINE",
"514 644 OFFCURVE",
"446 662 OFFCURVE",
"351 662 CURVE SMOOTH",
"133 662 OFFCURVE",
"33 514 OFFCURVE",
"33 320 CURVE SMOOTH",
"33 125 OFFCURVE",
"147 -15 OFFCURVE",
"363 -15 CURVE SMOOTH"
);
},
{
closed = 1;
nodes = (
"263 701 LINE",
"340 827 LINE",
"417 701 LINE",
"517 701 LINE",
"392 889 LINE",
"289 889 LINE",
"164 701 LINE"
);
}
);
width = 599;
}
);
leftKerningGroup = C;
note = Ccircumflex;
unicode = 0108;
},
{
glyphname = Cdotaccent;
lastChange = "2015-08-01 09:24:44 +0000";
layers = (
{
layerId = "C94C01B0-3DB6-4E3E-9BA4-195D35EE6A10";
name = Regular;
paths = (
{
closed = 1;
nodes = (
"446 -15 OFFCURVE",
"503 -3 OFFCURVE",
"564 37 CURVE",
"525 99 LINE",
"477 69 OFFCURVE",
"429 59 OFFCURVE",
"367 59 CURVE SMOOTH",
"224 59 OFFCURVE",
"136 156 OFFCURVE",
"136 320 CURVE SMOOTH",
"136 487 OFFCURVE",
"215 588 OFFCURVE",
"351 588 CURVE SMOOTH",
"395 588 OFFCURVE",
"432 581 OFFCURVE",
"461 568 CURVE",
"461 504 LINE",
"566 504 LINE",
"566 606 LINE",
"514 644 OFFCURVE",
"446 662 OFFCURVE",
"351 662 CURVE SMOOTH",
"133 662 OFFCURVE",
"33 514 OFFCURVE",
"33 320 CURVE SMOOTH",
"33 125 OFFCURVE",
"147 -15 OFFCURVE",
"363 -15 CURVE SMOOTH"
);
},
{
closed = 1;
nodes = (
"392 720 LINE",
"392 816 LINE",
"300 816 LINE",
"300 720 LINE"
);
}
);
width = 599;
}
);
leftKerningGroup = C;
note = Cdotaccent;
unicode = 010A;
},
{
glyphname = D;
lastChange = "2015-08-01 09:24:48 +0000";
layers = (
{
layerId = "C94C01B0-3DB6-4E3E-9BA4-195D35EE6A10";
name = Regular;
paths = (
{
closed = 1;
nodes = (
"321 0 LINE SMOOTH",
"507 0 OFFCURVE",
"595 134 OFFCURVE",
"595 321 CURVE SMOOTH",
"595 522 OFFCURVE",
"511 647 OFFCURVE",
"321 647 CURVE SMOOTH",
"33 647 LINE",
"33 574 LINE",
"56 574 LINE SMOOTH",
"83 574 OFFCURVE",
"93 563 OFFCURVE",
"93 538 CURVE SMOOTH",
"93 110 LINE SMOOTH",
"93 83 OFFCURVE",
"83 72 OFFCURVE",
"56 72 CURVE SMOOTH",
"33 72 LINE",
"33 0 LINE"
);
},
{
closed = 1;
nodes = (
"199 575 LINE",
"307 575 LINE SMOOTH",
"442 575 OFFCURVE",
"491 486 OFFCURVE",
"491 321 CURVE SMOOTH",
"491 160 OFFCURVE",
"441 72 OFFCURVE",
"307 72 CURVE SMOOTH",
"199 72 LINE"
);
}
);
width = 628;
}
);
note = D;
rightKerningGroup = D;
unicode = 0044;
},
{
glyphname = Eth;
lastChange = "2015-08-01 09:24:51 +0000";
layers = (
{
layerId = "C94C01B0-3DB6-4E3E-9BA4-195D35EE6A10";
name = Regular;
paths = (
{
closed = 1;
nodes = (
"321 0 LINE SMOOTH",
"507 0 OFFCURVE",
"595 134 OFFCURVE",
"595 321 CURVE SMOOTH",
"595 522 OFFCURVE",
"511 647 OFFCURVE",
"321 647 CURVE SMOOTH",
"33 647 LINE",
"33 574 LINE",
"56 574 LINE SMOOTH",
"83 574 OFFCURVE",
"93 563 OFFCURVE",
"93 538 CURVE SMOOTH",
"93 360 LINE",
"33 360 LINE",
"33 286 LINE",
"93 286 LINE",
"93 110 LINE SMOOTH",
"93 83 OFFCURVE",
"83 72 OFFCURVE",
"56 72 CURVE SMOOTH",
"33 72 LINE",
"33 0 LINE"
);
},
{
closed = 1;
nodes = (
"199 286 LINE",
"336 286 LINE",
"336 360 LINE",
"199 360 LINE",
"199 575 LINE",
"307 575 LINE SMOOTH",
"442 575 OFFCURVE",
"491 486 OFFCURVE",
"491 321 CURVE SMOOTH",
"491 160 OFFCURVE",
"441 72 OFFCURVE",
"307 72 CURVE SMOOTH",
"199 72 LINE"
);
}
);
width = 628;
}
);
note = Eth;
rightKerningGroup = D;
unicode = 00D0;
},
{
glyphname = Dcaron;
lastChange = "2015-08-01 09:24:48 +0000";
layers = (
{
layerId = "C94C01B0-3DB6-4E3E-9BA4-195D35EE6A10";
name = Regular;
paths = (
{
closed = 1;
nodes = (
"321 0 LINE SMOOTH",
"507 0 OFFCURVE",
"595 134 OFFCURVE",
"595 321 CURVE SMOOTH",
"595 522 OFFCURVE",
"511 647 OFFCURVE",
"321 647 CURVE SMOOTH",
"33 647 LINE",
"33 574 LINE",
"56 574 LINE SMOOTH",
"83 574 OFFCURVE",
"93 563 OFFCURVE",
"93 538 CURVE SMOOTH",
"93 110 LINE SMOOTH",
"93 83 OFFCURVE",
"83 72 OFFCURVE",
"56 72 CURVE SMOOTH",
"33 72 LINE",
"33 0 LINE"
);
},
{
closed = 1;
nodes = (
"199 575 LINE",
"307 575 LINE SMOOTH",
"442 575 OFFCURVE",
"491 486 OFFCURVE",
"491 321 CURVE SMOOTH",
"491 160 OFFCURVE",
"441 72 OFFCURVE",
"307 72 CURVE SMOOTH",
"199 72 LINE"
);
},
{
closed = 1;
nodes = (
"308 701 LINE",
"433 889 LINE",
"333 889 LINE",
"256 763 LINE",
"179 889 LINE",
"80 889 LINE",
"205 701 LINE"
);
}
);
width = 628;
}
);
note = Dcaron;
rightKerningGroup = D;
unicode = 010E;
},
{
glyphname = Dcroat;
lastChange = "2015-08-01 09:24:51 +0000";
layers = (
{
layerId = "C94C01B0-3DB6-4E3E-9BA4-195D35EE6A10";
name = Regular;
paths = (
{
closed = 1;
nodes = (
"321 0 LINE SMOOTH",
"507 0 OFFCURVE",
"595 134 OFFCURVE",
"595 321 CURVE SMOOTH",
"595 522 OFFCURVE",
"511 647 OFFCURVE",
"321 647 CURVE SMOOTH",
"33 647 LINE",
"33 574 LINE",
"56 574 LINE SMOOTH",
"83 574 OFFCURVE",
"93 563 OFFCURVE",
"93 538 CURVE SMOOTH",
"93 360 LINE",
"33 360 LINE",
"33 286 LINE",
"93 286 LINE",
"93 110 LINE SMOOTH",
"93 83 OFFCURVE",
"83 72 OFFCURVE",
"56 72 CURVE SMOOTH",
"33 72 LINE",
"33 0 LINE"
);
},
{
closed = 1;
nodes = (
"199 286 LINE",
"336 286 LINE",
"336 360 LINE",
"199 360 LINE",
"199 575 LINE",
"307 575 LINE SMOOTH",
"442 575 OFFCURVE",
"491 486 OFFCURVE",
"491 321 CURVE SMOOTH",
"491 160 OFFCURVE",
"441 72 OFFCURVE",
"307 72 CURVE SMOOTH",
"199 72 LINE"
);
}
);
width = 628;
}
);
note = Dcroat;
rightKerningGroup = D;
unicode = 0110;
},
{
glyphname = Ddotbelow;
lastChange = "2015-08-01 09:24:47 +0000";
layers = (
{
layerId = "C94C01B0-3DB6-4E3E-9BA4-195D35EE6A10";
name = Regular;
paths = (
{
closed = 1;
nodes = (
"321 0 LINE SMOOTH",
"507 0 OFFCURVE",
"595 134 OFFCURVE",
"595 321 CURVE SMOOTH",
"595 522 OFFCURVE",
"511 647 OFFCURVE",
"321 647 CURVE SMOOTH",
"33 647 LINE",
"33 574 LINE",
"56 574 LINE SMOOTH",
"83 574 OFFCURVE",
"93 563 OFFCURVE",
"93 538 CURVE SMOOTH",
"93 110 LINE SMOOTH",
"93 83 OFFCURVE",
"83 72 OFFCURVE",
"56 72 CURVE SMOOTH",
"33 72 LINE",
"33 0 LINE"
);
},
{
closed = 1;
nodes = (
"308 -158 LINE",
"308 -62 LINE",
"216 -62 LINE",
"216 -158 LINE"
);
},
{
closed = 1;
nodes = (
"199 575 LINE",
"307 575 LINE SMOOTH",
"442 575 OFFCURVE",
"491 486 OFFCURVE",
"491 321 CURVE SMOOTH",
"491 160 OFFCURVE",
"441 72 OFFCURVE",
"307 72 CURVE SMOOTH",
"199 72 LINE"
);
}
);
width = 628;
}
);
note = Ddotbelow;
rightKerningGroup = D;
unicode = 1E0C;
},
{
glyphname = Dlinebelow;
lastChange = "2015-08-01 09:24:45 +0000";
layers = (
{
layerId = "C94C01B0-3DB6-4E3E-9BA4-195D35EE6A10";
name = Regular;
paths = (
{
closed = 1;
nodes = (
"321 0 LINE SMOOTH",
"507 0 OFFCURVE",
"595 134 OFFCURVE",
"595 321 CURVE SMOOTH",
"595 522 OFFCURVE",
"511 647 OFFCURVE",
"321 647 CURVE SMOOTH",
"33 647 LINE",
"33 574 LINE",
"56 574 LINE SMOOTH",
"83 574 OFFCURVE",
"93 563 OFFCURVE",
"93 538 CURVE SMOOTH",
"93 110 LINE SMOOTH",
"93 83 OFFCURVE",
"83 72 OFFCURVE",
"56 72 CURVE SMOOTH",
"33 72 LINE",
"33 0 LINE"
);
},
{
closed = 1;
nodes = (
"410 -132 LINE",
"410 -63 LINE",
"121 -63 LINE",
"121 -132 LINE"
);
},
{
closed = 1;
nodes = (
"199 575 LINE",
"307 575 LINE SMOOTH",
"442 575 OFFCURVE",
"491 486 OFFCURVE",
"491 321 CURVE SMOOTH",
"491 160 OFFCURVE",
"441 72 OFFCURVE",
"307 72 CURVE SMOOTH",
"199 72 LINE"
);
}
);
width = 628;
}
);
note = Dlinebelow;
rightKerningGroup = D;
unicode = 1E0E;
},
{
glyphname = E;
lastChange = "2015-08-01 09:24:50 +0000";
layers = (
{
layerId = "C94C01B0-3DB6-4E3E-9BA4-195D35EE6A10";
name = Regular;
paths = (
{
closed = 1;
nodes = (
"512 0 LINE",
"512 130 LINE",
"416 130 LINE",
"416 110 LINE SMOOTH",
"416 84 OFFCURVE",
"405 73 OFFCURVE",
"378 73 CURVE SMOOTH",
"205 73 LINE",
"205 287 LINE",
"378 287 LINE",
"378 361 LINE",
"205 361 LINE",
"205 574 LINE",
"378 574 LINE SMOOTH",
"405 574 OFFCURVE",
"416 563 OFFCURVE",
"416 538 CURVE SMOOTH",
"416 518 LINE",
"512 518 LINE",
"512 647 LINE",
"33 647 LINE",
"33 573 LINE",
"62 573 LINE SMOOTH",
"89 573 OFFCURVE",
"99 562 OFFCURVE",
"99 537 CURVE SMOOTH",
"99 111 LINE SMOOTH",
"99 84 OFFCURVE",
"89 73 OFFCURVE",
"62 73 CURVE SMOOTH",
"33 73 LINE",
"33 0 LINE"
);
}
);
width = 545;
}
);
leftKerningGroup = E;
note = E;
rightKerningGroup = E;
unicode = 0045;
},
{
glyphname = Eacute;
lastChange = "2015-08-01 09:24:45 +0000";
layers = (
{
layerId = "C94C01B0-3DB6-4E3E-9BA4-195D35EE6A10";
name = Regular;
paths = (
{
closed = 1;
nodes = (
"512 0 LINE",
"512 130 LINE",
"416 130 LINE",
"416 110 LINE SMOOTH",
"416 84 OFFCURVE",
"405 73 OFFCURVE",
"378 73 CURVE SMOOTH",
"205 73 LINE",
"205 287 LINE",
"378 287 LINE",
"378 361 LINE",
"205 361 LINE",
"205 574 LINE",
"378 574 LINE SMOOTH",
"405 574 OFFCURVE",
"416 563 OFFCURVE",
"416 538 CURVE SMOOTH",
"416 518 LINE",
"512 518 LINE",
"512 647 LINE",
"33 647 LINE",
"33 573 LINE",
"62 573 LINE SMOOTH",
"89 573 OFFCURVE",
"99 562 OFFCURVE",
"99 537 CURVE SMOOTH",
"99 111 LINE SMOOTH",
"99 84 OFFCURVE",
"89 73 OFFCURVE",
"62 73 CURVE SMOOTH",
"33 73 LINE",
"33 0 LINE"
);
},
{
closed = 1;
nodes = (
"296 701 LINE",
"410 880 LINE",
"285 880 LINE",
"205 701 LINE"
);
}
);
width = 545;
}
);
leftKerningGroup = E;
note = Eacute;
rightKerningGroup = E;
unicode = 00C9;
},
{
glyphname = Ebreve;
lastChange = "2015-08-01 09:24:46 +0000";
layers = (
{
layerId = "C94C01B0-3DB6-4E3E-9BA4-195D35EE6A10";
name = Regular;
paths = (
{
closed = 1;
nodes = (
"512 0 LINE",
"512 130 LINE",
"416 130 LINE",
"416 110 LINE SMOOTH",
"416 84 OFFCURVE",
"405 73 OFFCURVE",
"378 73 CURVE SMOOTH",
"205 73 LINE",
"205 287 LINE",
"378 287 LINE",
"378 361 LINE",
"205 361 LINE",
"205 574 LINE",
"378 574 LINE SMOOTH",
"405 574 OFFCURVE",
"416 563 OFFCURVE",
"416 538 CURVE SMOOTH",
"416 518 LINE",
"512 518 LINE",
"512 647 LINE",
"33 647 LINE",
"33 573 LINE",
"62 573 LINE SMOOTH",
"89 573 OFFCURVE",
"99 562 OFFCURVE",
"99 537 CURVE SMOOTH",
"99 111 LINE SMOOTH",
"99 84 OFFCURVE",
"89 73 OFFCURVE",
"62 73 CURVE SMOOTH",
"33 73 LINE",
"33 0 LINE"
);
},
{
closed = 1;
nodes = (
"375 701 OFFCURVE",
"437 757 OFFCURVE",
"437 844 CURVE",
"350 844 LINE",
"350 796 OFFCURVE",
"325 769 OFFCURVE",
"278 769 CURVE SMOOTH",
"233 769 OFFCURVE",
"206 796 OFFCURVE",
"206 844 CURVE",
"119 844 LINE",
"119 757 OFFCURVE",
"181 701 OFFCURVE",
"278 701 CURVE SMOOTH"
);
}
);
width = 545;
}
);
leftKerningGroup = E;
note = Ebreve;
rightKerningGroup = E;
unicode = 0114;
},
{
glyphname = Ecaron;
lastChange = "2015-08-01 09:24:48 +0000";
layers = (
{
layerId = "C94C01B0-3DB6-4E3E-9BA4-195D35EE6A10";
name = Regular;
paths = (
{
closed = 1;
nodes = (
"512 0 LINE",
"512 130 LINE",
"416 130 LINE",
"416 110 LINE SMOOTH",
"416 84 OFFCURVE",
"405 73 OFFCURVE",
"378 73 CURVE SMOOTH",
"205 73 LINE",
"205 287 LINE",
"378 287 LINE",
"378 361 LINE",
"205 361 LINE",
"205 574 LINE",
"378 574 LINE SMOOTH",
"405 574 OFFCURVE",
"416 563 OFFCURVE",
"416 538 CURVE SMOOTH",
"416 518 LINE",
"512 518 LINE",
"512 647 LINE",
"33 647 LINE",
"33 573 LINE",
"62 573 LINE SMOOTH",
"89 573 OFFCURVE",
"99 562 OFFCURVE",
"99 537 CURVE SMOOTH",
"99 111 LINE SMOOTH",
"99 84 OFFCURVE",
"89 73 OFFCURVE",
"62 73 CURVE SMOOTH",
"33 73 LINE",
"33 0 LINE"
);
},
{
closed = 1;
nodes = (
"324 701 LINE",
"449 889 LINE",
"349 889 LINE",
"272 763 LINE",
"195 889 LINE",
"96 889 LINE",
"221 701 LINE"
);
}
);
width = 545;
}
);
leftKerningGroup = E;
note = Ecaron;
rightKerningGroup = E;
unicode = 011A;
},
{
glyphname = Ecircumflex;
lastChange = "2015-08-01 09:24:47 +0000";
layers = (
{
layerId = "C94C01B0-3DB6-4E3E-9BA4-195D35EE6A10";
name = Regular;
paths = (
{
closed = 1;
nodes = (
"512 0 LINE",
"512 130 LINE",
"416 130 LINE",
"416 110 LINE SMOOTH",
"416 84 OFFCURVE",
"405 73 OFFCURVE",
"378 73 CURVE SMOOTH",
"205 73 LINE",
"205 287 LINE",
"378 287 LINE",
"378 361 LINE",
"205 361 LINE",
"205 574 LINE",
"378 574 LINE SMOOTH",
"405 574 OFFCURVE",
"416 563 OFFCURVE",
"416 538 CURVE SMOOTH",
"416 518 LINE",
"512 518 LINE",
"512 647 LINE",
"33 647 LINE",
"33 573 LINE",
"62 573 LINE SMOOTH",
"89 573 OFFCURVE",
"99 562 OFFCURVE",
"99 537 CURVE SMOOTH",
"99 111 LINE SMOOTH",
"99 84 OFFCURVE",
"89 73 OFFCURVE",
"62 73 CURVE SMOOTH",
"33 73 LINE",
"33 0 LINE"
);
},
{
closed = 1;
nodes = (
"181 701 LINE",
"258 827 LINE",
"335 701 LINE",
"435 701 LINE",
"310 889 LINE",
"207 889 LINE",
"82 701 LINE"
);
}
);
width = 545;
}
);
leftKerningGroup = E;
note = Ecircumflex;
rightKerningGroup = E;
unicode = 00CA;
},
{
glyphname = Ecircumflexacute;
lastChange = "2015-08-01 09:24:45 +0000";
layers = (
{
layerId = "C94C01B0-3DB6-4E3E-9BA4-195D35EE6A10";
name = Regular;
paths = (
{
closed = 1;
nodes = (
"512 0 LINE",
"512 130 LINE",
"416 130 LINE",
"416 110 LINE SMOOTH",
"416 84 OFFCURVE",
"405 73 OFFCURVE",
"378 73 CURVE SMOOTH",
"205 73 LINE",
"205 287 LINE",
"378 287 LINE",
"378 361 LINE",
"205 361 LINE",
"205 574 LINE",
"378 574 LINE SMOOTH",
"405 574 OFFCURVE",
"416 563 OFFCURVE",
"416 538 CURVE SMOOTH",
"416 518 LINE",
"512 518 LINE",
"512 647 LINE",
"33 647 LINE",
"33 573 LINE",
"62 573 LINE SMOOTH",
"89 573 OFFCURVE",
"99 562 OFFCURVE",
"99 537 CURVE SMOOTH",
"99 111 LINE SMOOTH",
"99 84 OFFCURVE",
"89 73 OFFCURVE",
"62 73 CURVE SMOOTH",
"33 73 LINE",
"33 0 LINE"
);
},
{
closed = 1;
nodes = (
"202 701 LINE",
"266 786 LINE",
"328 701 LINE",
"423 701 LINE",
"316 836 LINE",
"216 836 LINE",
"109 701 LINE"
);
},
{
closed = 1;
nodes = (
"443 810 LINE",
"541 937 LINE",
"428 937 LINE",
"365 810 LINE"
);
}
);
width = 574;
}
);
leftKerningGroup = E;
note = Ecircumflexacute;
rightKerningGroup = E;
unicode = 1EBE;
},
{
glyphname = Ecircumflexdotbelow;
lastChange = "2015-08-01 09:24:45 +0000";
layers = (
{
layerId = "C94C01B0-3DB6-4E3E-9BA4-195D35EE6A10";
name = Regular;
paths = (
{
closed = 1;
nodes = (
"512 0 LINE",
"512 130 LINE",
"416 130 LINE",
"416 110 LINE SMOOTH",
"416 84 OFFCURVE",
"405 73 OFFCURVE",
"378 73 CURVE SMOOTH",
"205 73 LINE",
"205 287 LINE",
"378 287 LINE",
"378 361 LINE",
"205 361 LINE",
"205 574 LINE",
"378 574 LINE SMOOTH",
"405 574 OFFCURVE",
"416 563 OFFCURVE",
"416 538 CURVE SMOOTH",
"416 518 LINE",
"512 518 LINE",
"512 647 LINE",
"33 647 LINE",
"33 573 LINE",
"62 573 LINE SMOOTH",
"89 573 OFFCURVE",
"99 562 OFFCURVE",
"99 537 CURVE SMOOTH",
"99 111 LINE SMOOTH",
"99 84 OFFCURVE",
"89 73 OFFCURVE",
"62 73 CURVE SMOOTH",
"33 73 LINE",
"33 0 LINE"
);
},
{
closed = 1;
nodes = (
"318 -158 LINE",
"318 -62 LINE",
"226 -62 LINE",
"226 -158 LINE"
);
},
{
closed = 1;
nodes = (
"194 701 LINE",
"271 827 LINE",
"348 701 LINE",
"448 701 LINE",
"323 889 LINE",
"220 889 LINE",
"95 701 LINE"
);
}
);
width = 545;
}
);
leftKerningGroup = E;
note = Ecircumflexdotbelow;
rightKerningGroup = E;
unicode = 1EC6;
},
{
glyphname = Ecircumflexgrave;
lastChange = "2015-08-01 09:24:44 +0000";
layers = (
{
layerId = "C94C01B0-3DB6-4E3E-9BA4-195D35EE6A10";
name = Regular;
paths = (
{
closed = 1;
nodes = (
"517 0 LINE",
"517 130 LINE",
"421 130 LINE",
"421 110 LINE SMOOTH",
"421 84 OFFCURVE",
"410 73 OFFCURVE",
"383 73 CURVE SMOOTH",
"210 73 LINE",
"210 287 LINE",
"383 287 LINE",
"383 361 LINE",
"210 361 LINE",
"210 574 LINE",
"383 574 LINE SMOOTH",
"410 574 OFFCURVE",
"421 563 OFFCURVE",
"421 538 CURVE SMOOTH",
"421 518 LINE",
"517 518 LINE",
"517 647 LINE",
"38 647 LINE",
"38 573 LINE",
"67 573 LINE SMOOTH",
"94 573 OFFCURVE",
"104 562 OFFCURVE",
"104 537 CURVE SMOOTH",
"104 111 LINE SMOOTH",
"104 84 OFFCURVE",
"94 73 OFFCURVE",
"67 73 CURVE SMOOTH",
"38 73 LINE",
"38 0 LINE"
);
},
{
closed = 1;
nodes = (
"181 810 LINE",
"118 937 LINE",
"5 937 LINE",
"103 810 LINE"
);
},
{
closed = 1;
nodes = (
"218 701 LINE",
"280 786 LINE",
"344 701 LINE",
"437 701 LINE",
"330 836 LINE",
"230 836 LINE",
"123 701 LINE"
);
}
);
width = 550;
}
);
leftKerningGroup = E;
note = Ecircumflexgrave;
rightKerningGroup = E;
unicode = 1EC0;
},
{
glyphname = Ecircumflexhookabove;
lastChange = "2015-08-01 09:24:45 +0000";
layers = (
{
layerId = "C94C01B0-3DB6-4E3E-9BA4-195D35EE6A10";
name = Regular;
paths = (
{
closed = 1;
nodes = (
"512 0 LINE",
"512 130 LINE",
"416 130 LINE",
"416 110 LINE SMOOTH",
"416 84 OFFCURVE",
"405 73 OFFCURVE",
"378 73 CURVE SMOOTH",
"205 73 LINE",
"205 287 LINE",
"378 287 LINE",
"378 361 LINE",
"205 361 LINE",
"205 574 LINE",
"378 574 LINE SMOOTH",
"405 574 OFFCURVE",
"416 563 OFFCURVE",
"416 538 CURVE SMOOTH",
"416 518 LINE",
"512 518 LINE",
"512 647 LINE",
"33 647 LINE",
"33 573 LINE",
"62 573 LINE SMOOTH",
"89 573 OFFCURVE",
"99 562 OFFCURVE",
"99 537 CURVE SMOOTH",
"99 111 LINE SMOOTH",
"99 84 OFFCURVE",
"89 73 OFFCURVE",
"62 73 CURVE SMOOTH",
"33 73 LINE",
"33 0 LINE"
);
},
{
closed = 1;
nodes = (
"202 701 LINE",
"264 786 LINE",
"328 701 LINE",
"422 701 LINE",
"315 836 LINE",
"214 836 LINE",
"108 701 LINE"
);
},
{
closed = 1;
nodes = (
"413 827 LINE",
"413 850 LINE",
"454 858 OFFCURVE",
"472 878 OFFCURVE",
"472 914 CURVE SMOOTH",
"472 959 OFFCURVE",
"444 984 OFFCURVE",
"385 984 CURVE SMOOTH",
"361 984 OFFCURVE",
"338 980 OFFCURVE",
"324 975 CURVE",
"324 924 LINE",
"335 928 OFFCURVE",
"350 932 OFFCURVE",
"365 932 CURVE SMOOTH",
"385 932 OFFCURVE",
"399 924 OFFCURVE",
"399 906 CURVE SMOOTH",
"399 882 OFFCURVE",
"387 873 OFFCURVE",
"342 873 CURVE",
"342 827 LINE"
);
}
);
width = 545;
}
);
leftKerningGroup = E;
note = Ecircumflexhookabove;
rightKerningGroup = E;
unicode = 1EC2;
},
{
glyphname = Ecircumflextilde;
lastChange = "2015-08-01 09:24:47 +0000";
layers = (
{
layerId = "C94C01B0-3DB6-4E3E-9BA4-195D35EE6A10";
name = Regular;
paths = (
{
closed = 1;
nodes = (
"512 0 LINE",
"512 130 LINE",
"416 130 LINE",
"416 110 LINE SMOOTH",
"416 84 OFFCURVE",
"405 73 OFFCURVE",
"378 73 CURVE SMOOTH",
"205 73 LINE",
"205 287 LINE",
"378 287 LINE",
"378 361 LINE",
"205 361 LINE",
"205 574 LINE",
"378 574 LINE SMOOTH",
"405 574 OFFCURVE",
"416 563 OFFCURVE",
"416 538 CURVE SMOOTH",
"416 518 LINE",
"512 518 LINE",
"512 647 LINE",
"33 647 LINE",
"33 573 LINE",
"62 573 LINE SMOOTH",
"89 573 OFFCURVE",
"99 562 OFFCURVE",
"99 537 CURVE SMOOTH",
"99 111 LINE SMOOTH",
"99 84 OFFCURVE",
"89 73 OFFCURVE",
"62 73 CURVE SMOOTH",
"33 73 LINE",
"33 0 LINE"
);
},
{
closed = 1;
nodes = (
"220 701 LINE",
"282 786 LINE",
"346 701 LINE",
"440 701 LINE",
"333 836 LINE",
"232 836 LINE",
"126 701 LINE"
);
},
{
closed = 1;
nodes = (
"407 854 OFFCURVE",
"432 882 OFFCURVE",
"432 952 CURVE",
"373 952 LINE",
"373 926 OFFCURVE",
"365 912 OFFCURVE",
"342 912 CURVE SMOOTH",
"307 912 OFFCURVE",
"270 954 OFFCURVE",
"218 954 CURVE SMOOTH",
"162 954 OFFCURVE",
"134 927 OFFCURVE",
"134 856 CURVE",
"193 856 LINE",
"193 882 OFFCURVE",
"201 896 OFFCURVE",
"224 896 CURVE SMOOTH",
"259 896 OFFCURVE",
"302 854 OFFCURVE",
"351 854 CURVE SMOOTH"
);
}
);
width = 545;
}
);
leftKerningGroup = E;
note = Ecircumflextilde;
rightKerningGroup = E;
unicode = 1EC4;
},
{
glyphname = Edieresis;
lastChange = "2015-08-01 09:24:49 +0000";
layers = (
{
layerId = "C94C01B0-3DB6-4E3E-9BA4-195D35EE6A10";
name = Regular;
paths = (
{
closed = 1;
nodes = (
"512 0 LINE",
"512 130 LINE",
"416 130 LINE",
"416 110 LINE SMOOTH",
"416 84 OFFCURVE",
"405 73 OFFCURVE",
"378 73 CURVE SMOOTH",
"205 73 LINE",
"205 287 LINE",
"378 287 LINE",
"378 361 LINE",
"205 361 LINE",
"205 574 LINE",
"378 574 LINE SMOOTH",
"405 574 OFFCURVE",
"416 563 OFFCURVE",
"416 538 CURVE SMOOTH",
"416 518 LINE",
"512 518 LINE",
"512 647 LINE",
"33 647 LINE",
"33 573 LINE",
"62 573 LINE SMOOTH",
"89 573 OFFCURVE",
"99 562 OFFCURVE",
"99 537 CURVE SMOOTH",
"99 111 LINE SMOOTH",
"99 84 OFFCURVE",
"89 73 OFFCURVE",
"62 73 CURVE SMOOTH",
"33 73 LINE",
"33 0 LINE"
);
},
{
closed = 1;
nodes = (
"199 720 LINE",
"199 816 LINE",
"107 816 LINE",
"107 720 LINE"
);
},
{
closed = 1;
nodes = (
"413 720 LINE",
"413 816 LINE",
"320 816 LINE",
"320 720 LINE"
);
}
);
width = 545;
}
);
leftKerningGroup = E;
note = Edieresis;
rightKerningGroup = E;
unicode = 00CB;
},
{
glyphname = Edotaccent;
lastChange = "2015-08-01 09:24:49 +0000";
layers = (
{
layerId = "C94C01B0-3DB6-4E3E-9BA4-195D35EE6A10";
name = Regular;
paths = (
{
closed = 1;
nodes = (
"512 0 LINE",
"512 130 LINE",
"416 130 LINE",
"416 110 LINE SMOOTH",
"416 84 OFFCURVE",
"405 73 OFFCURVE",
"378 73 CURVE SMOOTH",
"205 73 LINE",
"205 287 LINE",
"378 287 LINE",
"378 361 LINE",
"205 361 LINE",
"205 574 LINE",
"378 574 LINE SMOOTH",
"405 574 OFFCURVE",
"416 563 OFFCURVE",
"416 538 CURVE SMOOTH",
"416 518 LINE",
"512 518 LINE",
"512 647 LINE",
"33 647 LINE",
"33 573 LINE",
"62 573 LINE SMOOTH",
"89 573 OFFCURVE",
"99 562 OFFCURVE",
"99 537 CURVE SMOOTH",
"99 111 LINE SMOOTH",
"99 84 OFFCURVE",
"89 73 OFFCURVE",
"62 73 CURVE SMOOTH",
"33 73 LINE",
"33 0 LINE"
);
},
{
closed = 1;
nodes = (
"314 720 LINE",
"314 816 LINE",
"222 816 LINE",
"222 720 LINE"
);
}
);
width = 545;
}
);
leftKerningGroup = E;
note = Edotaccent;
rightKerningGroup = E;
unicode = 0116;
},
{
glyphname = Edotbelow;
lastChange = "2015-08-01 09:24:48 +0000";
layers = (
{
layerId = "C94C01B0-3DB6-4E3E-9BA4-195D35EE6A10";
name = Regular;
paths = (
{
closed = 1;
nodes = (
"512 0 LINE",
"512 130 LINE",
"416 130 LINE",
"416 110 LINE SMOOTH",
"416 84 OFFCURVE",
"405 73 OFFCURVE",
"378 73 CURVE SMOOTH",
"205 73 LINE",
"205 287 LINE",
"378 287 LINE",
"378 361 LINE",
"205 361 LINE",
"205 574 LINE",
"378 574 LINE SMOOTH",
"405 574 OFFCURVE",
"416 563 OFFCURVE",
"416 538 CURVE SMOOTH",
"416 518 LINE",
"512 518 LINE",
"512 647 LINE",
"33 647 LINE",
"33 573 LINE",
"62 573 LINE SMOOTH",
"89 573 OFFCURVE",
"99 562 OFFCURVE",
"99 537 CURVE SMOOTH",
"99 111 LINE SMOOTH",
"99 84 OFFCURVE",
"89 73 OFFCURVE",
"62 73 CURVE SMOOTH",
"33 73 LINE",
"33 0 LINE"
);
},
{
closed = 1;
nodes = (
"320 -158 LINE",
"320 -62 LINE",
"228 -62 LINE",
"228 -158 LINE"
);
}
);
width = 545;
}
);
leftKerningGroup = E;
note = Edotbelow;
rightKerningGroup = E;
unicode = 1EB8;
},
{
glyphname = Egrave;
lastChange = "2015-08-01 09:24:43 +0000";
layers = (
{
layerId = "C94C01B0-3DB6-4E3E-9BA4-195D35EE6A10";
name = Regular;
paths = (
{
closed = 1;
nodes = (
"512 0 LINE",
"512 130 LINE",
"416 130 LINE",
"416 110 LINE SMOOTH",
"416 84 OFFCURVE",
"405 73 OFFCURVE",
"378 73 CURVE SMOOTH",
"205 73 LINE",
"205 287 LINE",
"378 287 LINE",
"378 361 LINE",
"205 361 LINE",
"205 574 LINE",
"378 574 LINE SMOOTH",
"405 574 OFFCURVE",
"416 563 OFFCURVE",
"416 538 CURVE SMOOTH",
"416 518 LINE",
"512 518 LINE",
"512 647 LINE",
"33 647 LINE",
"33 573 LINE",
"62 573 LINE SMOOTH",
"89 573 OFFCURVE",
"99 562 OFFCURVE",
"99 537 CURVE SMOOTH",
"99 111 LINE SMOOTH",
"99 84 OFFCURVE",
"89 73 OFFCURVE",
"62 73 CURVE SMOOTH",
"33 73 LINE",
"33 0 LINE"
);
},
{
closed = 1;
nodes = (
"326 701 LINE",
"246 880 LINE",
"120 880 LINE",
"234 701 LINE"
);
}
);
width = 545;
}
);
leftKerningGroup = E;
note = Egrave;
rightKerningGroup = E;
unicode = 00C8;
},
{
glyphname = Ehookabove;
lastChange = "2015-08-01 09:24:50 +0000";
layers = (
{
layerId = "C94C01B0-3DB6-4E3E-9BA4-195D35EE6A10";
name = Regular;
paths = (
{
closed = 1;
nodes = (
"512 0 LINE",
"512 130 LINE",
"416 130 LINE",
"416 110 LINE SMOOTH",
"416 84 OFFCURVE",
"405 73 OFFCURVE",
"378 73 CURVE SMOOTH",
"205 73 LINE",
"205 287 LINE",
"378 287 LINE",
"378 361 LINE",
"205 361 LINE",
"205 574 LINE",
"378 574 LINE SMOOTH",
"405 574 OFFCURVE",
"416 563 OFFCURVE",
"416 538 CURVE SMOOTH",
"416 518 LINE",
"512 518 LINE",
"512 647 LINE",
"33 647 LINE",
"33 573 LINE",
"62 573 LINE SMOOTH",
"89 573 OFFCURVE",
"99 562 OFFCURVE",
"99 537 CURVE SMOOTH",
"99 111 LINE SMOOTH",
"99 84 OFFCURVE",
"89 73 OFFCURVE",
"62 73 CURVE SMOOTH",
"33 73 LINE",
"33 0 LINE"
);
},
{
closed = 1;
nodes = (
"309 701 LINE",
"309 741 LINE",
"352 753 OFFCURVE",
"374 779 OFFCURVE",
"374 821 CURVE SMOOTH",
"374 882 OFFCURVE",
"330 905 OFFCURVE",
"259 905 CURVE SMOOTH",
"230 905 OFFCURVE",
"203 900 OFFCURVE",
"187 894 CURVE",
"187 835 LINE",
"200 840 OFFCURVE",
"219 844 OFFCURVE",
"236 844 CURVE SMOOTH",
"272 844 OFFCURVE",
"285 835 OFFCURVE",
"285 809 CURVE SMOOTH",
"285 784 OFFCURVE",
"272 766 OFFCURVE",
"223 766 CURVE",
"223 701 LINE"
);
}
);
width = 545;
}
);
leftKerningGroup = E;
note = Ehookabove;
rightKerningGroup = E;
unicode = 1EBA;
},
{
glyphname = Emacron;
lastChange = "2015-08-01 09:24:45 +0000";
layers = (
{
layerId = "C94C01B0-3DB6-4E3E-9BA4-195D35EE6A10";
name = Regular;
paths = (
{
closed = 1;
nodes = (
"512 0 LINE",
"512 130 LINE",
"416 130 LINE",
"416 110 LINE SMOOTH",
"416 84 OFFCURVE",
"405 73 OFFCURVE",
"378 73 CURVE SMOOTH",
"205 73 LINE",
"205 287 LINE",
"378 287 LINE",
"378 361 LINE",
"205 361 LINE",
"205 574 LINE",
"378 574 LINE SMOOTH",
"405 574 OFFCURVE",
"416 563 OFFCURVE",
"416 538 CURVE SMOOTH",
"416 518 LINE",
"512 518 LINE",
"512 647 LINE",
"33 647 LINE",
"33 573 LINE",
"62 573 LINE SMOOTH",
"89 573 OFFCURVE",
"99 562 OFFCURVE",
"99 537 CURVE SMOOTH",
"99 111 LINE SMOOTH",
"99 84 OFFCURVE",
"89 73 OFFCURVE",
"62 73 CURVE SMOOTH",
"33 73 LINE",
"33 0 LINE"
);
},
{
closed = 1;
nodes = (
"417 721 LINE",
"417 790 LINE",
"128 790 LINE",
"128 721 LINE"
);
}
);
width = 545;
}
);
leftKerningGroup = E;
note = Emacron;
rightKerningGroup = E;
unicode = 0112;
},
{
glyphname = Eogonek;
lastChange = "2015-08-01 09:24:48 +0000";
layers = (
{
layerId = "C94C01B0-3DB6-4E3E-9BA4-195D35EE6A10";
name = Regular;
paths = (
{
closed = 1;
nodes = (
"512 0 LINE",
"512 130 LINE",
"416 130 LINE",
"416 110 LINE SMOOTH",
"416 84 OFFCURVE",
"405 73 OFFCURVE",
"378 73 CURVE SMOOTH",
"205 73 LINE",
"205 287 LINE",
"378 287 LINE",
"378 361 LINE",
"205 361 LINE",
"205 574 LINE",
"378 574 LINE SMOOTH",
"405 574 OFFCURVE",
"416 563 OFFCURVE",
"416 538 CURVE SMOOTH",
"416 518 LINE",
"512 518 LINE",
"512 647 LINE",
"33 647 LINE",
"33 573 LINE",
"62 573 LINE SMOOTH",
"89 573 OFFCURVE",
"99 562 OFFCURVE",
"99 537 CURVE SMOOTH",
"99 111 LINE SMOOTH",
"99 84 OFFCURVE",
"89 73 OFFCURVE",
"62 73 CURVE SMOOTH",
"33 73 LINE",
"33 0 LINE"
);
},
{
closed = 1;
nodes = (
"459 -209 OFFCURVE",
"483 -202 OFFCURVE",
"498 -191 CURVE",
"498 -129 LINE",
"484 -134 OFFCURVE",
"469 -137 OFFCURVE",
"456 -137 CURVE SMOOTH",
"431 -137 OFFCURVE",
"419 -122 OFFCURVE",
"419 -91 CURVE SMOOTH",
"419 -55 OFFCURVE",
"436 -27 OFFCURVE",
"469 0 CURVE",
"381 0 LINE",
"350 -27 OFFCURVE",
"330 -67 OFFCURVE",
"330 -111 CURVE SMOOTH",
"330 -180 OFFCURVE",
"375 -209 OFFCURVE",
"432 -209 CURVE SMOOTH"
);
}
);
width = 545;
}
);
leftKerningGroup = E;
note = Eogonek;
rightKerningGroup = E;
unicode = 0118;
},
{
glyphname = Etilde;
lastChange = "2015-08-01 09:24:44 +0000";
layers = (
{
layerId = "C94C01B0-3DB6-4E3E-9BA4-195D35EE6A10";
name = Regular;
paths = (
{
closed = 1;
nodes = (
"512 0 LINE",
"512 130 LINE",
"416 130 LINE",
"416 110 LINE SMOOTH",
"416 84 OFFCURVE",
"405 73 OFFCURVE",
"378 73 CURVE SMOOTH",
"205 73 LINE",
"205 287 LINE",
"378 287 LINE",
"378 361 LINE",
"205 361 LINE",
"205 574 LINE",
"378 574 LINE SMOOTH",
"405 574 OFFCURVE",
"416 563 OFFCURVE",
"416 538 CURVE SMOOTH",
"416 518 LINE",
"512 518 LINE",
"512 647 LINE",
"33 647 LINE",
"33 573 LINE",
"62 573 LINE SMOOTH",
"89 573 OFFCURVE",
"99 562 OFFCURVE",
"99 537 CURVE SMOOTH",
"99 111 LINE SMOOTH",
"99 84 OFFCURVE",
"89 73 OFFCURVE",
"62 73 CURVE SMOOTH",
"33 73 LINE",
"33 0 LINE"
);
},
{
closed = 1;
nodes = (
"163 701 LINE",
"163 742 OFFCURVE",
"179 754 OFFCURVE",
"208 754 CURVE SMOOTH",
"260 754 OFFCURVE",
"297 701 OFFCURVE",
"368 701 CURVE SMOOTH",
"441 701 OFFCURVE",
"475 742 OFFCURVE",
"475 838 CURVE",
"397 838 LINE",
"397 797 OFFCURVE",
"382 784 OFFCURVE",
"353 784 CURVE SMOOTH",
"304 784 OFFCURVE",
"266 838 OFFCURVE",
"194 838 CURVE SMOOTH",
"120 838 OFFCURVE",
"85 795 OFFCURVE",
"85 701 CURVE"
);
}
);
width = 545;
}
);
leftKerningGroup = E;
note = Etilde;
rightKerningGroup = E;
unicode = 1EBC;
},
{
glyphname = F;
lastChange = "2015-08-01 09:24:29 +0000";
layers = (
{
layerId = "C94C01B0-3DB6-4E3E-9BA4-195D35EE6A10";
name = Regular;
paths = (
{
closed = 1;
nodes = (
"271 0 LINE",
"271 73 LINE",
"241 73 LINE SMOOTH",
"215 73 OFFCURVE",
"205 84 OFFCURVE",
"205 110 CURVE SMOOTH",
"205 287 LINE",
"378 287 LINE",
"378 361 LINE",
"205 361 LINE",
"205 574 LINE",
"378 574 LINE SMOOTH",
"405 574 OFFCURVE",
"416 563 OFFCURVE",
"416 538 CURVE SMOOTH",
"416 518 LINE",
"512 518 LINE",
"512 647 LINE",
"33 647 LINE",
"33 573 LINE",
"62 573 LINE SMOOTH",
"89 573 OFFCURVE",
"99 562 OFFCURVE",
"99 537 CURVE SMOOTH",
"99 111 LINE SMOOTH",
"99 84 OFFCURVE",
"89 73 OFFCURVE",
"62 73 CURVE SMOOTH",
"33 73 LINE",
"33 0 LINE"
);
}
);
width = 545;
}
);
note = F;
unicode = 0046;
},
{
glyphname = G;
lastChange = "2015-08-01 09:24:44 +0000";
layers = (
{
layerId = "C94C01B0-3DB6-4E3E-9BA4-195D35EE6A10";
name = Regular;
paths = (
{
closed = 1;
nodes = (
"445 -15 OFFCURVE",
"519 3 OFFCURVE",
"585 48 CURVE",
"585 341 LINE",
"341 341 LINE",
"341 267 LINE",
"480 267 LINE",
"480 80 LINE",
"442 65 OFFCURVE",
"404 59 OFFCURVE",
"357 59 CURVE SMOOTH",
"218 59 OFFCURVE",
"137 156 OFFCURVE",
"137 320 CURVE SMOOTH",
"137 487 OFFCURVE",
"212 588 OFFCURVE",
"347 588 CURVE SMOOTH",
"394 588 OFFCURVE",
"429 581 OFFCURVE",
"458 566 CURVE",
"458 504 LINE",
"564 504 LINE",
"564 606 LINE",
"511 644 OFFCURVE",
"444 662 OFFCURVE",
"347 662 CURVE SMOOTH",
"130 662 OFFCURVE",
"33 514 OFFCURVE",
"33 320 CURVE SMOOTH",
"33 125 OFFCURVE",
"143 -15 OFFCURVE",
"353 -15 CURVE SMOOTH"
);
}
);
width = 618;
}
);
leftKerningGroup = C;
note = G;
unicode = 0047;
},
{
glyphname = Gbreve;
lastChange = "2015-08-01 09:24:51 +0000";
layers = (
{
layerId = "C94C01B0-3DB6-4E3E-9BA4-195D35EE6A10";
name = Regular;
paths = (
{
closed = 1;
nodes = (
"445 -15 OFFCURVE",
"519 3 OFFCURVE",
"585 48 CURVE",
"585 341 LINE",
"341 341 LINE",
"341 267 LINE",
"480 267 LINE",
"480 80 LINE",
"442 65 OFFCURVE",
"404 59 OFFCURVE",
"357 59 CURVE SMOOTH",
"218 59 OFFCURVE",
"137 156 OFFCURVE",
"137 320 CURVE SMOOTH",
"137 487 OFFCURVE",
"212 588 OFFCURVE",
"347 588 CURVE SMOOTH",
"394 588 OFFCURVE",
"429 581 OFFCURVE",
"458 566 CURVE",
"458 504 LINE",
"564 504 LINE",
"564 606 LINE",
"511 644 OFFCURVE",
"444 662 OFFCURVE",
"347 662 CURVE SMOOTH",
"130 662 OFFCURVE",
"33 514 OFFCURVE",
"33 320 CURVE SMOOTH",
"33 125 OFFCURVE",
"143 -15 OFFCURVE",
"353 -15 CURVE SMOOTH"
);
},
{
closed = 1;
nodes = (
"430 701 OFFCURVE",
"492 757 OFFCURVE",
"492 844 CURVE",
"405 844 LINE",
"405 796 OFFCURVE",
"380 769 OFFCURVE",
"333 769 CURVE SMOOTH",
"288 769 OFFCURVE",
"261 796 OFFCURVE",
"261 844 CURVE",
"174 844 LINE",
"174 757 OFFCURVE",
"236 701 OFFCURVE",
"333 701 CURVE SMOOTH"
);
}
);
width = 618;
}
);
leftKerningGroup = C;
note = Gbreve;
unicode = 011E;
},
{
glyphname = Gcaron;
lastChange = "2015-08-01 09:24:48 +0000";
layers = (
{
layerId = "C94C01B0-3DB6-4E3E-9BA4-195D35EE6A10";
name = Regular;
paths = (
{
closed = 1;
nodes = (
"445 -15 OFFCURVE",
"519 3 OFFCURVE",
"585 48 CURVE",
"585 341 LINE",
"341 341 LINE",
"341 267 LINE",
"480 267 LINE",
"480 80 LINE",
"442 65 OFFCURVE",
"404 59 OFFCURVE",
"357 59 CURVE SMOOTH",
"218 59 OFFCURVE",
"137 156 OFFCURVE",
"137 320 CURVE SMOOTH",
"137 487 OFFCURVE",
"212 588 OFFCURVE",
"347 588 CURVE SMOOTH",
"394 588 OFFCURVE",
"429 581 OFFCURVE",
"458 566 CURVE",
"458 504 LINE",
"564 504 LINE",
"564 606 LINE",
"511 644 OFFCURVE",
"444 662 OFFCURVE",
"347 662 CURVE SMOOTH",
"130 662 OFFCURVE",
"33 514 OFFCURVE",
"33 320 CURVE SMOOTH",
"33 125 OFFCURVE",
"143 -15 OFFCURVE",
"353 -15 CURVE SMOOTH"
);
},
{
closed = 1;
nodes = (
"402 701 LINE",
"527 889 LINE",
"427 889 LINE",
"350 763 LINE",
"273 889 LINE",
"174 889 LINE",
"299 701 LINE"
);
}
);
width = 618;
}
);
leftKerningGroup = C;
note = Gcaron;
unicode = 01E6;
},
{
glyphname = Gcircumflex;
lastChange = "2015-08-01 09:24:47 +0000";
layers = (
{
layerId = "C94C01B0-3DB6-4E3E-9BA4-195D35EE6A10";
name = Regular;
paths = (
{
closed = 1;
nodes = (
"445 -15 OFFCURVE",
"519 3 OFFCURVE",
"585 48 CURVE",
"585 341 LINE",
"341 341 LINE",
"341 267 LINE",
"480 267 LINE",
"480 80 LINE",
"442 65 OFFCURVE",
"404 59 OFFCURVE",
"357 59 CURVE SMOOTH",
"218 59 OFFCURVE",
"137 156 OFFCURVE",
"137 320 CURVE SMOOTH",
"137 487 OFFCURVE",
"212 588 OFFCURVE",
"347 588 CURVE SMOOTH",
"394 588 OFFCURVE",
"429 581 OFFCURVE",
"458 566 CURVE",
"458 504 LINE",
"564 504 LINE",
"564 606 LINE",
"511 644 OFFCURVE",
"444 662 OFFCURVE",
"347 662 CURVE SMOOTH",
"130 662 OFFCURVE",
"33 514 OFFCURVE",
"33 320 CURVE SMOOTH",
"33 125 OFFCURVE",
"143 -15 OFFCURVE",
"353 -15 CURVE SMOOTH"
);
},
{
closed = 1;
nodes = (
"253 701 LINE",
"330 827 LINE",
"407 701 LINE",
"507 701 LINE",
"382 889 LINE",
"279 889 LINE",
"154 701 LINE"
);
}
);
width = 618;
}
);
leftKerningGroup = C;
note = Gcircumflex;
unicode = 011C;
},
{
glyphname = Gcommaaccent;
lastChange = "2015-08-01 09:24:45 +0000";
layers = (
{
layerId = "C94C01B0-3DB6-4E3E-9BA4-195D35EE6A10";
name = Regular;
paths = (
{
closed = 1;
nodes = (
"445 -15 OFFCURVE",
"519 3 OFFCURVE",
"585 48 CURVE",
"585 341 LINE",
"341 341 LINE",
"341 267 LINE",
"480 267 LINE",
"480 80 LINE",
"442 65 OFFCURVE",
"404 59 OFFCURVE",
"357 59 CURVE SMOOTH",
"218 59 OFFCURVE",
"137 156 OFFCURVE",
"137 320 CURVE SMOOTH",
"137 487 OFFCURVE",
"212 588 OFFCURVE",
"347 588 CURVE SMOOTH",
"394 588 OFFCURVE",
"429 581 OFFCURVE",
"458 566 CURVE",
"458 504 LINE",
"564 504 LINE",
"564 606 LINE",
"511 644 OFFCURVE",
"444 662 OFFCURVE",
"347 662 CURVE SMOOTH",
"130 662 OFFCURVE",
"33 514 OFFCURVE",
"33 320 CURVE SMOOTH",
"33 125 OFFCURVE",
"143 -15 OFFCURVE",
"353 -15 CURVE SMOOTH"
);
},
{
closed = 1;
nodes = (
"369 -253 LINE",
"431 -49 LINE",
"315 -49 LINE",
"284 -253 LINE"
);
}
);
width = 618;
}
);
leftKerningGroup = C;
note = Gcommaaccent;
unicode = 0122;
},
{
glyphname = Gdotaccent;
lastChange = "2015-08-01 09:24:49 +0000";
layers = (
{
layerId = "C94C01B0-3DB6-4E3E-9BA4-195D35EE6A10";
name = Regular;
paths = (
{
closed = 1;
nodes = (
"445 -15 OFFCURVE",
"519 3 OFFCURVE",
"585 48 CURVE",
"585 341 LINE",
"341 341 LINE",
"341 267 LINE",
"480 267 LINE",
"480 80 LINE",
"442 65 OFFCURVE",
"404 59 OFFCURVE",
"357 59 CURVE SMOOTH",
"218 59 OFFCURVE",
"137 156 OFFCURVE",
"137 320 CURVE SMOOTH",
"137 487 OFFCURVE",
"212 588 OFFCURVE",
"347 588 CURVE SMOOTH",
"394 588 OFFCURVE",
"429 581 OFFCURVE",
"458 566 CURVE",
"458 504 LINE",
"564 504 LINE",
"564 606 LINE",
"511 644 OFFCURVE",
"444 662 OFFCURVE",
"347 662 CURVE SMOOTH",
"130 662 OFFCURVE",
"33 514 OFFCURVE",
"33 320 CURVE SMOOTH",
"33 125 OFFCURVE",
"143 -15 OFFCURVE",
"353 -15 CURVE SMOOTH"
);
},
{
closed = 1;
nodes = (
"391 708 LINE",
"391 804 LINE",
"299 804 LINE",
"299 708 LINE"
);
}
);
width = 618;
}
);
leftKerningGroup = C;
note = Gdotaccent;
unicode = 0120;
},
{
glyphname = Gmacron;
lastChange = "2015-08-01 09:24:48 +0000";
layers = (
{
layerId = "C94C01B0-3DB6-4E3E-9BA4-195D35EE6A10";
name = Regular;
paths = (
{
closed = 1;
nodes = (
"445 -15 OFFCURVE",
"519 3 OFFCURVE",
"585 48 CURVE",
"585 341 LINE",
"341 341 LINE",
"341 267 LINE",
"480 267 LINE",
"480 80 LINE",
"442 65 OFFCURVE",
"404 59 OFFCURVE",
"357 59 CURVE SMOOTH",
"218 59 OFFCURVE",
"137 156 OFFCURVE",
"137 320 CURVE SMOOTH",
"137 487 OFFCURVE",
"212 588 OFFCURVE",
"347 588 CURVE SMOOTH",
"394 588 OFFCURVE",
"429 581 OFFCURVE",
"458 566 CURVE",
"458 504 LINE",
"564 504 LINE",
"564 606 LINE",
"511 644 OFFCURVE",
"444 662 OFFCURVE",
"347 662 CURVE SMOOTH",
"130 662 OFFCURVE",
"33 514 OFFCURVE",
"33 320 CURVE SMOOTH",
"33 125 OFFCURVE",
"143 -15 OFFCURVE",
"353 -15 CURVE SMOOTH"
);
},
{
closed = 1;
nodes = (
"480 721 LINE",
"480 790 LINE",
"191 790 LINE",
"191 721 LINE"
);
}
);
width = 618;
}
);
leftKerningGroup = C;
note = Gmacron;
unicode = 1E20;
},
{
glyphname = H;
lastChange = "2015-08-01 09:24:30 +0000";
layers = (
{
layerId = "C94C01B0-3DB6-4E3E-9BA4-195D35EE6A10";
name = Regular;
paths = (
{
closed = 1;
nodes = (
"266 0 LINE",
"266 73 LINE",
"241 73 LINE SMOOTH",
"215 73 OFFCURVE",
"205 84 OFFCURVE",
"205 111 CURVE SMOOTH",
"205 288 LINE",
"477 288 LINE",
"477 111 LINE SMOOTH",
"477 84 OFFCURVE",
"467 73 OFFCURVE",
"441 73 CURVE SMOOTH",
"415 73 LINE",
"415 0 LINE",
"649 0 LINE",
"649 73 LINE",
"620 73 LINE SMOOTH",
"593 73 OFFCURVE",
"583 84 OFFCURVE",
"583 111 CURVE SMOOTH",
"583 537 LINE SMOOTH",
"583 562 OFFCURVE",
"593 573 OFFCURVE",
"620 573 CURVE SMOOTH",
"649 573 LINE",
"649 647 LINE",
"415 647 LINE",
"415 573 LINE",
"441 573 LINE SMOOTH",
"467 573 OFFCURVE",
"477 563 OFFCURVE",
"477 536 CURVE SMOOTH",
"477 361 LINE",
"205 361 LINE",
"205 537 LINE SMOOTH",
"205 562 OFFCURVE",
"215 573 OFFCURVE",
"241 573 CURVE SMOOTH",
"266 573 LINE",
"266 647 LINE",
"33 647 LINE",
"33 573 LINE",
"62 573 LINE SMOOTH",
"89 573 OFFCURVE",
"99 562 OFFCURVE",
"99 537 CURVE SMOOTH",
"99 111 LINE SMOOTH",
"99 84 OFFCURVE",
"89 73 OFFCURVE",
"62 73 CURVE SMOOTH",
"33 73 LINE",
"33 0 LINE"
);
}
);
width = 682;
}
);
note = H;
unicode = 0048;
},
{
glyphname = Hbar;
lastChange = "2015-08-01 09:24:49 +0000";
layers = (
{
layerId = "C94C01B0-3DB6-4E3E-9BA4-195D35EE6A10";
name = Regular;
paths = (
{
closed = 1;
nodes = (
"271 0 LINE",
"271 73 LINE",
"246 73 LINE SMOOTH",
"220 73 OFFCURVE",
"210 84 OFFCURVE",
"210 111 CURVE SMOOTH",
"210 288 LINE",
"482 288 LINE",
"482 111 LINE SMOOTH",
"482 84 OFFCURVE",
"472 73 OFFCURVE",
"446 73 CURVE SMOOTH",
"420 73 LINE",
"420 0 LINE",
"654 0 LINE",
"654 73 LINE",
"625 73 LINE SMOOTH",
"598 73 OFFCURVE",
"588 84 OFFCURVE",
"588 111 CURVE SMOOTH",
"588 537 LINE SMOOTH",
"588 562 OFFCURVE",
"598 573 OFFCURVE",
"625 573 CURVE SMOOTH",
"654 573 LINE",
"654 647 LINE",
"420 647 LINE",
"420 573 LINE",
"446 573 LINE SMOOTH",
"472 573 OFFCURVE",
"482 563 OFFCURVE",
"482 536 CURVE SMOOTH",
"482 361 LINE",
"210 361 LINE",
"210 537 LINE SMOOTH",
"210 562 OFFCURVE",
"220 573 OFFCURVE",
"246 573 CURVE SMOOTH",
"271 573 LINE",
"271 647 LINE",
"38 647 LINE",
"38 573 LINE",
"67 573 LINE SMOOTH",
"94 573 OFFCURVE",
"104 562 OFFCURVE",
"104 537 CURVE SMOOTH",
"104 111 LINE SMOOTH",
"104 84 OFFCURVE",
"94 73 OFFCURVE",
"67 73 CURVE SMOOTH",
"38 73 LINE",
"38 0 LINE"
);
},
{
closed = 1;
nodes = (
"648 420 LINE",
"648 493 LINE",
"33 493 LINE",
"33 420 LINE"
);
}
);
width = 687;
}
);
note = Hbar;
unicode = 0126;
},
{
glyphname = Hbrevebelow;
lastChange = "2015-08-01 09:24:48 +0000";
layers = (
{
layerId = "C94C01B0-3DB6-4E3E-9BA4-195D35EE6A10";
name = Regular;
paths = (
{
closed = 1;
nodes = (
"266 0 LINE",
"266 73 LINE",
"241 73 LINE SMOOTH",
"215 73 OFFCURVE",
"205 84 OFFCURVE",
"205 111 CURVE SMOOTH",
"205 288 LINE",
"477 288 LINE",
"477 111 LINE SMOOTH",
"477 84 OFFCURVE",
"467 73 OFFCURVE",
"441 73 CURVE SMOOTH",
"415 73 LINE",
"415 0 LINE",
"649 0 LINE",
"649 73 LINE",
"620 73 LINE SMOOTH",
"593 73 OFFCURVE",
"583 84 OFFCURVE",
"583 111 CURVE SMOOTH",
"583 537 LINE SMOOTH",
"583 562 OFFCURVE",
"593 573 OFFCURVE",
"620 573 CURVE SMOOTH",
"649 573 LINE",
"649 647 LINE",
"415 647 LINE",
"415 573 LINE",
"441 573 LINE SMOOTH",
"467 573 OFFCURVE",
"477 563 OFFCURVE",
"477 536 CURVE SMOOTH",
"477 361 LINE",
"205 361 LINE",
"205 537 LINE SMOOTH",
"205 562 OFFCURVE",
"215 573 OFFCURVE",
"241 573 CURVE SMOOTH",
"266 573 LINE",
"266 647 LINE",
"33 647 LINE",
"33 573 LINE",
"62 573 LINE SMOOTH",
"89 573 OFFCURVE",
"99 562 OFFCURVE",
"99 537 CURVE SMOOTH",
"99 111 LINE SMOOTH",
"99 84 OFFCURVE",
"89 73 OFFCURVE",
"62 73 CURVE SMOOTH",
"33 73 LINE",
"33 0 LINE"
);
},
{
closed = 1;
nodes = (
"438 -192 OFFCURVE",
"500 -135 OFFCURVE",
"500 -48 CURVE",
"413 -48 LINE",
"413 -96 OFFCURVE",
"388 -123 OFFCURVE",
"341 -123 CURVE SMOOTH",
"296 -123 OFFCURVE",
"269 -96 OFFCURVE",
"269 -48 CURVE",
"182 -48 LINE",
"182 -135 OFFCURVE",
"244 -192 OFFCURVE",
"341 -192 CURVE SMOOTH"
);
}
);
width = 682;
}
);
note = Hbrevebelow;
unicode = 1E2A;
},
{
glyphname = Hcircumflex;
lastChange = "2015-08-01 09:24:49 +0000";
layers = (
{
layerId = "C94C01B0-3DB6-4E3E-9BA4-195D35EE6A10";
name = Regular;
paths = (
{
closed = 1;
nodes = (
"266 0 LINE",
"266 73 LINE",
"241 73 LINE SMOOTH",
"215 73 OFFCURVE",
"205 84 OFFCURVE",
"205 111 CURVE SMOOTH",
"205 288 LINE",
"477 288 LINE",
"477 111 LINE SMOOTH",
"477 84 OFFCURVE",
"467 73 OFFCURVE",
"441 73 CURVE SMOOTH",
"415 73 LINE",
"415 0 LINE",
"649 0 LINE",
"649 73 LINE",
"620 73 LINE SMOOTH",
"593 73 OFFCURVE",
"583 84 OFFCURVE",
"583 111 CURVE SMOOTH",
"583 537 LINE SMOOTH",
"583 562 OFFCURVE",
"593 573 OFFCURVE",
"620 573 CURVE SMOOTH",
"649 573 LINE",
"649 647 LINE",
"415 647 LINE",
"415 573 LINE",
"441 573 LINE SMOOTH",
"467 573 OFFCURVE",
"477 563 OFFCURVE",
"477 536 CURVE SMOOTH",
"477 361 LINE",
"205 361 LINE",
"205 537 LINE SMOOTH",
"205 562 OFFCURVE",
"215 573 OFFCURVE",
"241 573 CURVE SMOOTH",
"266 573 LINE",
"266 647 LINE",
"33 647 LINE",
"33 573 LINE",
"62 573 LINE SMOOTH",
"89 573 OFFCURVE",
"99 562 OFFCURVE",
"99 537 CURVE SMOOTH",
"99 111 LINE SMOOTH",
"99 84 OFFCURVE",
"89 73 OFFCURVE",
"62 73 CURVE SMOOTH",
"33 73 LINE",
"33 0 LINE"
);
},
{
closed = 1;
nodes = (
"264 701 LINE",
"341 827 LINE",
"418 701 LINE",
"518 701 LINE",
"393 889 LINE",
"290 889 LINE",
"165 701 LINE"
);
}
);
width = 682;
}
);
note = Hcircumflex;
unicode = 0124;
},
{
glyphname = Hdotbelow;
lastChange = "2015-08-01 09:24:47 +0000";
layers = (
{
layerId = "C94C01B0-3DB6-4E3E-9BA4-195D35EE6A10";
name = Regular;
paths = (
{
closed = 1;
nodes = (
"266 0 LINE",
"266 73 LINE",
"241 73 LINE SMOOTH",
"215 73 OFFCURVE",
"205 84 OFFCURVE",
"205 111 CURVE SMOOTH",
"205 288 LINE",
"477 288 LINE",
"477 111 LINE SMOOTH",
"477 84 OFFCURVE",
"467 73 OFFCURVE",
"441 73 CURVE SMOOTH",
"415 73 LINE",
"415 0 LINE",
"649 0 LINE",
"649 73 LINE",
"620 73 LINE SMOOTH",
"593 73 OFFCURVE",
"583 84 OFFCURVE",
"583 111 CURVE SMOOTH",
"583 537 LINE SMOOTH",
"583 562 OFFCURVE",
"593 573 OFFCURVE",
"620 573 CURVE SMOOTH",
"649 573 LINE",
"649 647 LINE",
"415 647 LINE",
"415 573 LINE",
"441 573 LINE SMOOTH",
"467 573 OFFCURVE",
"477 563 OFFCURVE",
"477 536 CURVE SMOOTH",
"477 361 LINE",
"205 361 LINE",
"205 537 LINE SMOOTH",
"205 562 OFFCURVE",
"215 573 OFFCURVE",
"241 573 CURVE SMOOTH",
"266 573 LINE",
"266 647 LINE",
"33 647 LINE",
"33 573 LINE",
"62 573 LINE SMOOTH",
"89 573 OFFCURVE",
"99 562 OFFCURVE",
"99 537 CURVE SMOOTH",
"99 111 LINE SMOOTH",
"99 84 OFFCURVE",
"89 73 OFFCURVE",
"62 73 CURVE SMOOTH",
"33 73 LINE",
"33 0 LINE"
);
},
{
closed = 1;
nodes = (
"375 -158 LINE",
"375 -62 LINE",
"283 -62 LINE",
"283 -158 LINE"
);
}
);
width = 682;
}
);
note = Hdotbelow;
unicode = 1E24;
},
{
glyphname = I;
lastChange = "2015-08-01 09:24:30 +0000";
layers = (
{
layerId = "C94C01B0-3DB6-4E3E-9BA4-195D35EE6A10";
name = Regular;
paths = (
{
closed = 1;
nodes = (
"270 0 LINE",
"270 73 LINE",
"241 73 LINE SMOOTH",
"215 73 OFFCURVE",
"205 84 OFFCURVE",
"205 110 CURVE SMOOTH",
"205 537 LINE SMOOTH",
"205 562 OFFCURVE",
"215 573 OFFCURVE",
"241 573 CURVE SMOOTH",
"270 573 LINE",
"270 647 LINE",
"33 647 LINE",
"33 573 LINE",
"62 573 LINE SMOOTH",
"89 573 OFFCURVE",
"99 562 OFFCURVE",
"99 537 CURVE SMOOTH",
"99 111 LINE SMOOTH",
"99 84 OFFCURVE",
"89 73 OFFCURVE",
"62 73 CURVE SMOOTH",
"33 73 LINE",
"33 0 LINE"
);
}
);
width = 303;
}
);
note = I;
unicode = 0049;
},
{
glyphname = IJ;
lastChange = "2015-08-01 09:24:51 +0000";
layers = (
{
layerId = "C94C01B0-3DB6-4E3E-9BA4-195D35EE6A10";
name = Regular;
paths = (
{
closed = 1;
nodes = (
"607 -15 OFFCURVE",
"675 59 OFFCURVE",
"675 181 CURVE SMOOTH",
"675 537 LINE SMOOTH",
"675 562 OFFCURVE",
"686 573 OFFCURVE",
"712 573 CURVE SMOOTH",
"741 573 LINE",
"741 647 LINE",
"503 647 LINE",
"503 573 LINE",
"533 573 LINE SMOOTH",
"559 573 OFFCURVE",
"570 562 OFFCURVE",
"570 537 CURVE SMOOTH",
"570 166 LINE SMOOTH",
"570 95 OFFCURVE",
"540 59 OFFCURVE",
"470 59 CURVE SMOOTH",
"433 59 OFFCURVE",
"399 70 OFFCURVE",
"377 93 CURVE",
"377 141 LINE",
"281 141 LINE",
"281 61 LINE",
"324 13 OFFCURVE",
"389 -15 OFFCURVE",
"477 -15 CURVE SMOOTH"
);
},
{
closed = 1;
nodes = (
"270 0 LINE",
"270 73 LINE",
"241 73 LINE SMOOTH",
"215 73 OFFCURVE",
"205 84 OFFCURVE",
"205 110 CURVE SMOOTH",
"205 537 LINE SMOOTH",
"205 562 OFFCURVE",
"215 573 OFFCURVE",
"241 573 CURVE SMOOTH",
"270 573 LINE",
"270 647 LINE",
"33 647 LINE",
"33 573 LINE",
"62 573 LINE SMOOTH",
"89 573 OFFCURVE",
"99 562 OFFCURVE",
"99 537 CURVE SMOOTH",
"99 111 LINE SMOOTH",
"99 84 OFFCURVE",
"89 73 OFFCURVE",
"62 73 CURVE SMOOTH",
"33 73 LINE",
"33 0 LINE"
);
}
);
width = 764;
}
);
note = IJ;
rightKerningGroup = J;
unicode = 0132;
},
{
glyphname = Iacute;
lastChange = "2015-08-01 09:24:49 +0000";
layers = (
{
layerId = "C94C01B0-3DB6-4E3E-9BA4-195D35EE6A10";
name = Regular;
paths = (
{
closed = 1;
nodes = (
"270 0 LINE",
"270 73 LINE",
"241 73 LINE SMOOTH",
"215 73 OFFCURVE",
"205 84 OFFCURVE",
"205 110 CURVE SMOOTH",
"205 537 LINE SMOOTH",
"205 562 OFFCURVE",
"215 573 OFFCURVE",
"241 573 CURVE SMOOTH",
"270 573 LINE",
"270 647 LINE",
"33 647 LINE",
"33 573 LINE",
"62 573 LINE SMOOTH",
"89 573 OFFCURVE",
"99 562 OFFCURVE",
"99 537 CURVE SMOOTH",
"99 111 LINE SMOOTH",
"99 84 OFFCURVE",
"89 73 OFFCURVE",
"62 73 CURVE SMOOTH",
"33 73 LINE",
"33 0 LINE"
);
},
{
closed = 1;
nodes = (
"196 701 LINE",
"310 880 LINE",
"185 880 LINE",
"105 701 LINE"
);
}
);
width = 303;
}
);
note = Iacute;
unicode = 00CD;
},
{
glyphname = Ibreve;
lastChange = "2015-08-01 09:24:48 +0000";
layers = (
{
layerId = "C94C01B0-3DB6-4E3E-9BA4-195D35EE6A10";
name = Regular;
paths = (
{
closed = 1;
nodes = (
"270 0 LINE",
"270 73 LINE",
"241 73 LINE SMOOTH",
"215 73 OFFCURVE",
"205 84 OFFCURVE",
"205 110 CURVE SMOOTH",
"205 537 LINE SMOOTH",
"205 562 OFFCURVE",
"215 573 OFFCURVE",
"241 573 CURVE SMOOTH",
"270 573 LINE",
"270 647 LINE",
"33 647 LINE",
"33 573 LINE",
"62 573 LINE SMOOTH",
"89 573 OFFCURVE",
"99 562 OFFCURVE",
"99 537 CURVE SMOOTH",
"99 111 LINE SMOOTH",
"99 84 OFFCURVE",
"89 73 OFFCURVE",
"62 73 CURVE SMOOTH",
"33 73 LINE",
"33 0 LINE"
);
},
{
closed = 1;
nodes = (
"248 701 OFFCURVE",
"310 757 OFFCURVE",
"310 844 CURVE",
"223 844 LINE",
"223 796 OFFCURVE",
"198 769 OFFCURVE",
"151 769 CURVE SMOOTH",
"106 769 OFFCURVE",
"79 796 OFFCURVE",
"79 844 CURVE",
"-8 844 LINE",
"-8 757 OFFCURVE",
"54 701 OFFCURVE",
"151 701 CURVE SMOOTH"
);
}
);
width = 303;
}
);
note = Ibreve;
unicode = 012C;
},
{
glyphname = Icaron;
lastChange = "2015-08-01 09:24:51 +0000";
layers = (
{
layerId = "C94C01B0-3DB6-4E3E-9BA4-195D35EE6A10";
name = Regular;
paths = (
{
closed = 1;
nodes = (
"270 0 LINE",
"270 73 LINE",
"241 73 LINE SMOOTH",
"215 73 OFFCURVE",
"205 84 OFFCURVE",
"205 110 CURVE SMOOTH",
"205 537 LINE SMOOTH",
"205 562 OFFCURVE",
"215 573 OFFCURVE",
"241 573 CURVE SMOOTH",
"270 573 LINE",
"270 647 LINE",
"33 647 LINE",
"33 573 LINE",
"62 573 LINE SMOOTH",
"89 573 OFFCURVE",
"99 562 OFFCURVE",
"99 537 CURVE SMOOTH",
"99 111 LINE SMOOTH",
"99 84 OFFCURVE",
"89 73 OFFCURVE",
"62 73 CURVE SMOOTH",
"33 73 LINE",
"33 0 LINE"
);
},
{
closed = 1;
nodes = (
"203 701 LINE",
"328 889 LINE",
"228 889 LINE",
"151 763 LINE",
"74 889 LINE",
"-25 889 LINE",
"100 701 LINE"
);
}
);
width = 303;
}
);
note = Icaron;
unicode = 01CF;
},
{
glyphname = Icircumflex;
lastChange = "2015-08-01 09:24:51 +0000";
layers = (
{
layerId = "C94C01B0-3DB6-4E3E-9BA4-195D35EE6A10";
name = Regular;
paths = (
{
closed = 1;
nodes = (
"270 0 LINE",
"270 73 LINE",
"241 73 LINE SMOOTH",
"215 73 OFFCURVE",
"205 84 OFFCURVE",
"205 110 CURVE SMOOTH",
"205 537 LINE SMOOTH",
"205 562 OFFCURVE",
"215 573 OFFCURVE",
"241 573 CURVE SMOOTH",
"270 573 LINE",
"270 647 LINE",
"33 647 LINE",
"33 573 LINE",
"62 573 LINE SMOOTH",
"89 573 OFFCURVE",
"99 562 OFFCURVE",
"99 537 CURVE SMOOTH",
"99 111 LINE SMOOTH",
"99 84 OFFCURVE",
"89 73 OFFCURVE",
"62 73 CURVE SMOOTH",
"33 73 LINE",
"33 0 LINE"
);
},
{
closed = 1;
nodes = (
"74 701 LINE",
"151 827 LINE",
"228 701 LINE",
"328 701 LINE",
"203 889 LINE",
"100 889 LINE",
"-25 701 LINE"
);
}
);
width = 303;
}
);
note = Icircumflex;
unicode = 00CE;
},
{
glyphname = Idieresis;
lastChange = "2015-08-01 09:24:47 +0000";
layers = (
{
layerId = "C94C01B0-3DB6-4E3E-9BA4-195D35EE6A10";
name = Regular;
paths = (
{
closed = 1;
nodes = (
"270 0 LINE",
"270 73 LINE",
"241 73 LINE SMOOTH",
"215 73 OFFCURVE",
"205 84 OFFCURVE",
"205 110 CURVE SMOOTH",
"205 537 LINE SMOOTH",
"205 562 OFFCURVE",
"215 573 OFFCURVE",
"241 573 CURVE SMOOTH",
"270 573 LINE",
"270 647 LINE",
"33 647 LINE",
"33 573 LINE",
"62 573 LINE SMOOTH",
"89 573 OFFCURVE",
"99 562 OFFCURVE",
"99 537 CURVE SMOOTH",
"99 111 LINE SMOOTH",
"99 84 OFFCURVE",
"89 73 OFFCURVE",
"62 73 CURVE SMOOTH",
"33 73 LINE",
"33 0 LINE"
);
},
{
closed = 1;
nodes = (
"90 730 LINE",
"90 826 LINE",
"-2 826 LINE",
"-2 730 LINE"
);
},
{
closed = 1;
nodes = (
"304 730 LINE",
"304 826 LINE",
"211 826 LINE",
"211 730 LINE"
);
}
);
width = 303;
}
);
note = Idieresis;
unicode = 00CF;
},
{
glyphname = Idotaccent;
lastChange = "2015-08-01 09:24:46 +0000";
layers = (
{
layerId = "C94C01B0-3DB6-4E3E-9BA4-195D35EE6A10";
name = Regular;
paths = (
{
closed = 1;
nodes = (
"270 0 LINE",
"270 73 LINE",
"241 73 LINE SMOOTH",
"215 73 OFFCURVE",
"205 84 OFFCURVE",
"205 110 CURVE SMOOTH",
"205 537 LINE SMOOTH",
"205 562 OFFCURVE",
"215 573 OFFCURVE",
"241 573 CURVE SMOOTH",
"270 573 LINE",
"270 647 LINE",
"33 647 LINE",
"33 573 LINE",
"62 573 LINE SMOOTH",
"89 573 OFFCURVE",
"99 562 OFFCURVE",
"99 537 CURVE SMOOTH",
"99 111 LINE SMOOTH",
"99 84 OFFCURVE",
"89 73 OFFCURVE",
"62 73 CURVE SMOOTH",
"33 73 LINE",
"33 0 LINE"
);
},
{
closed = 1;
nodes = (
"197 721 LINE",
"197 817 LINE",
"105 817 LINE",
"105 721 LINE"
);
}
);
width = 303;
}
);
note = Idotaccent;
unicode = 0130;
},
{
glyphname = Idotbelow;
lastChange = "2015-08-01 09:24:43 +0000";
layers = (
{
layerId = "C94C01B0-3DB6-4E3E-9BA4-195D35EE6A10";
name = Regular;
paths = (
{
closed = 1;
nodes = (
"270 0 LINE",
"270 73 LINE",
"241 73 LINE SMOOTH",
"215 73 OFFCURVE",
"205 84 OFFCURVE",
"205 110 CURVE SMOOTH",
"205 537 LINE SMOOTH",
"205 562 OFFCURVE",
"215 573 OFFCURVE",
"241 573 CURVE SMOOTH",
"270 573 LINE",
"270 647 LINE",
"33 647 LINE",
"33 573 LINE",
"62 573 LINE SMOOTH",
"89 573 OFFCURVE",
"99 562 OFFCURVE",
"99 537 CURVE SMOOTH",
"99 111 LINE SMOOTH",
"99 84 OFFCURVE",
"89 73 OFFCURVE",
"62 73 CURVE SMOOTH",
"33 73 LINE",
"33 0 LINE"
);
},
{
closed = 1;
nodes = (
"197 -158 LINE",
"197 -62 LINE",
"105 -62 LINE",
"105 -158 LINE"
);
}
);
width = 303;
}
);
note = Idotbelow;
unicode = 1ECA;
},
{
glyphname = Igrave;
lastChange = "2015-08-01 09:24:49 +0000";
layers = (
{
layerId = "C94C01B0-3DB6-4E3E-9BA4-195D35EE6A10";
name = Regular;
paths = (
{
closed = 1;
nodes = (
"270 0 LINE",
"270 73 LINE",
"241 73 LINE SMOOTH",
"215 73 OFFCURVE",
"205 84 OFFCURVE",
"205 110 CURVE SMOOTH",
"205 537 LINE SMOOTH",
"205 562 OFFCURVE",
"215 573 OFFCURVE",
"241 573 CURVE SMOOTH",
"270 573 LINE",
"270 647 LINE",
"33 647 LINE",
"33 573 LINE",
"62 573 LINE SMOOTH",
"89 573 OFFCURVE",
"99 562 OFFCURVE",
"99 537 CURVE SMOOTH",
"99 111 LINE SMOOTH",
"99 84 OFFCURVE",
"89 73 OFFCURVE",
"62 73 CURVE SMOOTH",
"33 73 LINE",
"33 0 LINE"
);
},
{
closed = 1;
nodes = (
"205 701 LINE",
"125 880 LINE",
"-1 880 LINE",
"113 701 LINE"
);
}
);
width = 303;
}
);
note = Igrave;
unicode = 00CC;
},
{
glyphname = Ihookabove;
lastChange = "2015-08-01 09:24:48 +0000";
layers = (
{
layerId = "C94C01B0-3DB6-4E3E-9BA4-195D35EE6A10";
name = Regular;
paths = (
{
closed = 1;
nodes = (
"270 0 LINE",
"270 73 LINE",
"241 73 LINE SMOOTH",
"215 73 OFFCURVE",
"205 84 OFFCURVE",
"205 110 CURVE SMOOTH",
"205 537 LINE SMOOTH",
"205 562 OFFCURVE",
"215 573 OFFCURVE",
"241 573 CURVE SMOOTH",
"270 573 LINE",
"270 647 LINE",
"33 647 LINE",
"33 573 LINE",
"62 573 LINE SMOOTH",
"89 573 OFFCURVE",
"99 562 OFFCURVE",
"99 537 CURVE SMOOTH",
"99 111 LINE SMOOTH",
"99 84 OFFCURVE",
"89 73 OFFCURVE",
"62 73 CURVE SMOOTH",
"33 73 LINE",
"33 0 LINE"
);
},
{
closed = 1;
nodes = (
"194 701 LINE",
"194 741 LINE",
"237 753 OFFCURVE",
"259 779 OFFCURVE",
"259 821 CURVE SMOOTH",
"259 882 OFFCURVE",
"215 905 OFFCURVE",
"144 905 CURVE SMOOTH",
"115 905 OFFCURVE",
"88 900 OFFCURVE",
"72 894 CURVE",
"72 835 LINE",
"85 840 OFFCURVE",
"104 844 OFFCURVE",
"121 844 CURVE SMOOTH",
"157 844 OFFCURVE",
"170 835 OFFCURVE",
"170 809 CURVE SMOOTH",
"170 784 OFFCURVE",
"157 766 OFFCURVE",
"108 766 CURVE",
"108 701 LINE"
);
}
);
width = 303;
}
);
note = Ihookabove;
unicode = 1EC8;
},
{
glyphname = Imacron;
lastChange = "2015-08-01 09:24:49 +0000";
layers = (
{
layerId = "C94C01B0-3DB6-4E3E-9BA4-195D35EE6A10";
name = Regular;
paths = (
{
closed = 1;
nodes = (
"270 0 LINE",
"270 73 LINE",
"241 73 LINE SMOOTH",
"215 73 OFFCURVE",
"205 84 OFFCURVE",
"205 110 CURVE SMOOTH",
"205 537 LINE SMOOTH",
"205 562 OFFCURVE",
"215 573 OFFCURVE",
"241 573 CURVE SMOOTH",
"270 573 LINE",
"270 647 LINE",
"33 647 LINE",
"33 573 LINE",
"62 573 LINE SMOOTH",
"89 573 OFFCURVE",
"99 562 OFFCURVE",
"99 537 CURVE SMOOTH",
"99 111 LINE SMOOTH",
"99 84 OFFCURVE",
"89 73 OFFCURVE",
"62 73 CURVE SMOOTH",
"33 73 LINE",
"33 0 LINE"
);
},
{
closed = 1;
nodes = (
"296 721 LINE",
"296 790 LINE",
"6 790 LINE",
"6 721 LINE"
);
}
);
width = 303;
}
);
note = Imacron;
unicode = 012A;
},
{
glyphname = Iogonek;
lastChange = "2015-08-01 09:24:44 +0000";
layers = (
{
layerId = "C94C01B0-3DB6-4E3E-9BA4-195D35EE6A10";
name = Regular;
paths = (
{
closed = 1;
nodes = (
"270 0 LINE",
"270 73 LINE",
"241 73 LINE SMOOTH",
"215 73 OFFCURVE",
"205 84 OFFCURVE",
"205 110 CURVE SMOOTH",
"205 537 LINE SMOOTH",
"205 562 OFFCURVE",
"215 573 OFFCURVE",
"241 573 CURVE SMOOTH",
"270 573 LINE",
"270 647 LINE",
"33 647 LINE",
"33 573 LINE",
"62 573 LINE SMOOTH",
"89 573 OFFCURVE",
"99 562 OFFCURVE",
"99 537 CURVE SMOOTH",
"99 111 LINE SMOOTH",
"99 84 OFFCURVE",
"89 73 OFFCURVE",
"62 73 CURVE SMOOTH",
"33 73 LINE",
"33 0 LINE"
);
},
{
closed = 1;
nodes = (
"191 -209 OFFCURVE",
"215 -202 OFFCURVE",
"230 -191 CURVE",
"230 -129 LINE",
"216 -134 OFFCURVE",
"201 -137 OFFCURVE",
"188 -137 CURVE SMOOTH",
"163 -137 OFFCURVE",
"151 -122 OFFCURVE",
"151 -91 CURVE SMOOTH",
"151 -55 OFFCURVE",
"168 -27 OFFCURVE",
"201 0 CURVE",
"113 0 LINE",
"82 -27 OFFCURVE",
"62 -67 OFFCURVE",
"62 -111 CURVE SMOOTH",
"62 -180 OFFCURVE",
"107 -209 OFFCURVE",
"164 -209 CURVE SMOOTH"
);
}
);
width = 303;
}
);
note = Iogonek;
unicode = 012E;
},
{
glyphname = Itilde;
lastChange = "2015-08-01 09:24:50 +0000";
layers = (
{
layerId = "C94C01B0-3DB6-4E3E-9BA4-195D35EE6A10";
name = Regular;
paths = (
{
closed = 1;
nodes = (
"270 0 LINE",
"270 73 LINE",
"241 73 LINE SMOOTH",
"215 73 OFFCURVE",
"205 84 OFFCURVE",
"205 110 CURVE SMOOTH",
"205 537 LINE SMOOTH",
"205 562 OFFCURVE",
"215 573 OFFCURVE",
"241 573 CURVE SMOOTH",
"270 573 LINE",
"270 647 LINE",
"33 647 LINE",
"33 573 LINE",
"62 573 LINE SMOOTH",
"89 573 OFFCURVE",
"99 562 OFFCURVE",
"99 537 CURVE SMOOTH",
"99 111 LINE SMOOTH",
"99 84 OFFCURVE",
"89 73 OFFCURVE",
"62 73 CURVE SMOOTH",
"33 73 LINE",
"33 0 LINE"
);
},
{
closed = 1;
nodes = (
"34 701 LINE",
"34 742 OFFCURVE",
"50 754 OFFCURVE",
"79 754 CURVE SMOOTH",
"131 754 OFFCURVE",
"168 701 OFFCURVE",
"239 701 CURVE SMOOTH",
"312 701 OFFCURVE",
"346 742 OFFCURVE",
"346 838 CURVE",
"268 838 LINE",
"268 797 OFFCURVE",
"253 784 OFFCURVE",
"224 784 CURVE SMOOTH",
"175 784 OFFCURVE",
"137 838 OFFCURVE",
"65 838 CURVE SMOOTH",
"-9 838 OFFCURVE",
"-44 795 OFFCURVE",
"-44 701 CURVE"
);
}
);
width = 303;
}
);
note = Itilde;
unicode = 0128;
},
{
glyphname = J;
lastChange = "2015-08-01 09:24:45 +0000";
layers = (
{
layerId = "C94C01B0-3DB6-4E3E-9BA4-195D35EE6A10";
name = Regular;
paths = (
{
closed = 1;
nodes = (
"329 -15 OFFCURVE",
"397 59 OFFCURVE",
"397 181 CURVE SMOOTH",
"397 537 LINE SMOOTH",
"397 562 OFFCURVE",
"408 573 OFFCURVE",
"434 573 CURVE SMOOTH",
"463 573 LINE",
"463 647 LINE",
"225 647 LINE",
"225 573 LINE",
"255 573 LINE SMOOTH",
"281 573 OFFCURVE",
"292 562 OFFCURVE",
"292 537 CURVE SMOOTH",
"292 166 LINE SMOOTH",
"292 95 OFFCURVE",
"262 59 OFFCURVE",
"192 59 CURVE SMOOTH",
"155 59 OFFCURVE",
"121 70 OFFCURVE",
"99 93 CURVE",
"99 141 LINE",
"3 141 LINE",
"3 61 LINE",
"46 13 OFFCURVE",
"111 -15 OFFCURVE",
"199 -15 CURVE SMOOTH"
);
}
);
width = 496;
}
);
leftKerningGroup = J;
note = J;
rightKerningGroup = J;
unicode = 004A;
},
{
glyphname = Jcircumflex;
lastChange = "2015-08-01 09:24:51 +0000";
layers = (
{
layerId = "C94C01B0-3DB6-4E3E-9BA4-195D35EE6A10";
name = Regular;
paths = (
{
closed = 1;
nodes = (
"329 -15 OFFCURVE",
"397 59 OFFCURVE",
"397 181 CURVE SMOOTH",
"397 537 LINE SMOOTH",
"397 562 OFFCURVE",
"408 573 OFFCURVE",
"434 573 CURVE SMOOTH",
"463 573 LINE",
"463 647 LINE",
"225 647 LINE",
"225 573 LINE",
"255 573 LINE SMOOTH",
"281 573 OFFCURVE",
"292 562 OFFCURVE",
"292 537 CURVE SMOOTH",
"292 166 LINE SMOOTH",
"292 95 OFFCURVE",
"262 59 OFFCURVE",
"192 59 CURVE SMOOTH",
"155 59 OFFCURVE",
"121 70 OFFCURVE",
"99 93 CURVE",
"99 141 LINE",
"3 141 LINE",
"3 61 LINE",
"46 13 OFFCURVE",
"111 -15 OFFCURVE",
"199 -15 CURVE SMOOTH"
);
},
{
closed = 1;
nodes = (
"252 701 LINE",
"329 827 LINE",
"406 701 LINE",
"506 701 LINE",
"381 889 LINE",
"278 889 LINE",
"153 701 LINE"
);
}
);
width = 509;
}
);
leftKerningGroup = J;
note = Jcircumflex;
rightKerningGroup = J;
unicode = 0134;
},
{
glyphname = K;
lastChange = "2015-08-01 09:24:45 +0000";
layers = (
{
layerId = "C94C01B0-3DB6-4E3E-9BA4-195D35EE6A10";
name = Regular;
paths = (
{
closed = 1;
nodes = (
"262 0 LINE",
"262 74 LINE",
"240 74 LINE SMOOTH",
"212 74 OFFCURVE",
"205 87 OFFCURVE",
"205 110 CURVE SMOOTH",
"205 217 LINE",
"288 306 LINE",
"441 74 LINE",
"385 74 LINE",
"385 0 LINE",
"615 0 LINE",
"615 74 LINE",
"582 74 LINE SMOOTH",
"557 74 OFFCURVE",
"542 83 OFFCURVE",
"528 104 CURVE SMOOTH",
"351 372 LINE",
"513 543 LINE SMOOTH",
"530 561 OFFCURVE",
"540 570 OFFCURVE",
"568 570 CURVE SMOOTH",
"605 570 LINE",
"605 647 LINE",
"385 647 LINE",
"385 574 LINE",
"436 574 LINE",
"205 326 LINE",
"205 538 LINE SMOOTH",
"205 562 OFFCURVE",
"214 574 OFFCURVE",
"238 574 CURVE SMOOTH",
"256 574 LINE",
"256 647 LINE",
"39 647 LINE",
"39 574 LINE",
"62 574 LINE SMOOTH",
"89 574 OFFCURVE",
"99 563 OFFCURVE",
"99 538 CURVE SMOOTH",
"99 110 LINE SMOOTH",
"99 85 OFFCURVE",
"89 74 OFFCURVE",
"62 74 CURVE SMOOTH",
"33 74 LINE",
"33 0 LINE"
);
}
);
width = 648;
}
);
leftKerningGroup = K;
note = K;
rightKerningGroup = K;
unicode = 004B;
},
{
glyphname = Kcommaaccent;
lastChange = "2015-08-01 09:24:49 +0000";
layers = (
{
layerId = "C94C01B0-3DB6-4E3E-9BA4-195D35EE6A10";
name = Regular;
paths = (
{
closed = 1;
nodes = (
"262 0 LINE",
"262 74 LINE",
"240 74 LINE SMOOTH",
"212 74 OFFCURVE",
"205 87 OFFCURVE",
"205 110 CURVE SMOOTH",
"205 217 LINE",
"288 306 LINE",
"441 74 LINE",
"385 74 LINE",
"385 0 LINE",
"615 0 LINE",
"615 74 LINE",
"582 74 LINE SMOOTH",
"557 74 OFFCURVE",
"542 83 OFFCURVE",
"528 104 CURVE SMOOTH",
"351 372 LINE",
"513 543 LINE SMOOTH",
"530 561 OFFCURVE",
"540 570 OFFCURVE",
"568 570 CURVE SMOOTH",
"605 570 LINE",
"605 647 LINE",
"385 647 LINE",
"385 574 LINE",
"436 574 LINE",
"205 326 LINE",
"205 538 LINE SMOOTH",
"205 562 OFFCURVE",
"214 574 OFFCURVE",
"238 574 CURVE SMOOTH",
"256 574 LINE",
"256 647 LINE",
"39 647 LINE",
"39 574 LINE",
"62 574 LINE SMOOTH",
"89 574 OFFCURVE",
"99 563 OFFCURVE",
"99 538 CURVE SMOOTH",
"99 110 LINE SMOOTH",
"99 85 OFFCURVE",
"89 74 OFFCURVE",
"62 74 CURVE SMOOTH",
"33 74 LINE",
"33 0 LINE"
);
},
{
closed = 1;
nodes = (
"324 -253 LINE",
"386 -49 LINE",
"270 -49 LINE",
"239 -253 LINE"
);
}
);
width = 648;
}
);
leftKerningGroup = K;
note = Kcommaaccent;
rightKerningGroup = K;
unicode = 0136;
},
{
glyphname = L;
lastChange = "2015-08-01 09:24:46 +0000";
layers = (
{
layerId = "C94C01B0-3DB6-4E3E-9BA4-195D35EE6A10";
name = Regular;
paths = (
{
closed = 1;
nodes = (
"506 0 LINE",
"506 141 LINE",
"410 141 LINE",
"410 109 LINE SMOOTH",
"410 83 OFFCURVE",
"399 72 OFFCURVE",
"372 72 CURVE SMOOTH",
"199 72 LINE",
"199 538 LINE SMOOTH",
"199 563 OFFCURVE",
"209 574 OFFCURVE",
"235 574 CURVE SMOOTH",
"259 574 LINE",
"259 647 LINE",
"33 647 LINE",
"33 574 LINE",
"56 574 LINE SMOOTH",
"83 574 OFFCURVE",
"93 563 OFFCURVE",
"93 538 CURVE SMOOTH",
"93 110 LINE SMOOTH",
"93 84 OFFCURVE",
"84 72 OFFCURVE",
"54 72 CURVE SMOOTH",
"33 72 LINE",
"33 0 LINE"
);
}
);
width = 509;
}
);
note = L;
rightKerningGroup = L;
unicode = 004C;
},
{
glyphname = Lacute;
lastChange = "2015-08-01 09:24:49 +0000";
layers = (
{
layerId = "C94C01B0-3DB6-4E3E-9BA4-195D35EE6A10";
name = Regular;
paths = (
{
closed = 1;
nodes = (
"506 0 LINE",
"506 141 LINE",
"410 141 LINE",
"410 109 LINE SMOOTH",
"410 83 OFFCURVE",
"399 72 OFFCURVE",
"372 72 CURVE SMOOTH",
"199 72 LINE",
"199 538 LINE SMOOTH",
"199 563 OFFCURVE",
"209 574 OFFCURVE",
"235 574 CURVE SMOOTH",
"259 574 LINE",
"259 647 LINE",
"33 647 LINE",
"33 574 LINE",
"56 574 LINE SMOOTH",
"83 574 OFFCURVE",
"93 563 OFFCURVE",
"93 538 CURVE SMOOTH",
"93 110 LINE SMOOTH",
"93 84 OFFCURVE",
"84 72 OFFCURVE",
"54 72 CURVE SMOOTH",
"33 72 LINE",
"33 0 LINE"
);
},
{
closed = 1;
nodes = (
"164 701 LINE",
"278 880 LINE",
"153 880 LINE",
"73 701 LINE"
);
}
);
width = 509;
}
);
note = Lacute;
rightKerningGroup = L;
unicode = 0139;
},
{
glyphname = Lcaron;
lastChange = "2015-08-01 09:24:49 +0000";
layers = (
{
layerId = "C94C01B0-3DB6-4E3E-9BA4-195D35EE6A10";
name = Regular;
paths = (
{
closed = 1;
nodes = (
"506 0 LINE",
"506 141 LINE",
"410 141 LINE",
"410 109 LINE SMOOTH",
"410 83 OFFCURVE",
"399 72 OFFCURVE",
"372 72 CURVE SMOOTH",
"199 72 LINE",
"199 538 LINE SMOOTH",
"199 563 OFFCURVE",
"209 574 OFFCURVE",
"235 574 CURVE SMOOTH",
"259 574 LINE",
"259 647 LINE",
"33 647 LINE",
"33 574 LINE",
"56 574 LINE SMOOTH",
"83 574 OFFCURVE",
"93 563 OFFCURVE",
"93 538 CURVE SMOOTH",
"93 110 LINE SMOOTH",
"93 84 OFFCURVE",
"84 72 OFFCURVE",
"54 72 CURVE SMOOTH",
"33 72 LINE",
"33 0 LINE"
);
},
{
closed = 1;
nodes = (
"439 510 LINE",
"501 714 LINE",
"385 714 LINE",
"354 510 LINE"
);
}
);
width = 509;
}
);
note = Lcaron;
rightKerningGroup = L;
unicode = 013D;
},
{
glyphname = Lcommaaccent;
lastChange = "2015-08-01 09:24:46 +0000";
layers = (
{
layerId = "C94C01B0-3DB6-4E3E-9BA4-195D35EE6A10";
name = Regular;
paths = (
{
closed = 1;
nodes = (
"506 0 LINE",
"506 141 LINE",
"410 141 LINE",
"410 109 LINE SMOOTH",
"410 83 OFFCURVE",
"399 72 OFFCURVE",
"372 72 CURVE SMOOTH",
"199 72 LINE",
"199 538 LINE SMOOTH",
"199 563 OFFCURVE",
"209 574 OFFCURVE",
"235 574 CURVE SMOOTH",
"259 574 LINE",
"259 647 LINE",
"33 647 LINE",
"33 574 LINE",
"56 574 LINE SMOOTH",
"83 574 OFFCURVE",
"93 563 OFFCURVE",
"93 538 CURVE SMOOTH",
"93 110 LINE SMOOTH",
"93 84 OFFCURVE",
"84 72 OFFCURVE",
"54 72 CURVE SMOOTH",
"33 72 LINE",
"33 0 LINE"
);
},
{
closed = 1;
nodes = (
"292 -253 LINE",
"354 -49 LINE",
"238 -49 LINE",
"207 -253 LINE"
);
}
);
width = 509;
}
);
note = Lcommaaccent;
rightKerningGroup = L;
unicode = 013B;
},
{
glyphname = Ldot;
lastChange = "2015-08-01 09:24:50 +0000";
layers = (
{
layerId = "C94C01B0-3DB6-4E3E-9BA4-195D35EE6A10";
name = Regular;
paths = (
{
closed = 1;
nodes = (
"506 0 LINE",
"506 141 LINE",
"410 141 LINE",
"410 109 LINE SMOOTH",
"410 83 OFFCURVE",
"399 72 OFFCURVE",
"372 72 CURVE SMOOTH",
"199 72 LINE",
"199 538 LINE SMOOTH",
"199 563 OFFCURVE",
"209 574 OFFCURVE",
"235 574 CURVE SMOOTH",
"259 574 LINE",
"259 647 LINE",
"33 647 LINE",
"33 574 LINE",
"56 574 LINE SMOOTH",
"83 574 OFFCURVE",
"93 563 OFFCURVE",
"93 538 CURVE SMOOTH",
"93 110 LINE SMOOTH",
"93 84 OFFCURVE",
"84 72 OFFCURVE",
"54 72 CURVE SMOOTH",
"33 72 LINE",
"33 0 LINE"
);
},
{
closed = 1;
nodes = (
"398 287 LINE",
"398 383 LINE",
"305 383 LINE",
"305 287 LINE"
);
}
);
width = 509;
}
);
note = Ldot;
rightKerningGroup = L;
unicode = 013F;
},
{
glyphname = Ldotbelow;
lastChange = "2015-08-01 09:24:49 +0000";
layers = (
{
layerId = "C94C01B0-3DB6-4E3E-9BA4-195D35EE6A10";
name = Regular;
paths = (
{
closed = 1;
nodes = (
"506 0 LINE",
"506 141 LINE",
"410 141 LINE",
"410 109 LINE SMOOTH",
"410 83 OFFCURVE",
"399 72 OFFCURVE",
"372 72 CURVE SMOOTH",
"199 72 LINE",
"199 538 LINE SMOOTH",
"199 563 OFFCURVE",
"209 574 OFFCURVE",
"235 574 CURVE SMOOTH",
"259 574 LINE",
"259 647 LINE",
"33 647 LINE",
"33 574 LINE",
"56 574 LINE SMOOTH",
"83 574 OFFCURVE",
"93 563 OFFCURVE",
"93 538 CURVE SMOOTH",
"93 110 LINE SMOOTH",
"93 84 OFFCURVE",
"84 72 OFFCURVE",
"54 72 CURVE SMOOTH",
"33 72 LINE",
"33 0 LINE"
);
},
{
closed = 1;
nodes = (
"297 -158 LINE",
"297 -62 LINE",
"205 -62 LINE",
"205 -158 LINE"
);
}
);
width = 509;
}
);
note = Ldotbelow;
rightKerningGroup = L;
unicode = 1E36;
},
{
glyphname = Ldotbelowmacron;
lastChange = "2015-08-01 09:24:46 +0000";
layers = (
{
layerId = "C94C01B0-3DB6-4E3E-9BA4-195D35EE6A10";
name = Regular;
paths = (
{
closed = 1;
nodes = (
"506 0 LINE",
"506 141 LINE",
"410 141 LINE",
"410 109 LINE SMOOTH",
"410 83 OFFCURVE",
"399 72 OFFCURVE",
"372 72 CURVE SMOOTH",
"199 72 LINE",
"199 538 LINE SMOOTH",
"199 563 OFFCURVE",
"209 574 OFFCURVE",
"235 574 CURVE SMOOTH",
"259 574 LINE",
"259 647 LINE",
"33 647 LINE",
"33 574 LINE",
"56 574 LINE SMOOTH",
"83 574 OFFCURVE",
"93 563 OFFCURVE",
"93 538 CURVE SMOOTH",
"93 110 LINE SMOOTH",
"93 84 OFFCURVE",
"84 72 OFFCURVE",
"54 72 CURVE SMOOTH",
"33 72 LINE",
"33 0 LINE"
);
},
{
closed = 1;
nodes = (
"299 -158 LINE",
"299 -62 LINE",
"207 -62 LINE",
"207 -158 LINE"
);
},
{
closed = 1;
nodes = (
"297 715 LINE",
"297 784 LINE",
"8 784 LINE",
"8 715 LINE"
);
}
);
width = 509;
}
);
note = Ldotbelowmacron;
rightKerningGroup = L;
unicode = 1E38;
},
{
glyphname = Llinebelow;
lastChange = "2015-08-01 09:24:50 +0000";
layers = (
{
layerId = "C94C01B0-3DB6-4E3E-9BA4-195D35EE6A10";
name = Regular;
paths = (
{
closed = 1;
nodes = (
"506 0 LINE",
"506 141 LINE",
"410 141 LINE",
"410 109 LINE SMOOTH",
"410 83 OFFCURVE",
"399 72 OFFCURVE",
"372 72 CURVE SMOOTH",
"199 72 LINE",
"199 538 LINE SMOOTH",
"199 563 OFFCURVE",
"209 574 OFFCURVE",
"235 574 CURVE SMOOTH",
"259 574 LINE",
"259 647 LINE",
"33 647 LINE",
"33 574 LINE",
"56 574 LINE SMOOTH",
"83 574 OFFCURVE",
"93 563 OFFCURVE",
"93 538 CURVE SMOOTH",
"93 110 LINE SMOOTH",
"93 84 OFFCURVE",
"84 72 OFFCURVE",
"54 72 CURVE SMOOTH",
"33 72 LINE",
"33 0 LINE"
);
},
{
closed = 1;
nodes = (
"401 -132 LINE",
"401 -63 LINE",
"112 -63 LINE",
"112 -132 LINE"
);
}
);
width = 509;
}
);
note = Llinebelow;
rightKerningGroup = L;
unicode = 1E3A;
},
{
glyphname = Lslash;
lastChange = "2015-08-01 09:24:49 +0000";
layers = (
{
layerId = "C94C01B0-3DB6-4E3E-9BA4-195D35EE6A10";
name = Regular;
paths = (
{
closed = 1;
nodes = (
"506 0 LINE",
"506 141 LINE",
"410 141 LINE",
"410 109 LINE SMOOTH",
"410 83 OFFCURVE",
"400 72 OFFCURVE",
"372 72 CURVE SMOOTH",
"199 72 LINE",
"199 538 LINE SMOOTH",
"199 563 OFFCURVE",
"209 574 OFFCURVE",
"236 574 CURVE SMOOTH",
"259 574 LINE",
"259 647 LINE",
"33 647 LINE",
"33 574 LINE",
"57 574 LINE SMOOTH",
"83 574 OFFCURVE",
"93 563 OFFCURVE",
"93 538 CURVE SMOOTH",
"93 110 LINE SMOOTH",
"93 84 OFFCURVE",
"84 72 OFFCURVE",
"54 72 CURVE SMOOTH",
"33 72 LINE",
"33 0 LINE"
);
},
{
closed = 1;
nodes = (
"307 354 LINE",
"307 434 LINE",
"34 277 LINE",
"34 197 LINE"
);
}
);
width = 509;
}
);
note = Lslash;
rightKerningGroup = L;
unicode = 0141;
},
{
glyphname = M;
lastChange = "2015-08-01 09:24:48 +0000";
layers = (
{
layerId = "C94C01B0-3DB6-4E3E-9BA4-195D35EE6A10";
name = Regular;
paths = (
{
closed = 1;
nodes = (
"270 0 LINE",
"270 73 LINE",
"240 73 LINE SMOOTH",
"214 73 OFFCURVE",
"203 84 OFFCURVE",
"203 110 CURVE SMOOTH",
"203 472 LINE",
"347 139 LINE",
"428 139 LINE",
"571 472 LINE",
"571 110 LINE SMOOTH",
"571 84 OFFCURVE",
"561 73 OFFCURVE",
"535 73 CURVE SMOOTH",
"505 73 LINE",
"505 0 LINE",
"742 0 LINE",
"742 73 LINE",
"712 73 LINE SMOOTH",
"686 73 OFFCURVE",
"676 84 OFFCURVE",
"676 111 CURVE SMOOTH",
"676 536 LINE SMOOTH",
"676 563 OFFCURVE",
"686 574 OFFCURVE",
"712 574 CURVE SMOOTH",
"742 574 LINE",
"742 647 LINE",
"563 647 LINE",
"388 240 LINE",
"212 647 LINE",
"33 647 LINE",
"33 574 LINE",
"62 574 LINE SMOOTH",
"89 574 OFFCURVE",
"99 563 OFFCURVE",
"99 536 CURVE SMOOTH",
"99 111 LINE SMOOTH",
"99 84 OFFCURVE",
"89 73 OFFCURVE",
"62 73 CURVE SMOOTH",
"33 73 LINE",
"33 0 LINE"
);
}
);
width = 775;
}
);
leftKerningGroup = M;
note = M;
rightKerningGroup = M;
unicode = 004D;
},
{
glyphname = Mdotbelow;
lastChange = "2015-08-01 09:24:50 +0000";
layers = (
{
layerId = "C94C01B0-3DB6-4E3E-9BA4-195D35EE6A10";
name = Regular;
paths = (
{
closed = 1;
nodes = (
"270 0 LINE",
"270 73 LINE",
"240 73 LINE SMOOTH",
"214 73 OFFCURVE",
"203 84 OFFCURVE",
"203 110 CURVE SMOOTH",
"203 472 LINE",
"347 139 LINE",
"428 139 LINE",
"571 472 LINE",
"571 110 LINE SMOOTH",
"571 84 OFFCURVE",
"561 73 OFFCURVE",
"535 73 CURVE SMOOTH",
"505 73 LINE",
"505 0 LINE",
"742 0 LINE",
"742 73 LINE",
"712 73 LINE SMOOTH",
"686 73 OFFCURVE",
"676 84 OFFCURVE",
"676 111 CURVE SMOOTH",
"676 536 LINE SMOOTH",
"676 563 OFFCURVE",
"686 574 OFFCURVE",
"712 574 CURVE SMOOTH",
"742 574 LINE",
"742 647 LINE",
"563 647 LINE",
"388 240 LINE",
"212 647 LINE",
"33 647 LINE",
"33 574 LINE",
"62 574 LINE SMOOTH",
"89 574 OFFCURVE",
"99 563 OFFCURVE",
"99 536 CURVE SMOOTH",
"99 111 LINE SMOOTH",
"99 84 OFFCURVE",
"89 73 OFFCURVE",
"62 73 CURVE SMOOTH",
"33 73 LINE",
"33 0 LINE"
);
},
{
closed = 1;
nodes = (
"434 -158 LINE",
"434 -62 LINE",
"342 -62 LINE",
"342 -158 LINE"
);
}
);
width = 775;
}
);
leftKerningGroup = M;
note = Mdotbelow;
rightKerningGroup = M;
unicode = 1E42;
},
{
glyphname = N;
lastChange = "2015-08-01 09:24:30 +0000";
layers = (
{
layerId = "C94C01B0-3DB6-4E3E-9BA4-195D35EE6A10";
name = Regular;
paths = (
{
closed = 1;
nodes = (
"270 0 LINE",
"270 74 LINE",
"241 74 LINE SMOOTH",
"215 74 OFFCURVE",
"204 85 OFFCURVE",
"204 110 CURVE SMOOTH",
"204 472 LINE",
"509 0 LINE",
"592 0 LINE",
"592 537 LINE SMOOTH",
"592 562 OFFCURVE",
"602 573 OFFCURVE",
"628 573 CURVE SMOOTH",
"658 573 LINE",
"658 647 LINE",
"420 647 LINE",
"420 573 LINE",
"450 573 LINE SMOOTH",
"476 573 OFFCURVE",
"487 562 OFFCURVE",
"487 537 CURVE SMOOTH",
"487 174 LINE",
"182 647 LINE",
"33 647 LINE",
"33 573 LINE",
"62 573 LINE SMOOTH",
"89 573 OFFCURVE",
"99 562 OFFCURVE",
"99 537 CURVE SMOOTH",
"99 110 LINE SMOOTH",
"99 85 OFFCURVE",
"89 74 OFFCURVE",
"62 74 CURVE SMOOTH",
"33 74 LINE",
"33 0 LINE"
);
}
);
width = 691;
}
);
note = N;
unicode = 004E;
},
{
glyphname = Nacute;
lastChange = "2015-08-01 09:24:49 +0000";
layers = (
{
layerId = "C94C01B0-3DB6-4E3E-9BA4-195D35EE6A10";
name = Regular;
paths = (
{
closed = 1;
nodes = (
"270 0 LINE",
"270 74 LINE",
"241 74 LINE SMOOTH",
"215 74 OFFCURVE",
"204 85 OFFCURVE",
"204 110 CURVE SMOOTH",
"204 472 LINE",
"509 0 LINE",
"592 0 LINE",
"592 537 LINE SMOOTH",
"592 562 OFFCURVE",
"602 573 OFFCURVE",
"628 573 CURVE SMOOTH",
"658 573 LINE",
"658 647 LINE",
"420 647 LINE",
"420 573 LINE",
"450 573 LINE SMOOTH",
"476 573 OFFCURVE",
"487 562 OFFCURVE",
"487 537 CURVE SMOOTH",
"487 174 LINE",
"182 647 LINE",
"33 647 LINE",
"33 573 LINE",
"62 573 LINE SMOOTH",
"89 573 OFFCURVE",
"99 562 OFFCURVE",
"99 537 CURVE SMOOTH",
"99 110 LINE SMOOTH",
"99 85 OFFCURVE",
"89 74 OFFCURVE",
"62 74 CURVE SMOOTH",
"33 74 LINE",
"33 0 LINE"
);
},
{
closed = 1;
nodes = (
"367 701 LINE",
"481 880 LINE",
"356 880 LINE",
"276 701 LINE"
);
}
);
width = 691;
}
);
note = Nacute;
unicode = 0143;
},
{
glyphname = Ncaron;
lastChange = "2015-08-01 09:24:44 +0000";
layers = (
{
layerId = "C94C01B0-3DB6-4E3E-9BA4-195D35EE6A10";
name = Regular;
paths = (
{
closed = 1;
nodes = (
"270 0 LINE",
"270 74 LINE",
"241 74 LINE SMOOTH",
"215 74 OFFCURVE",
"204 85 OFFCURVE",
"204 110 CURVE SMOOTH",
"204 472 LINE",
"509 0 LINE",
"592 0 LINE",
"592 537 LINE SMOOTH",
"592 562 OFFCURVE",
"602 573 OFFCURVE",
"628 573 CURVE SMOOTH",
"658 573 LINE",
"658 647 LINE",
"420 647 LINE",
"420 573 LINE",
"450 573 LINE SMOOTH",
"476 573 OFFCURVE",
"487 562 OFFCURVE",
"487 537 CURVE SMOOTH",
"487 174 LINE",
"182 647 LINE",
"33 647 LINE",
"33 573 LINE",
"62 573 LINE SMOOTH",
"89 573 OFFCURVE",
"99 562 OFFCURVE",
"99 537 CURVE SMOOTH",
"99 110 LINE SMOOTH",
"99 85 OFFCURVE",
"89 74 OFFCURVE",
"62 74 CURVE SMOOTH",
"33 74 LINE",
"33 0 LINE"
);
},
{
closed = 1;
nodes = (
"386 701 LINE",
"511 889 LINE",
"411 889 LINE",
"334 763 LINE",
"257 889 LINE",
"158 889 LINE",
"283 701 LINE"
);
}
);
width = 691;
}
);
note = Ncaron;
unicode = 0147;
},
{
glyphname = Ncommaaccent;
lastChange = "2015-08-01 09:24:50 +0000";
layers = (
{
layerId = "C94C01B0-3DB6-4E3E-9BA4-195D35EE6A10";
name = Regular;
paths = (
{
closed = 1;
nodes = (
"270 0 LINE",
"270 74 LINE",
"241 74 LINE SMOOTH",
"215 74 OFFCURVE",
"204 85 OFFCURVE",
"204 110 CURVE SMOOTH",
"204 472 LINE",
"509 0 LINE",
"592 0 LINE",
"592 537 LINE SMOOTH",
"592 562 OFFCURVE",
"602 573 OFFCURVE",
"628 573 CURVE SMOOTH",
"658 573 LINE",
"658 647 LINE",
"420 647 LINE",
"420 573 LINE",
"450 573 LINE SMOOTH",
"476 573 OFFCURVE",
"487 562 OFFCURVE",
"487 537 CURVE SMOOTH",
"487 174 LINE",
"182 647 LINE",
"33 647 LINE",
"33 573 LINE",
"62 573 LINE SMOOTH",
"89 573 OFFCURVE",
"99 562 OFFCURVE",
"99 537 CURVE SMOOTH",
"99 110 LINE SMOOTH",
"99 85 OFFCURVE",
"89 74 OFFCURVE",
"62 74 CURVE SMOOTH",
"33 74 LINE",
"33 0 LINE"
);
},
{
closed = 1;
nodes = (
"381 -253 LINE",
"443 -49 LINE",
"327 -49 LINE",
"296 -253 LINE"
);
}
);
width = 691;
}
);
note = Ncommaaccent;
unicode = 0145;
},
{
glyphname = Ndotaccent;
lastChange = "2015-08-01 09:24:46 +0000";
layers = (
{
layerId = "C94C01B0-3DB6-4E3E-9BA4-195D35EE6A10";
name = Regular;
paths = (
{
closed = 1;
nodes = (
"270 0 LINE",
"270 74 LINE",
"241 74 LINE SMOOTH",
"215 74 OFFCURVE",
"204 85 OFFCURVE",
"204 110 CURVE SMOOTH",
"204 472 LINE",
"509 0 LINE",
"592 0 LINE",
"592 537 LINE SMOOTH",
"592 562 OFFCURVE",
"602 573 OFFCURVE",
"628 573 CURVE SMOOTH",
"658 573 LINE",
"658 647 LINE",
"420 647 LINE",
"420 573 LINE",
"450 573 LINE SMOOTH",
"476 573 OFFCURVE",
"487 562 OFFCURVE",
"487 537 CURVE SMOOTH",
"487 174 LINE",
"182 647 LINE",
"33 647 LINE",
"33 573 LINE",
"62 573 LINE SMOOTH",
"89 573 OFFCURVE",
"99 562 OFFCURVE",
"99 537 CURVE SMOOTH",
"99 110 LINE SMOOTH",
"99 85 OFFCURVE",
"89 74 OFFCURVE",
"62 74 CURVE SMOOTH",
"33 74 LINE",
"33 0 LINE"
);
},
{
closed = 1;
nodes = (
"394 720 LINE",
"394 816 LINE",
"302 816 LINE",
"302 720 LINE"
);
}
);
width = 691;
}
);
note = Ndotaccent;
unicode = 1E44;
},
{
glyphname = Ndotbelow;
lastChange = "2015-08-01 09:24:49 +0000";
layers = (
{
layerId = "C94C01B0-3DB6-4E3E-9BA4-195D35EE6A10";
name = Regular;
paths = (
{
closed = 1;
nodes = (
"270 0 LINE",
"270 74 LINE",
"241 74 LINE SMOOTH",
"215 74 OFFCURVE",
"204 85 OFFCURVE",
"204 110 CURVE SMOOTH",
"204 472 LINE",
"509 0 LINE",
"592 0 LINE",
"592 537 LINE SMOOTH",
"592 562 OFFCURVE",
"602 573 OFFCURVE",
"628 573 CURVE SMOOTH",
"658 573 LINE",
"658 647 LINE",
"420 647 LINE",
"420 573 LINE",
"450 573 LINE SMOOTH",
"476 573 OFFCURVE",
"487 562 OFFCURVE",
"487 537 CURVE SMOOTH",
"487 174 LINE",
"182 647 LINE",
"33 647 LINE",
"33 573 LINE",
"62 573 LINE SMOOTH",
"89 573 OFFCURVE",
"99 562 OFFCURVE",
"99 537 CURVE SMOOTH",
"99 110 LINE SMOOTH",
"99 85 OFFCURVE",
"89 74 OFFCURVE",
"62 74 CURVE SMOOTH",
"33 74 LINE",
"33 0 LINE"
);
},
{
closed = 1;
nodes = (
"402 -158 LINE",
"402 -62 LINE",
"310 -62 LINE",
"310 -158 LINE"
);
}
);
width = 691;
}
);
note = Ndotbelow;
unicode = 1E46;
},
{
glyphname = Eng;
lastChange = "2015-08-01 09:24:30 +0000";
layers = (
{
layerId = "C94C01B0-3DB6-4E3E-9BA4-195D35EE6A10";
name = Regular;
paths = (
{
closed = 1;
nodes = (
"527 -285 OFFCURVE",
"592 -216 OFFCURVE",
"592 -101 CURVE SMOOTH",
"592 537 LINE SMOOTH",
"592 562 OFFCURVE",
"602 573 OFFCURVE",
"628 573 CURVE SMOOTH",
"658 573 LINE",
"658 647 LINE",
"420 647 LINE",
"420 573 LINE",
"450 573 LINE SMOOTH",
"476 573 OFFCURVE",
"487 562 OFFCURVE",
"487 537 CURVE SMOOTH",
"487 174 LINE",
"182 647 LINE",
"33 647 LINE",
"33 573 LINE",
"62 573 LINE SMOOTH",
"89 573 OFFCURVE",
"99 562 OFFCURVE",
"99 537 CURVE SMOOTH",
"99 110 LINE SMOOTH",
"99 85 OFFCURVE",
"89 74 OFFCURVE",
"62 74 CURVE SMOOTH",
"33 74 LINE",
"33 0 LINE",
"270 0 LINE",
"270 74 LINE",
"241 74 LINE SMOOTH",
"215 74 OFFCURVE",
"204 85 OFFCURVE",
"204 110 CURVE SMOOTH",
"204 472 LINE",
"485 37 LINE",
"485 -114 LINE SMOOTH",
"485 -179 OFFCURVE",
"455 -213 OFFCURVE",
"389 -213 CURVE SMOOTH",
"352 -213 OFFCURVE",
"322 -204 OFFCURVE",
"299 -181 CURVE",
"299 -138 LINE",
"208 -138 LINE",
"208 -222 LINE",
"251 -260 OFFCURVE",
"311 -285 OFFCURVE",
"395 -285 CURVE SMOOTH"
);
}
);
width = 691;
}
);
note = Eng;
unicode = 014A;
},
{
glyphname = Nlinebelow;
lastChange = "2015-08-01 09:24:45 +0000";
layers = (
{
layerId = "C94C01B0-3DB6-4E3E-9BA4-195D35EE6A10";
name = Regular;
paths = (
{
closed = 1;
nodes = (
"270 0 LINE",
"270 74 LINE",
"241 74 LINE SMOOTH",
"215 74 OFFCURVE",
"204 85 OFFCURVE",
"204 110 CURVE SMOOTH",
"204 472 LINE",
"509 0 LINE",
"592 0 LINE",
"592 537 LINE SMOOTH",
"592 562 OFFCURVE",
"602 573 OFFCURVE",
"628 573 CURVE SMOOTH",
"658 573 LINE",
"658 647 LINE",
"420 647 LINE",
"420 573 LINE",
"450 573 LINE SMOOTH",
"476 573 OFFCURVE",
"487 562 OFFCURVE",
"487 537 CURVE SMOOTH",
"487 174 LINE",
"182 647 LINE",
"33 647 LINE",
"33 573 LINE",
"62 573 LINE SMOOTH",
"89 573 OFFCURVE",
"99 562 OFFCURVE",
"99 537 CURVE SMOOTH",
"99 110 LINE SMOOTH",
"99 85 OFFCURVE",
"89 74 OFFCURVE",
"62 74 CURVE SMOOTH",
"33 74 LINE",
"33 0 LINE"
);
},
{
closed = 1;
nodes = (
"489 -132 LINE",
"489 -63 LINE",
"200 -63 LINE",
"200 -132 LINE"
);
}
);
width = 691;
}
);
note = Nlinebelow;
unicode = 1E48;
},
{
glyphname = Ntilde;
lastChange = "2015-08-01 09:24:44 +0000";
layers = (
{
layerId = "C94C01B0-3DB6-4E3E-9BA4-195D35EE6A10";
name = Regular;
paths = (
{
closed = 1;
nodes = (
"270 0 LINE",
"270 74 LINE",
"241 74 LINE SMOOTH",
"215 74 OFFCURVE",
"204 85 OFFCURVE",
"204 110 CURVE SMOOTH",
"204 472 LINE",
"509 0 LINE",
"592 0 LINE",
"592 537 LINE SMOOTH",
"592 562 OFFCURVE",
"602 573 OFFCURVE",
"628 573 CURVE SMOOTH",
"658 573 LINE",
"658 647 LINE",
"420 647 LINE",
"420 573 LINE",
"450 573 LINE SMOOTH",
"476 573 OFFCURVE",
"487 562 OFFCURVE",
"487 537 CURVE SMOOTH",
"487 174 LINE",
"182 647 LINE",
"33 647 LINE",
"33 573 LINE",
"62 573 LINE SMOOTH",
"89 573 OFFCURVE",
"99 562 OFFCURVE",
"99 537 CURVE SMOOTH",
"99 110 LINE SMOOTH",
"99 85 OFFCURVE",
"89 74 OFFCURVE",
"62 74 CURVE SMOOTH",
"33 74 LINE",
"33 0 LINE"
);
},
{
closed = 1;
nodes = (
"231 701 LINE",
"231 742 OFFCURVE",
"247 754 OFFCURVE",
"276 754 CURVE SMOOTH",
"328 754 OFFCURVE",
"365 701 OFFCURVE",
"436 701 CURVE SMOOTH",
"509 701 OFFCURVE",
"543 742 OFFCURVE",
"543 838 CURVE",
"465 838 LINE",
"465 797 OFFCURVE",
"450 784 OFFCURVE",
"421 784 CURVE SMOOTH",
"372 784 OFFCURVE",
"334 838 OFFCURVE",
"262 838 CURVE SMOOTH",
"188 838 OFFCURVE",
"153 795 OFFCURVE",
"153 701 CURVE"
);
}
);
width = 691;
}
);
note = Ntilde;
unicode = 00D1;
},
{
glyphname = O;
lastChange = "2015-08-01 09:24:48 +0000";
layers = (
{
layerId = "C94C01B0-3DB6-4E3E-9BA4-195D35EE6A10";
name = Regular;
paths = (
{
closed = 1;
nodes = (
"531 -15 OFFCURVE",
"626 97 OFFCURVE",
"626 321 CURVE SMOOTH",
"626 545 OFFCURVE",
"538 662 OFFCURVE",
"330 662 CURVE SMOOTH",
"121 662 OFFCURVE",
"33 545 OFFCURVE",
"33 321 CURVE SMOOTH",
"33 97 OFFCURVE",
"128 -15 OFFCURVE",
"330 -15 CURVE SMOOTH"
);
},
{
closed = 1;
nodes = (
"201 59 OFFCURVE",
"137 130 OFFCURVE",
"137 321 CURVE SMOOTH",
"137 516 OFFCURVE",
"200 588 OFFCURVE",
"330 588 CURVE SMOOTH",
"459 588 OFFCURVE",
"522 516 OFFCURVE",
"522 321 CURVE SMOOTH",
"522 130 OFFCURVE",
"458 59 OFFCURVE",
"330 59 CURVE SMOOTH"
);
}
);
width = 659;
}
);
leftKerningGroup = O;
note = O;
rightKerningGroup = O;
unicode = 004F;
},
{
glyphname = Oacute;
lastChange = "2015-08-01 09:24:45 +0000";
layers = (
{
layerId = "C94C01B0-3DB6-4E3E-9BA4-195D35EE6A10";
name = Regular;
paths = (
{
closed = 1;
nodes = (
"531 -15 OFFCURVE",
"626 97 OFFCURVE",
"626 321 CURVE SMOOTH",
"626 545 OFFCURVE",
"538 662 OFFCURVE",
"330 662 CURVE SMOOTH",
"121 662 OFFCURVE",
"33 545 OFFCURVE",
"33 321 CURVE SMOOTH",
"33 97 OFFCURVE",
"128 -15 OFFCURVE",
"330 -15 CURVE SMOOTH"
);
},
{
closed = 1;
nodes = (
"201 59 OFFCURVE",
"137 130 OFFCURVE",
"137 321 CURVE SMOOTH",
"137 516 OFFCURVE",
"200 588 OFFCURVE",
"330 588 CURVE SMOOTH",
"459 588 OFFCURVE",
"522 516 OFFCURVE",
"522 321 CURVE SMOOTH",
"522 130 OFFCURVE",
"458 59 OFFCURVE",
"330 59 CURVE SMOOTH"
);
},
{
closed = 1;
nodes = (
"351 701 LINE",
"465 880 LINE",
"340 880 LINE",
"260 701 LINE"
);
}
);
width = 659;
}
);
leftKerningGroup = O;
note = Oacute;
rightKerningGroup = O;
unicode = 00D3;
},
{
glyphname = Obreve;
lastChange = "2015-08-01 09:24:44 +0000";
layers = (
{
layerId = "C94C01B0-3DB6-4E3E-9BA4-195D35EE6A10";
name = Regular;
paths = (
{
closed = 1;
nodes = (
"531 -15 OFFCURVE",
"626 97 OFFCURVE",
"626 321 CURVE SMOOTH",
"626 545 OFFCURVE",
"538 662 OFFCURVE",
"330 662 CURVE SMOOTH",
"121 662 OFFCURVE",
"33 545 OFFCURVE",
"33 321 CURVE SMOOTH",
"33 97 OFFCURVE",
"128 -15 OFFCURVE",
"330 -15 CURVE SMOOTH"
);
},
{
closed = 1;
nodes = (
"201 59 OFFCURVE",
"137 130 OFFCURVE",
"137 321 CURVE SMOOTH",
"137 516 OFFCURVE",
"200 588 OFFCURVE",
"330 588 CURVE SMOOTH",
"459 588 OFFCURVE",
"522 516 OFFCURVE",
"522 321 CURVE SMOOTH",
"522 130 OFFCURVE",
"458 59 OFFCURVE",
"330 59 CURVE SMOOTH"
);
},
{
closed = 1;
nodes = (
"426 701 OFFCURVE",
"488 757 OFFCURVE",
"488 844 CURVE",
"401 844 LINE",
"401 796 OFFCURVE",
"376 769 OFFCURVE",
"329 769 CURVE SMOOTH",
"284 769 OFFCURVE",
"257 796 OFFCURVE",
"257 844 CURVE",
"170 844 LINE",
"170 757 OFFCURVE",
"232 701 OFFCURVE",
"329 701 CURVE SMOOTH"
);
}
);
width = 659;
}
);
leftKerningGroup = O;
note = Obreve;
rightKerningGroup = O;
unicode = 014E;
},
{
glyphname = Ocaron;
lastChange = "2015-08-01 09:24:45 +0000";
layers = (
{
layerId = "C94C01B0-3DB6-4E3E-9BA4-195D35EE6A10";
name = Regular;
paths = (
{
closed = 1;
nodes = (
"531 -15 OFFCURVE",
"626 97 OFFCURVE",
"626 321 CURVE SMOOTH",
"626 545 OFFCURVE",
"538 662 OFFCURVE",
"330 662 CURVE SMOOTH",
"121 662 OFFCURVE",
"33 545 OFFCURVE",
"33 321 CURVE SMOOTH",
"33 97 OFFCURVE",
"128 -15 OFFCURVE",
"330 -15 CURVE SMOOTH"
);
},
{
closed = 1;
nodes = (
"201 59 OFFCURVE",
"137 130 OFFCURVE",
"137 321 CURVE SMOOTH",
"137 516 OFFCURVE",
"200 588 OFFCURVE",
"330 588 CURVE SMOOTH",
"459 588 OFFCURVE",
"522 516 OFFCURVE",
"522 321 CURVE SMOOTH",
"522 130 OFFCURVE",
"458 59 OFFCURVE",
"330 59 CURVE SMOOTH"
);
},
{
closed = 1;
nodes = (
"380 701 LINE",
"505 889 LINE",
"405 889 LINE",
"328 763 LINE",
"251 889 LINE",
"152 889 LINE",
"277 701 LINE"
);
}
);
width = 659;
}
);
leftKerningGroup = O;
note = Ocaron;
rightKerningGroup = O;
unicode = 01D1;
},
{
glyphname = Ocircumflex;
lastChange = "2015-08-01 09:24:47 +0000";
layers = (
{
layerId = "C94C01B0-3DB6-4E3E-9BA4-195D35EE6A10";
name = Regular;
paths = (
{
closed = 1;
nodes = (
"531 -15 OFFCURVE",
"626 97 OFFCURVE",
"626 321 CURVE SMOOTH",
"626 545 OFFCURVE",
"538 662 OFFCURVE",
"330 662 CURVE SMOOTH",
"121 662 OFFCURVE",
"33 545 OFFCURVE",
"33 321 CURVE SMOOTH",
"33 97 OFFCURVE",
"128 -15 OFFCURVE",
"330 -15 CURVE SMOOTH"
);
},
{
closed = 1;
nodes = (
"201 59 OFFCURVE",
"137 130 OFFCURVE",
"137 321 CURVE SMOOTH",
"137 516 OFFCURVE",
"200 588 OFFCURVE",
"330 588 CURVE SMOOTH",
"459 588 OFFCURVE",
"522 516 OFFCURVE",
"522 321 CURVE SMOOTH",
"522 130 OFFCURVE",
"458 59 OFFCURVE",
"330 59 CURVE SMOOTH"
);
},
{
closed = 1;
nodes = (
"251 701 LINE",
"328 827 LINE",
"405 701 LINE",
"505 701 LINE",
"380 889 LINE",
"277 889 LINE",
"152 701 LINE"
);
}
);
width = 659;
}
);
leftKerningGroup = O;
note = Ocircumflex;
rightKerningGroup = O;
unicode = 00D4;
},
{
glyphname = Ocircumflexacute;
lastChange = "2015-08-01 09:24:51 +0000";
layers = (
{
layerId = "C94C01B0-3DB6-4E3E-9BA4-195D35EE6A10";
name = Regular;
paths = (
{
closed = 1;
nodes = (
"531 -15 OFFCURVE",
"626 97 OFFCURVE",
"626 321 CURVE SMOOTH",
"626 545 OFFCURVE",
"538 662 OFFCURVE",
"330 662 CURVE SMOOTH",
"121 662 OFFCURVE",
"33 545 OFFCURVE",
"33 321 CURVE SMOOTH",
"33 97 OFFCURVE",
"128 -15 OFFCURVE",
"330 -15 CURVE SMOOTH"
);
},
{
closed = 1;
nodes = (
"201 59 OFFCURVE",
"137 130 OFFCURVE",
"137 321 CURVE SMOOTH",
"137 516 OFFCURVE",
"200 588 OFFCURVE",
"330 588 CURVE SMOOTH",
"459 588 OFFCURVE",
"522 516 OFFCURVE",
"522 321 CURVE SMOOTH",
"522 130 OFFCURVE",
"458 59 OFFCURVE",
"330 59 CURVE SMOOTH"
);
},
{
closed = 1;
nodes = (
"267 701 LINE",
"331 786 LINE",
"393 701 LINE",
"488 701 LINE",
"381 836 LINE",
"281 836 LINE",
"174 701 LINE"
);
},
{
closed = 1;
nodes = (
"508 810 LINE",
"606 937 LINE",
"493 937 LINE",
"430 810 LINE"
);
}
);
width = 659;
}
);
leftKerningGroup = O;
note = Ocircumflexacute;
rightKerningGroup = O;
unicode = 1ED0;
},
{
glyphname = Ocircumflexdotbelow;
lastChange = "2015-08-01 09:24:50 +0000";
layers = (
{
layerId = "C94C01B0-3DB6-4E3E-9BA4-195D35EE6A10";
name = Regular;
paths = (
{
closed = 1;
nodes = (
"531 -15 OFFCURVE",
"626 97 OFFCURVE",
"626 321 CURVE SMOOTH",
"626 545 OFFCURVE",
"538 662 OFFCURVE",
"330 662 CURVE SMOOTH",
"121 662 OFFCURVE",
"33 545 OFFCURVE",
"33 321 CURVE SMOOTH",
"33 97 OFFCURVE",
"128 -15 OFFCURVE",
"330 -15 CURVE SMOOTH"
);
},
{
closed = 1;
nodes = (
"375 -158 LINE",
"375 -62 LINE",
"283 -62 LINE",
"283 -158 LINE"
);
},
{
closed = 1;
nodes = (
"201 59 OFFCURVE",
"137 130 OFFCURVE",
"137 321 CURVE SMOOTH",
"137 516 OFFCURVE",
"200 588 OFFCURVE",
"330 588 CURVE SMOOTH",
"459 588 OFFCURVE",
"522 516 OFFCURVE",
"522 321 CURVE SMOOTH",
"522 130 OFFCURVE",
"458 59 OFFCURVE",
"330 59 CURVE SMOOTH"
);
},
{
closed = 1;
nodes = (
"252 701 LINE",
"329 827 LINE",
"406 701 LINE",
"506 701 LINE",
"381 889 LINE",
"278 889 LINE",
"153 701 LINE"
);
}
);
width = 659;
}
);
leftKerningGroup = O;
note = Ocircumflexdotbelow;
rightKerningGroup = O;
unicode = 1ED8;
},
{
glyphname = Ocircumflexgrave;
lastChange = "2015-08-01 09:24:48 +0000";
layers = (
{
layerId = "C94C01B0-3DB6-4E3E-9BA4-195D35EE6A10";
name = Regular;
paths = (
{
closed = 1;
nodes = (
"531 -15 OFFCURVE",
"626 97 OFFCURVE",
"626 321 CURVE SMOOTH",
"626 545 OFFCURVE",
"538 662 OFFCURVE",
"330 662 CURVE SMOOTH",
"121 662 OFFCURVE",
"33 545 OFFCURVE",
"33 321 CURVE SMOOTH",
"33 97 OFFCURVE",
"128 -15 OFFCURVE",
"330 -15 CURVE SMOOTH"
);
},
{
closed = 1;
nodes = (
"201 59 OFFCURVE",
"137 130 OFFCURVE",
"137 321 CURVE SMOOTH",
"137 516 OFFCURVE",
"200 588 OFFCURVE",
"330 588 CURVE SMOOTH",
"459 588 OFFCURVE",
"522 516 OFFCURVE",
"522 321 CURVE SMOOTH",
"522 130 OFFCURVE",
"458 59 OFFCURVE",
"330 59 CURVE SMOOTH"
);
},
{
closed = 1;
nodes = (
"216 810 LINE",
"153 937 LINE",
"40 937 LINE",
"138 810 LINE"
);
},
{
closed = 1;
nodes = (
"253 701 LINE",
"315 786 LINE",
"379 701 LINE",
"472 701 LINE",
"365 836 LINE",
"265 836 LINE",
"158 701 LINE"
);
}
);
width = 659;
}
);
leftKerningGroup = O;
note = Ocircumflexgrave;
rightKerningGroup = O;
unicode = 1ED2;
},
{
glyphname = Ocircumflexhookabove;
lastChange = "2015-08-01 09:24:44 +0000";
layers = (
{
layerId = "C94C01B0-3DB6-4E3E-9BA4-195D35EE6A10";
name = Regular;
paths = (
{
closed = 1;
nodes = (
"531 -15 OFFCURVE",
"626 97 OFFCURVE",
"626 321 CURVE SMOOTH",
"626 545 OFFCURVE",
"538 662 OFFCURVE",
"330 662 CURVE SMOOTH",
"121 662 OFFCURVE",
"33 545 OFFCURVE",
"33 321 CURVE SMOOTH",
"33 97 OFFCURVE",
"128 -15 OFFCURVE",
"330 -15 CURVE SMOOTH"
);
},
{
closed = 1;
nodes = (
"201 59 OFFCURVE",
"137 130 OFFCURVE",
"137 321 CURVE SMOOTH",
"137 516 OFFCURVE",
"200 588 OFFCURVE",
"330 588 CURVE SMOOTH",
"459 588 OFFCURVE",
"522 516 OFFCURVE",
"522 321 CURVE SMOOTH",
"522 130 OFFCURVE",
"458 59 OFFCURVE",
"330 59 CURVE SMOOTH"
);
},
{
closed = 1;
nodes = (
"251 701 LINE",
"313 786 LINE",
"377 701 LINE",
"471 701 LINE",
"364 836 LINE",
"263 836 LINE",
"157 701 LINE"
);
},
{
closed = 1;
nodes = (
"462 827 LINE",
"462 850 LINE",
"503 858 OFFCURVE",
"521 878 OFFCURVE",
"521 914 CURVE SMOOTH",
"521 959 OFFCURVE",
"493 984 OFFCURVE",
"434 984 CURVE SMOOTH",
"410 984 OFFCURVE",
"387 980 OFFCURVE",
"373 975 CURVE",
"373 924 LINE",
"384 928 OFFCURVE",
"399 932 OFFCURVE",
"414 932 CURVE SMOOTH",
"434 932 OFFCURVE",
"448 924 OFFCURVE",
"448 906 CURVE SMOOTH",
"448 882 OFFCURVE",
"436 873 OFFCURVE",
"391 873 CURVE",
"391 827 LINE"
);
}
);
width = 659;
}
);
leftKerningGroup = O;
note = Ocircumflexhookabove;
rightKerningGroup = O;
unicode = 1ED4;
},
{
glyphname = Ocircumflextilde;
lastChange = "2015-08-01 09:24:47 +0000";
layers = (
{
layerId = "C94C01B0-3DB6-4E3E-9BA4-195D35EE6A10";
name = Regular;
paths = (
{
closed = 1;
nodes = (
"531 -15 OFFCURVE",
"626 97 OFFCURVE",
"626 321 CURVE SMOOTH",
"626 545 OFFCURVE",
"538 662 OFFCURVE",
"330 662 CURVE SMOOTH",
"121 662 OFFCURVE",
"33 545 OFFCURVE",
"33 321 CURVE SMOOTH",
"33 97 OFFCURVE",
"128 -15 OFFCURVE",
"330 -15 CURVE SMOOTH"
);
},
{
closed = 1;
nodes = (
"201 59 OFFCURVE",
"137 130 OFFCURVE",
"137 321 CURVE SMOOTH",
"137 516 OFFCURVE",
"200 588 OFFCURVE",
"330 588 CURVE SMOOTH",
"459 588 OFFCURVE",
"522 516 OFFCURVE",
"522 321 CURVE SMOOTH",
"522 130 OFFCURVE",
"458 59 OFFCURVE",
"330 59 CURVE SMOOTH"
);
},
{
closed = 1;
nodes = (
"422 701 OFFCURVE",
"494 756 OFFCURVE",
"494 850 CURVE",
"419 850 LINE",
"419 797 OFFCURVE",
"388 766 OFFCURVE",
"330 766 CURVE SMOOTH",
"274 766 OFFCURVE",
"242 797 OFFCURVE",
"242 850 CURVE",
"167 850 LINE",
"167 756 OFFCURVE",
"239 701 OFFCURVE",
"330 701 CURVE SMOOTH"
);
},
{
closed = 1;
nodes = (
"453 883 OFFCURVE",
"478 911 OFFCURVE",
"478 981 CURVE",
"419 981 LINE",
"419 955 OFFCURVE",
"412 941 OFFCURVE",
"389 941 CURVE SMOOTH",
"354 941 OFFCURVE",
"317 983 OFFCURVE",
"265 983 CURVE SMOOTH",
"209 983 OFFCURVE",
"181 956 OFFCURVE",
"181 885 CURVE",
"240 885 LINE",
"240 911 OFFCURVE",
"248 925 OFFCURVE",
"271 925 CURVE SMOOTH",
"306 925 OFFCURVE",
"349 883 OFFCURVE",
"398 883 CURVE SMOOTH"
);
}
);
width = 659;
}
);
leftKerningGroup = O;
note = Ocircumflextilde;
rightKerningGroup = O;
unicode = 1ED6;
},
{
glyphname = Odieresis;
lastChange = "2015-08-01 09:24:48 +0000";
layers = (
{
layerId = "C94C01B0-3DB6-4E3E-9BA4-195D35EE6A10";
name = Regular;
paths = (
{
closed = 1;
nodes = (
"531 -15 OFFCURVE",
"626 97 OFFCURVE",
"626 321 CURVE SMOOTH",
"626 545 OFFCURVE",
"538 662 OFFCURVE",
"330 662 CURVE SMOOTH",
"121 662 OFFCURVE",
"33 545 OFFCURVE",
"33 321 CURVE SMOOTH",
"33 97 OFFCURVE",
"128 -15 OFFCURVE",
"330 -15 CURVE SMOOTH"
);
},
{
closed = 1;
nodes = (
"201 59 OFFCURVE",
"137 130 OFFCURVE",
"137 321 CURVE SMOOTH",
"137 516 OFFCURVE",
"200 588 OFFCURVE",
"330 588 CURVE SMOOTH",
"459 588 OFFCURVE",
"522 516 OFFCURVE",
"522 321 CURVE SMOOTH",
"522 130 OFFCURVE",
"458 59 OFFCURVE",
"330 59 CURVE SMOOTH"
);
},
{
closed = 1;
nodes = (
"268 720 LINE",
"268 816 LINE",
"176 816 LINE",
"176 720 LINE"
);
},
{
closed = 1;
nodes = (
"482 720 LINE",
"482 816 LINE",
"389 816 LINE",
"389 720 LINE"
);
}
);
width = 659;
}
);
leftKerningGroup = O;
note = Odieresis;
rightKerningGroup = O;
unicode = 00D6;
},
{
glyphname = Odotbelow;
lastChange = "2015-08-01 09:24:46 +0000";
layers = (
{
layerId = "C94C01B0-3DB6-4E3E-9BA4-195D35EE6A10";
name = Regular;
paths = (
{
closed = 1;
nodes = (
"531 -15 OFFCURVE",
"626 97 OFFCURVE",
"626 321 CURVE SMOOTH",
"626 545 OFFCURVE",
"538 662 OFFCURVE",
"330 662 CURVE SMOOTH",
"121 662 OFFCURVE",
"33 545 OFFCURVE",
"33 321 CURVE SMOOTH",
"33 97 OFFCURVE",
"128 -15 OFFCURVE",
"330 -15 CURVE SMOOTH"
);
},
{
closed = 1;
nodes = (
"364 -158 LINE",
"364 -62 LINE",
"272 -62 LINE",
"272 -158 LINE"
);
},
{
closed = 1;
nodes = (
"201 59 OFFCURVE",
"137 130 OFFCURVE",
"137 321 CURVE SMOOTH",
"137 516 OFFCURVE",
"200 588 OFFCURVE",
"330 588 CURVE SMOOTH",
"459 588 OFFCURVE",
"522 516 OFFCURVE",
"522 321 CURVE SMOOTH",
"522 130 OFFCURVE",
"458 59 OFFCURVE",
"330 59 CURVE SMOOTH"
);
}
);
width = 659;
}
);
leftKerningGroup = O;
note = Odotbelow;
rightKerningGroup = O;
unicode = 1ECC;
},
{
glyphname = Ograve;
lastChange = "2015-08-01 09:24:46 +0000";
layers = (
{
layerId = "C94C01B0-3DB6-4E3E-9BA4-195D35EE6A10";
name = Regular;
paths = (
{
closed = 1;
nodes = (
"531 -15 OFFCURVE",
"626 97 OFFCURVE",
"626 321 CURVE SMOOTH",
"626 545 OFFCURVE",
"538 662 OFFCURVE",
"330 662 CURVE SMOOTH",
"121 662 OFFCURVE",
"33 545 OFFCURVE",
"33 321 CURVE SMOOTH",
"33 97 OFFCURVE",
"128 -15 OFFCURVE",
"330 -15 CURVE SMOOTH"
);
},
{
closed = 1;
nodes = (
"201 59 OFFCURVE",
"137 130 OFFCURVE",
"137 321 CURVE SMOOTH",
"137 516 OFFCURVE",
"200 588 OFFCURVE",
"330 588 CURVE SMOOTH",
"459 588 OFFCURVE",
"522 516 OFFCURVE",
"522 321 CURVE SMOOTH",
"522 130 OFFCURVE",
"458 59 OFFCURVE",
"330 59 CURVE SMOOTH"
);
},
{
closed = 1;
nodes = (
"370 701 LINE",
"290 880 LINE",
"164 880 LINE",
"278 701 LINE"
);
}
);
width = 659;
}
);
leftKerningGroup = O;
note = Ograve;
rightKerningGroup = O;
unicode = 00D2;
},
{
glyphname = Ohookabove;
lastChange = "2015-08-01 09:24:48 +0000";
layers = (
{
layerId = "C94C01B0-3DB6-4E3E-9BA4-195D35EE6A10";
name = Regular;
paths = (
{
closed = 1;
nodes = (
"531 -15 OFFCURVE",
"626 97 OFFCURVE",
"626 321 CURVE SMOOTH",
"626 545 OFFCURVE",
"538 662 OFFCURVE",
"330 662 CURVE SMOOTH",
"121 662 OFFCURVE",
"33 545 OFFCURVE",
"33 321 CURVE SMOOTH",
"33 97 OFFCURVE",
"128 -15 OFFCURVE",
"330 -15 CURVE SMOOTH"
);
},
{
closed = 1;
nodes = (
"201 59 OFFCURVE",
"137 130 OFFCURVE",
"137 321 CURVE SMOOTH",
"137 516 OFFCURVE",
"200 588 OFFCURVE",
"330 588 CURVE SMOOTH",
"459 588 OFFCURVE",
"522 516 OFFCURVE",
"522 321 CURVE SMOOTH",
"522 130 OFFCURVE",
"458 59 OFFCURVE",
"330 59 CURVE SMOOTH"
);
},
{
closed = 1;
nodes = (
"358 701 LINE",
"358 741 LINE",
"401 753 OFFCURVE",
"423 779 OFFCURVE",
"423 821 CURVE SMOOTH",
"423 882 OFFCURVE",
"379 905 OFFCURVE",
"308 905 CURVE SMOOTH",
"279 905 OFFCURVE",
"252 900 OFFCURVE",
"236 894 CURVE",
"236 835 LINE",
"249 840 OFFCURVE",
"268 844 OFFCURVE",
"285 844 CURVE SMOOTH",
"321 844 OFFCURVE",
"334 835 OFFCURVE",
"334 809 CURVE SMOOTH",
"334 784 OFFCURVE",
"321 766 OFFCURVE",
"272 766 CURVE",
"272 701 LINE"
);
}
);
width = 659;
}
);
leftKerningGroup = O;
note = Ohookabove;
rightKerningGroup = O;
unicode = 1ECE;
},
{
glyphname = Ohorn;
lastChange = "2015-08-01 09:24:48 +0000";
layers = (
{
layerId = "C94C01B0-3DB6-4E3E-9BA4-195D35EE6A10";
name = Regular;
paths = (
{
closed = 1;
nodes = (
"531 -15 OFFCURVE",
"626 97 OFFCURVE",
"626 321 CURVE SMOOTH",
"626 397 OFFCURVE",
"616 460 OFFCURVE",
"594 510 CURVE",
"679 525 OFFCURVE",
"712 577 OFFCURVE",
"712 652 CURVE SMOOTH",
"712 689 LINE",
"609 689 LINE",
"609 653 LINE SMOOTH",
"609 609 OFFCURVE",
"597 583 OFFCURVE",
"552 578 CURVE",
"504 634 OFFCURVE",
"431 662 OFFCURVE",
"330 662 CURVE SMOOTH",
"121 662 OFFCURVE",
"33 545 OFFCURVE",
"33 321 CURVE SMOOTH",
"33 97 OFFCURVE",
"128 -15 OFFCURVE",
"330 -15 CURVE SMOOTH"
);
},
{
closed = 1;
nodes = (
"201 59 OFFCURVE",
"137 130 OFFCURVE",
"137 321 CURVE SMOOTH",
"137 516 OFFCURVE",
"200 588 OFFCURVE",
"330 588 CURVE SMOOTH",
"459 588 OFFCURVE",
"522 516 OFFCURVE",
"522 321 CURVE SMOOTH",
"522 130 OFFCURVE",
"458 59 OFFCURVE",
"330 59 CURVE SMOOTH"
);
}
);
width = 710;
}
);
leftKerningGroup = O;
note = Ohorn;
rightKerningGroup = O;
unicode = 01A0;
},
{
glyphname = Ohornacute;
lastChange = "2015-08-01 09:24:44 +0000";
layers = (
{
layerId = "C94C01B0-3DB6-4E3E-9BA4-195D35EE6A10";
name = Regular;
paths = (
{
closed = 1;
nodes = (
"531 -15 OFFCURVE",
"626 97 OFFCURVE",
"626 321 CURVE SMOOTH",
"626 397 OFFCURVE",
"616 460 OFFCURVE",
"594 510 CURVE",
"679 525 OFFCURVE",
"712 577 OFFCURVE",
"712 652 CURVE SMOOTH",
"712 689 LINE",
"609 689 LINE",
"609 653 LINE SMOOTH",
"609 609 OFFCURVE",
"597 583 OFFCURVE",
"552 578 CURVE",
"504 634 OFFCURVE",
"431 662 OFFCURVE",
"330 662 CURVE SMOOTH",
"121 662 OFFCURVE",
"33 545 OFFCURVE",
"33 321 CURVE SMOOTH",
"33 97 OFFCURVE",
"128 -15 OFFCURVE",
"330 -15 CURVE SMOOTH"
);
},
{
closed = 1;
nodes = (
"201 59 OFFCURVE",
"137 130 OFFCURVE",
"137 321 CURVE SMOOTH",
"137 516 OFFCURVE",
"200 588 OFFCURVE",
"330 588 CURVE SMOOTH",
"459 588 OFFCURVE",
"522 516 OFFCURVE",
"522 321 CURVE SMOOTH",
"522 130 OFFCURVE",
"458 59 OFFCURVE",
"330 59 CURVE SMOOTH"
);
},
{
closed = 1;
nodes = (
"355 701 LINE",
"469 880 LINE",
"344 880 LINE",
"264 701 LINE"
);
}
);
width = 710;
}
);
leftKerningGroup = O;
note = Ohornacute;
rightKerningGroup = O;
unicode = 1EDA;
},
{
glyphname = Ohorndotbelow;
lastChange = "2015-08-01 09:24:49 +0000";
layers = (
{
layerId = "C94C01B0-3DB6-4E3E-9BA4-195D35EE6A10";
name = Regular;
paths = (
{
closed = 1;
nodes = (
"531 -15 OFFCURVE",
"626 97 OFFCURVE",
"626 321 CURVE SMOOTH",
"626 397 OFFCURVE",
"616 460 OFFCURVE",
"594 510 CURVE",
"679 525 OFFCURVE",
"712 577 OFFCURVE",
"712 652 CURVE SMOOTH",
"712 689 LINE",
"609 689 LINE",
"609 653 LINE SMOOTH",
"609 609 OFFCURVE",
"597 583 OFFCURVE",
"552 578 CURVE",
"504 634 OFFCURVE",
"431 662 OFFCURVE",
"330 662 CURVE SMOOTH",
"121 662 OFFCURVE",
"33 545 OFFCURVE",
"33 321 CURVE SMOOTH",
"33 97 OFFCURVE",
"128 -15 OFFCURVE",
"330 -15 CURVE SMOOTH"
);
},
{
closed = 1;
nodes = (
"381 -158 LINE",
"381 -62 LINE",
"289 -62 LINE",
"289 -158 LINE"
);
},
{
closed = 1;
nodes = (
"201 59 OFFCURVE",
"137 130 OFFCURVE",
"137 321 CURVE SMOOTH",
"137 516 OFFCURVE",
"200 588 OFFCURVE",
"330 588 CURVE SMOOTH",
"459 588 OFFCURVE",
"522 516 OFFCURVE",
"522 321 CURVE SMOOTH",
"522 130 OFFCURVE",
"458 59 OFFCURVE",
"330 59 CURVE SMOOTH"
);
}
);
width = 710;
}
);
leftKerningGroup = O;
note = Ohorndotbelow;
rightKerningGroup = O;
unicode = 1EE2;
},
{
glyphname = Ohorngrave;
lastChange = "2015-08-01 09:24:44 +0000";
layers = (
{
layerId = "C94C01B0-3DB6-4E3E-9BA4-195D35EE6A10";
name = Regular;
paths = (
{
closed = 1;
nodes = (
"531 -15 OFFCURVE",
"626 97 OFFCURVE",
"626 321 CURVE SMOOTH",
"626 397 OFFCURVE",
"616 460 OFFCURVE",
"594 510 CURVE",
"679 525 OFFCURVE",
"712 577 OFFCURVE",
"712 652 CURVE SMOOTH",
"712 689 LINE",
"609 689 LINE",
"609 653 LINE SMOOTH",
"609 609 OFFCURVE",
"597 583 OFFCURVE",
"552 578 CURVE",
"504 634 OFFCURVE",
"431 662 OFFCURVE",
"330 662 CURVE SMOOTH",
"121 662 OFFCURVE",
"33 545 OFFCURVE",
"33 321 CURVE SMOOTH",
"33 97 OFFCURVE",
"128 -15 OFFCURVE",
"330 -15 CURVE SMOOTH"
);
},
{
closed = 1;
nodes = (
"201 59 OFFCURVE",
"137 130 OFFCURVE",
"137 321 CURVE SMOOTH",
"137 516 OFFCURVE",
"200 588 OFFCURVE",
"330 588 CURVE SMOOTH",
"459 588 OFFCURVE",
"522 516 OFFCURVE",
"522 321 CURVE SMOOTH",
"522 130 OFFCURVE",
"458 59 OFFCURVE",
"330 59 CURVE SMOOTH"
);
},
{
closed = 1;
nodes = (
"364 701 LINE",
"284 880 LINE",
"158 880 LINE",
"272 701 LINE"
);
}
);
width = 710;
}
);
leftKerningGroup = O;
note = Ohorngrave;
rightKerningGroup = O;
unicode = 1EDC;
},
{
glyphname = Ohornhookabove;
lastChange = "2015-08-01 09:24:49 +0000";
layers = (
{
layerId = "C94C01B0-3DB6-4E3E-9BA4-195D35EE6A10";
name = Regular;
paths = (
{
closed = 1;
nodes = (
"531 -15 OFFCURVE",
"626 97 OFFCURVE",
"626 321 CURVE SMOOTH",
"626 397 OFFCURVE",
"616 460 OFFCURVE",
"594 510 CURVE",
"679 525 OFFCURVE",
"712 577 OFFCURVE",
"712 652 CURVE SMOOTH",
"712 689 LINE",
"609 689 LINE",
"609 653 LINE SMOOTH",
"609 609 OFFCURVE",
"597 583 OFFCURVE",
"552 578 CURVE",
"504 634 OFFCURVE",
"431 662 OFFCURVE",
"330 662 CURVE SMOOTH",
"121 662 OFFCURVE",
"33 545 OFFCURVE",
"33 321 CURVE SMOOTH",
"33 97 OFFCURVE",
"128 -15 OFFCURVE",
"330 -15 CURVE SMOOTH"
);
},
{
closed = 1;
nodes = (
"201 59 OFFCURVE",
"137 130 OFFCURVE",
"137 321 CURVE SMOOTH",
"137 516 OFFCURVE",
"200 588 OFFCURVE",
"330 588 CURVE SMOOTH",
"459 588 OFFCURVE",
"522 516 OFFCURVE",
"522 321 CURVE SMOOTH",
"522 130 OFFCURVE",
"458 59 OFFCURVE",
"330 59 CURVE SMOOTH"
);
},
{
closed = 1;
nodes = (
"364 701 LINE",
"364 741 LINE",
"407 753 OFFCURVE",
"429 779 OFFCURVE",
"429 821 CURVE SMOOTH",
"429 882 OFFCURVE",
"385 905 OFFCURVE",
"314 905 CURVE SMOOTH",
"285 905 OFFCURVE",
"258 900 OFFCURVE",
"242 894 CURVE",
"242 835 LINE",
"255 840 OFFCURVE",
"274 844 OFFCURVE",
"291 844 CURVE SMOOTH",
"327 844 OFFCURVE",
"340 835 OFFCURVE",
"340 809 CURVE SMOOTH",
"340 784 OFFCURVE",
"327 766 OFFCURVE",
"278 766 CURVE",
"278 701 LINE"
);
}
);
width = 710;
}
);
leftKerningGroup = O;
note = Ohornhookabove;
rightKerningGroup = O;
unicode = 1EDE;
},
{
glyphname = Ohorntilde;
lastChange = "2015-08-01 09:24:44 +0000";
layers = (
{
layerId = "C94C01B0-3DB6-4E3E-9BA4-195D35EE6A10";
name = Regular;
paths = (
{
closed = 1;
nodes = (
"531 -15 OFFCURVE",
"626 97 OFFCURVE",
"626 321 CURVE SMOOTH",
"626 397 OFFCURVE",
"616 460 OFFCURVE",
"594 510 CURVE",
"679 525 OFFCURVE",
"712 577 OFFCURVE",
"712 652 CURVE SMOOTH",
"712 689 LINE",
"609 689 LINE",
"609 653 LINE SMOOTH",
"609 609 OFFCURVE",
"597 583 OFFCURVE",
"552 578 CURVE",
"504 634 OFFCURVE",
"431 662 OFFCURVE",
"330 662 CURVE SMOOTH",
"121 662 OFFCURVE",
"33 545 OFFCURVE",
"33 321 CURVE SMOOTH",
"33 97 OFFCURVE",
"128 -15 OFFCURVE",
"330 -15 CURVE SMOOTH"
);
},
{
closed = 1;
nodes = (
"201 59 OFFCURVE",
"137 130 OFFCURVE",
"137 321 CURVE SMOOTH",
"137 516 OFFCURVE",
"200 588 OFFCURVE",
"330 588 CURVE SMOOTH",
"459 588 OFFCURVE",
"522 516 OFFCURVE",
"522 321 CURVE SMOOTH",
"522 130 OFFCURVE",
"458 59 OFFCURVE",
"330 59 CURVE SMOOTH"
);
},
{
closed = 1;
nodes = (
"214 701 LINE",
"214 742 OFFCURVE",
"230 754 OFFCURVE",
"259 754 CURVE SMOOTH",
"311 754 OFFCURVE",
"348 701 OFFCURVE",
"419 701 CURVE SMOOTH",
"492 701 OFFCURVE",
"526 742 OFFCURVE",
"526 838 CURVE",
"448 838 LINE",
"448 797 OFFCURVE",
"433 784 OFFCURVE",
"404 784 CURVE SMOOTH",
"355 784 OFFCURVE",
"317 838 OFFCURVE",
"245 838 CURVE SMOOTH",
"171 838 OFFCURVE",
"136 795 OFFCURVE",
"136 701 CURVE"
);
}
);
width = 710;
}
);
leftKerningGroup = O;
note = Ohorntilde;
rightKerningGroup = O;
unicode = 1EE0;
},
{
glyphname = Ohungarumlaut;
lastChange = "2015-08-01 09:24:46 +0000";
layers = (
{
layerId = "C94C01B0-3DB6-4E3E-9BA4-195D35EE6A10";
name = Regular;
paths = (
{
closed = 1;
nodes = (
"531 -15 OFFCURVE",
"626 97 OFFCURVE",
"626 321 CURVE SMOOTH",
"626 545 OFFCURVE",
"538 662 OFFCURVE",
"330 662 CURVE SMOOTH",
"121 662 OFFCURVE",
"33 545 OFFCURVE",
"33 321 CURVE SMOOTH",
"33 97 OFFCURVE",
"128 -15 OFFCURVE",
"330 -15 CURVE SMOOTH"
);
},
{
closed = 1;
nodes = (
"201 59 OFFCURVE",
"137 130 OFFCURVE",
"137 321 CURVE SMOOTH",
"137 516 OFFCURVE",
"200 588 OFFCURVE",
"330 588 CURVE SMOOTH",
"459 588 OFFCURVE",
"522 516 OFFCURVE",
"522 321 CURVE SMOOTH",
"522 130 OFFCURVE",
"458 59 OFFCURVE",
"330 59 CURVE SMOOTH"
);
},
{
closed = 1;
nodes = (
"252 700 LINE",
"372 888 LINE",
"244 888 LINE",
"157 700 LINE"
);
},
{
closed = 1;
nodes = (
"451 700 LINE",
"572 888 LINE",
"443 888 LINE",
"357 700 LINE"
);
}
);
width = 659;
}
);
leftKerningGroup = O;
note = Ohungarumlaut;
rightKerningGroup = O;
unicode = 0150;
},
{
glyphname = Omacron;
lastChange = "2015-08-01 09:24:44 +0000";
layers = (
{
layerId = "C94C01B0-3DB6-4E3E-9BA4-195D35EE6A10";
name = Regular;
paths = (
{
closed = 1;
nodes = (
"531 -15 OFFCURVE",
"626 97 OFFCURVE",
"626 321 CURVE SMOOTH",
"626 545 OFFCURVE",
"538 662 OFFCURVE",
"330 662 CURVE SMOOTH",
"121 662 OFFCURVE",
"33 545 OFFCURVE",
"33 321 CURVE SMOOTH",
"33 97 OFFCURVE",
"128 -15 OFFCURVE",
"330 -15 CURVE SMOOTH"
);
},
{
closed = 1;
nodes = (
"201 59 OFFCURVE",
"137 130 OFFCURVE",
"137 321 CURVE SMOOTH",
"137 516 OFFCURVE",
"200 588 OFFCURVE",
"330 588 CURVE SMOOTH",
"459 588 OFFCURVE",
"522 516 OFFCURVE",
"522 321 CURVE SMOOTH",
"522 130 OFFCURVE",
"458 59 OFFCURVE",
"330 59 CURVE SMOOTH"
);
},
{
closed = 1;
nodes = (
"473 721 LINE",
"473 790 LINE",
"184 790 LINE",
"184 721 LINE"
);
}
);
width = 659;
}
);
leftKerningGroup = O;
note = Omacron;
rightKerningGroup = O;
unicode = 014C;
},
{
glyphname = Oslash;
lastChange = "2015-08-01 09:24:44 +0000";
layers = (
{
layerId = "C94C01B0-3DB6-4E3E-9BA4-195D35EE6A10";
name = Regular;
paths = (
{
closed = 1;
nodes = (
"214 -43 LINE",
"228 -3 LINE",
"258 -11 OFFCURVE",
"292 -15 OFFCURVE",
"330 -15 CURVE SMOOTH",
"531 -15 OFFCURVE",
"626 97 OFFCURVE",
"626 321 CURVE SMOOTH",
"626 488 OFFCURVE",
"577 595 OFFCURVE",
"466 639 CURVE",
"485 689 LINE",
"430 689 LINE",
"416 653 LINE",
"390 659 OFFCURVE",
"361 662 OFFCURVE",
"330 662 CURVE SMOOTH",
"121 662 OFFCURVE",
"33 545 OFFCURVE",
"33 321 CURVE SMOOTH",
"33 162 OFFCURVE",
"80 60 OFFCURVE",
"180 14 CURVE",
"159 -43 LINE"
);
},
{
closed = 1;
nodes = (
"161 134 OFFCURVE",
"137 205 OFFCURVE",
"137 321 CURVE SMOOTH",
"137 516 OFFCURVE",
"200 588 OFFCURVE",
"330 588 CURVE SMOOTH",
"352 588 OFFCURVE",
"372 585 OFFCURVE",
"390 581 CURVE",
"210 96 LINE"
);
},
{
closed = 1;
nodes = (
"302 59 OFFCURVE",
"277 62 OFFCURVE",
"255 70 CURVE",
"437 561 LINE",
"494 525 OFFCURVE",
"522 450 OFFCURVE",
"522 321 CURVE SMOOTH",
"522 130 OFFCURVE",
"458 59 OFFCURVE",
"330 59 CURVE SMOOTH"
);
}
);
width = 659;
}
);
leftKerningGroup = O;
note = Oslash;
rightKerningGroup = O;
unicode = 00D8;
},
{
glyphname = Oslashacute;
lastChange = "2015-08-01 09:24:49 +0000";
layers = (
{
layerId = "C94C01B0-3DB6-4E3E-9BA4-195D35EE6A10";
name = Regular;
paths = (
{
closed = 1;
nodes = (
"214 -43 LINE",
"228 -3 LINE",
"258 -11 OFFCURVE",
"292 -15 OFFCURVE",
"330 -15 CURVE SMOOTH",
"531 -15 OFFCURVE",
"626 97 OFFCURVE",
"626 321 CURVE SMOOTH",
"626 488 OFFCURVE",
"577 595 OFFCURVE",
"466 639 CURVE",
"485 689 LINE",
"430 689 LINE",
"416 653 LINE",
"390 659 OFFCURVE",
"361 662 OFFCURVE",
"330 662 CURVE SMOOTH",
"121 662 OFFCURVE",
"33 545 OFFCURVE",
"33 321 CURVE SMOOTH",
"33 162 OFFCURVE",
"80 60 OFFCURVE",
"180 14 CURVE",
"159 -43 LINE"
);
},
{
closed = 1;
nodes = (
"161 134 OFFCURVE",
"137 205 OFFCURVE",
"137 321 CURVE SMOOTH",
"137 516 OFFCURVE",
"200 588 OFFCURVE",
"330 588 CURVE SMOOTH",
"352 588 OFFCURVE",
"372 585 OFFCURVE",
"390 581 CURVE",
"210 96 LINE"
);
},
{
closed = 1;
nodes = (
"302 59 OFFCURVE",
"277 62 OFFCURVE",
"255 70 CURVE",
"437 561 LINE",
"494 525 OFFCURVE",
"522 450 OFFCURVE",
"522 321 CURVE SMOOTH",
"522 130 OFFCURVE",
"458 59 OFFCURVE",
"330 59 CURVE SMOOTH"
);
},
{
closed = 1;
nodes = (
"374 701 LINE",
"489 880 LINE",
"363 880 LINE",
"284 701 LINE"
);
}
);
width = 659;
}
);
leftKerningGroup = O;
note = Oslashacute;
rightKerningGroup = O;
unicode = 01FE;
},
{
glyphname = Otilde;
lastChange = "2015-08-01 09:24:48 +0000";
layers = (
{
layerId = "C94C01B0-3DB6-4E3E-9BA4-195D35EE6A10";
name = Regular;
paths = (
{
closed = 1;
nodes = (
"531 -15 OFFCURVE",
"626 97 OFFCURVE",
"626 321 CURVE SMOOTH",
"626 545 OFFCURVE",
"538 662 OFFCURVE",
"330 662 CURVE SMOOTH",
"121 662 OFFCURVE",
"33 545 OFFCURVE",
"33 321 CURVE SMOOTH",
"33 97 OFFCURVE",
"128 -15 OFFCURVE",
"330 -15 CURVE SMOOTH"
);
},
{
closed = 1;
nodes = (
"201 59 OFFCURVE",
"137 130 OFFCURVE",
"137 321 CURVE SMOOTH",
"137 516 OFFCURVE",
"200 588 OFFCURVE",
"330 588 CURVE SMOOTH",
"459 588 OFFCURVE",
"522 516 OFFCURVE",
"522 321 CURVE SMOOTH",
"522 130 OFFCURVE",
"458 59 OFFCURVE",
"330 59 CURVE SMOOTH"
);
},
{
closed = 1;
nodes = (
"211 701 LINE",
"211 742 OFFCURVE",
"227 754 OFFCURVE",
"256 754 CURVE SMOOTH",
"308 754 OFFCURVE",
"345 701 OFFCURVE",
"416 701 CURVE SMOOTH",
"489 701 OFFCURVE",
"523 742 OFFCURVE",
"523 838 CURVE",
"445 838 LINE",
"445 797 OFFCURVE",
"430 784 OFFCURVE",
"401 784 CURVE SMOOTH",
"352 784 OFFCURVE",
"314 838 OFFCURVE",
"242 838 CURVE SMOOTH",
"168 838 OFFCURVE",
"133 795 OFFCURVE",
"133 701 CURVE"
);
}
);
width = 659;
}
);
leftKerningGroup = O;
note = Otilde;
rightKerningGroup = O;
unicode = 00D5;
},
{
glyphname = OE;
lastChange = "2015-08-01 09:24:45 +0000";
layers = (
{
layerId = "C94C01B0-3DB6-4E3E-9BA4-195D35EE6A10";
name = Regular;
paths = (
{
closed = 1;
nodes = (
"775 0 LINE",
"775 130 LINE",
"679 130 LINE",
"679 110 LINE SMOOTH",
"679 84 OFFCURVE",
"668 73 OFFCURVE",
"641 73 CURVE SMOOTH",
"484 73 LINE",
"484 287 LINE",
"640 287 LINE",
"640 361 LINE",
"484 361 LINE",
"484 574 LINE",
"641 574 LINE SMOOTH",
"668 574 OFFCURVE",
"679 563 OFFCURVE",
"679 538 CURVE SMOOTH",
"679 518 LINE",
"775 518 LINE",
"775 647 LINE",
"346 647 LINE SMOOTH",
"136 647 OFFCURVE",
"33 546 OFFCURVE",
"33 321 CURVE SMOOTH",
"33 96 OFFCURVE",
"143 0 OFFCURVE",
"346 0 CURVE SMOOTH"
);
},
{
closed = 1;
nodes = (
"208 72 OFFCURVE",
"137 142 OFFCURVE",
"137 321 CURVE SMOOTH",
"137 503 OFFCURVE",
"207 574 OFFCURVE",
"321 574 CURVE SMOOTH",
"378 574 LINE",
"378 72 LINE",
"321 72 LINE SMOOTH"
);
}
);
width = 808;
}
);
leftKerningGroup = C;
note = OE;
unicode = 0152;
},
{
glyphname = P;
lastChange = "2015-08-01 09:24:46 +0000";
layers = (
{
layerId = "C94C01B0-3DB6-4E3E-9BA4-195D35EE6A10";
name = Regular;
paths = (
{
closed = 1;
nodes = (
"270 0 LINE",
"270 73 LINE",
"244 73 LINE SMOOTH",
"214 73 OFFCURVE",
"205 86 OFFCURVE",
"205 110 CURVE SMOOTH",
"205 241 LINE",
"375 241 LINE SMOOTH",
"507 241 OFFCURVE",
"589 320 OFFCURVE",
"589 448 CURVE SMOOTH",
"589 577 OFFCURVE",
"507 647 OFFCURVE",
"376 647 CURVE SMOOTH",
"33 647 LINE",
"33 573 LINE",
"60 573 LINE SMOOTH",
"90 573 OFFCURVE",
"99 561 OFFCURVE",
"99 537 CURVE SMOOTH",
"99 110 LINE SMOOTH",
"99 86 OFFCURVE",
"90 73 OFFCURVE",
"60 73 CURVE SMOOTH",
"33 73 LINE",
"33 0 LINE"
);
},
{
closed = 1;
nodes = (
"205 573 LINE",
"361 573 LINE SMOOTH",
"446 573 OFFCURVE",
"485 543 OFFCURVE",
"485 448 CURVE SMOOTH",
"485 357 OFFCURVE",
"444 315 OFFCURVE",
"361 315 CURVE SMOOTH",
"205 315 LINE"
);
}
);
width = 622;
}
);
note = P;
unicode = 0050;
},
{
glyphname = Thorn;
lastChange = "2015-08-01 09:24:49 +0000";
layers = (
{
layerId = "C94C01B0-3DB6-4E3E-9BA4-195D35EE6A10";
name = Regular;
paths = (
{
closed = 1;
nodes = (
"270 0 LINE",
"270 73 LINE",
"244 73 LINE SMOOTH",
"214 73 OFFCURVE",
"205 84 OFFCURVE",
"205 109 CURVE SMOOTH",
"205 137 LINE",
"375 137 LINE SMOOTH",
"513 137 OFFCURVE",
"588 218 OFFCURVE",
"588 343 CURVE SMOOTH",
"588 480 OFFCURVE",
"513 542 OFFCURVE",
"361 542 CURVE SMOOTH",
"205 542 LINE",
"205 647 LINE",
"33 647 LINE",
"33 574 LINE",
"60 574 LINE SMOOTH",
"90 574 OFFCURVE",
"99 561 OFFCURVE",
"99 537 CURVE SMOOTH",
"99 139 LINE SMOOTH",
"99 101 OFFCURVE",
"101 73 OFFCURVE",
"60 73 CURVE SMOOTH",
"33 73 LINE",
"33 0 LINE"
);
},
{
closed = 1;
nodes = (
"205 468 LINE",
"361 468 LINE SMOOTH",
"446 468 OFFCURVE",
"485 438 OFFCURVE",
"485 343 CURVE SMOOTH",
"485 252 OFFCURVE",
"444 211 OFFCURVE",
"361 211 CURVE SMOOTH",
"205 211 LINE"
);
}
);
width = 621;
}
);
note = Thorn;
unicode = 00DE;
},
{
glyphname = Q;
lastChange = "2015-08-01 09:24:49 +0000";
layers = (
{
layerId = "C94C01B0-3DB6-4E3E-9BA4-195D35EE6A10";
name = Regular;
paths = (
{
closed = 1;
nodes = (
"520 -145 OFFCURVE",
"570 -124 OFFCURVE",
"600 -83 CURVE",
"600 -24 LINE",
"518 -24 LINE",
"518 -51 LINE",
"502 -65 OFFCURVE",
"486 -71 OFFCURVE",
"451 -71 CURVE SMOOTH",
"409 -71 OFFCURVE",
"380 -58 OFFCURVE",
"373 -13 CURVE",
"544 3 OFFCURVE",
"626 129 OFFCURVE",
"626 321 CURVE SMOOTH",
"626 527 OFFCURVE",
"538 661 OFFCURVE",
"330 661 CURVE SMOOTH",
"121 661 OFFCURVE",
"33 527 OFFCURVE",
"33 321 CURVE SMOOTH",
"33 129 OFFCURVE",
"115 2 OFFCURVE",
"288 -13 CURVE",
"299 -83 OFFCURVE",
"347 -145 OFFCURVE",
"450 -145 CURVE SMOOTH"
);
},
{
closed = 1;
nodes = (
"201 59 OFFCURVE",
"137 148 OFFCURVE",
"137 321 CURVE SMOOTH",
"137 498 OFFCURVE",
"200 587 OFFCURVE",
"330 587 CURVE SMOOTH",
"459 587 OFFCURVE",
"522 498 OFFCURVE",
"522 321 CURVE SMOOTH",
"522 148 OFFCURVE",
"458 59 OFFCURVE",
"330 59 CURVE SMOOTH"
);
}
);
width = 659;
}
);
leftKerningGroup = O;
note = Q;
rightKerningGroup = O;
unicode = 0051;
},
{
glyphname = R;
lastChange = "2015-08-01 09:24:48 +0000";
layers = (
{
layerId = "C94C01B0-3DB6-4E3E-9BA4-195D35EE6A10";
name = Regular;
paths = (
{
closed = 1;
nodes = (
"263 0 LINE",
"263 73 LINE",
"240 73 LINE SMOOTH",
"212 73 OFFCURVE",
"205 84 OFFCURVE",
"205 108 CURVE SMOOTH",
"205 259 LINE",
"318 259 LINE",
"418 73 LINE",
"370 73 LINE",
"370 0 LINE",
"589 0 LINE",
"589 73 LINE",
"562 73 LINE SMOOTH",
"534 73 OFFCURVE",
"517 81 OFFCURVE",
"504 105 CURVE SMOOTH",
"416 269 LINE",
"517 288 OFFCURVE",
"573 358 OFFCURVE",
"573 457 CURVE SMOOTH",
"573 580 OFFCURVE",
"493 647 OFFCURVE",
"360 647 CURVE SMOOTH",
"33 647 LINE",
"33 573 LINE",
"60 573 LINE SMOOTH",
"90 573 OFFCURVE",
"99 561 OFFCURVE",
"99 537 CURVE SMOOTH",
"99 110 LINE SMOOTH",
"99 86 OFFCURVE",
"90 73 OFFCURVE",
"60 73 CURVE SMOOTH",
"33 73 LINE",
"33 0 LINE"
);
},
{
closed = 1;
nodes = (
"205 573 LINE",
"344 573 LINE SMOOTH",
"432 573 OFFCURVE",
"470 540 OFFCURVE",
"470 457 CURVE SMOOTH",
"470 378 OFFCURVE",
"430 333 OFFCURVE",
"344 333 CURVE SMOOTH",
"205 333 LINE"
);
}
);
width = 622;
}
);
note = R;
rightKerningGroup = R;
unicode = 0052;
},
{
glyphname = Racute;
lastChange = "2015-08-01 09:24:50 +0000";
layers = (
{
layerId = "C94C01B0-3DB6-4E3E-9BA4-195D35EE6A10";
name = Regular;
paths = (
{
closed = 1;
nodes = (
"263 0 LINE",
"263 73 LINE",
"240 73 LINE SMOOTH",
"212 73 OFFCURVE",
"205 84 OFFCURVE",
"205 108 CURVE SMOOTH",
"205 259 LINE",
"318 259 LINE",
"418 73 LINE",
"370 73 LINE",
"370 0 LINE",
"589 0 LINE",
"589 73 LINE",
"562 73 LINE SMOOTH",
"534 73 OFFCURVE",
"517 81 OFFCURVE",
"504 105 CURVE SMOOTH",
"416 269 LINE",
"517 288 OFFCURVE",
"573 358 OFFCURVE",
"573 457 CURVE SMOOTH",
"573 580 OFFCURVE",
"493 647 OFFCURVE",
"360 647 CURVE SMOOTH",
"33 647 LINE",
"33 573 LINE",
"60 573 LINE SMOOTH",
"90 573 OFFCURVE",
"99 561 OFFCURVE",
"99 537 CURVE SMOOTH",
"99 110 LINE SMOOTH",
"99 86 OFFCURVE",
"90 73 OFFCURVE",
"60 73 CURVE SMOOTH",
"33 73 LINE",
"33 0 LINE"
);
},
{
closed = 1;
nodes = (
"205 573 LINE",
"344 573 LINE SMOOTH",
"432 573 OFFCURVE",
"470 540 OFFCURVE",
"470 457 CURVE SMOOTH",
"470 378 OFFCURVE",
"430 333 OFFCURVE",
"344 333 CURVE SMOOTH",
"205 333 LINE"
);
},
{
closed = 1;
nodes = (
"312 701 LINE",
"426 880 LINE",
"301 880 LINE",
"221 701 LINE"
);
}
);
width = 622;
}
);
note = Racute;
rightKerningGroup = R;
unicode = 0154;
},
{
glyphname = Rcaron;
lastChange = "2015-08-01 09:24:49 +0000";
layers = (
{
layerId = "C94C01B0-3DB6-4E3E-9BA4-195D35EE6A10";
name = Regular;
paths = (
{
closed = 1;
nodes = (
"263 0 LINE",
"263 73 LINE",
"240 73 LINE SMOOTH",
"212 73 OFFCURVE",
"205 84 OFFCURVE",
"205 108 CURVE SMOOTH",
"205 259 LINE",
"318 259 LINE",
"418 73 LINE",
"370 73 LINE",
"370 0 LINE",
"589 0 LINE",
"589 73 LINE",
"562 73 LINE SMOOTH",
"534 73 OFFCURVE",
"517 81 OFFCURVE",
"504 105 CURVE SMOOTH",
"416 269 LINE",
"517 288 OFFCURVE",
"573 358 OFFCURVE",
"573 457 CURVE SMOOTH",
"573 580 OFFCURVE",
"493 647 OFFCURVE",
"360 647 CURVE SMOOTH",
"33 647 LINE",
"33 573 LINE",
"60 573 LINE SMOOTH",
"90 573 OFFCURVE",
"99 561 OFFCURVE",
"99 537 CURVE SMOOTH",
"99 110 LINE SMOOTH",
"99 86 OFFCURVE",
"90 73 OFFCURVE",
"60 73 CURVE SMOOTH",
"33 73 LINE",
"33 0 LINE"
);
},
{
closed = 1;
nodes = (
"205 573 LINE",
"344 573 LINE SMOOTH",
"432 573 OFFCURVE",
"470 540 OFFCURVE",
"470 457 CURVE SMOOTH",
"470 378 OFFCURVE",
"430 333 OFFCURVE",
"344 333 CURVE SMOOTH",
"205 333 LINE"
);
},
{
closed = 1;
nodes = (
"353 701 LINE",
"478 889 LINE",
"378 889 LINE",
"301 763 LINE",
"224 889 LINE",
"125 889 LINE",
"250 701 LINE"
);
}
);
width = 622;
}
);
note = Rcaron;
rightKerningGroup = R;
unicode = 0158;
},
{
glyphname = Rcommaaccent;
lastChange = "2015-08-01 09:24:47 +0000";
layers = (
{
layerId = "C94C01B0-3DB6-4E3E-9BA4-195D35EE6A10";
name = Regular;
paths = (
{
closed = 1;
nodes = (
"263 0 LINE",
"263 73 LINE",
"240 73 LINE SMOOTH",
"212 73 OFFCURVE",
"205 84 OFFCURVE",
"205 108 CURVE SMOOTH",
"205 259 LINE",
"318 259 LINE",
"418 73 LINE",
"370 73 LINE",
"370 0 LINE",
"589 0 LINE",
"589 73 LINE",
"562 73 LINE SMOOTH",
"534 73 OFFCURVE",
"517 81 OFFCURVE",
"504 105 CURVE SMOOTH",
"416 269 LINE",
"517 288 OFFCURVE",
"573 358 OFFCURVE",
"573 457 CURVE SMOOTH",
"573 580 OFFCURVE",
"493 647 OFFCURVE",
"360 647 CURVE SMOOTH",
"33 647 LINE",
"33 573 LINE",
"60 573 LINE SMOOTH",
"90 573 OFFCURVE",
"99 561 OFFCURVE",
"99 537 CURVE SMOOTH",
"99 110 LINE SMOOTH",
"99 86 OFFCURVE",
"90 73 OFFCURVE",
"60 73 CURVE SMOOTH",
"33 73 LINE",
"33 0 LINE"
);
},
{
closed = 1;
nodes = (
"339 -253 LINE",
"401 -49 LINE",
"285 -49 LINE",
"254 -253 LINE"
);
},
{
closed = 1;
nodes = (
"205 573 LINE",
"344 573 LINE SMOOTH",
"432 573 OFFCURVE",
"470 540 OFFCURVE",
"470 457 CURVE SMOOTH",
"470 378 OFFCURVE",
"430 333 OFFCURVE",
"344 333 CURVE SMOOTH",
"205 333 LINE"
);
}
);
width = 622;
}
);
note = Rcommaaccent;
rightKerningGroup = R;
unicode = 0156;
},
{
glyphname = Rdotbelow;
lastChange = "2015-08-01 09:24:49 +0000";
layers = (
{
layerId = "C94C01B0-3DB6-4E3E-9BA4-195D35EE6A10";
name = Regular;
paths = (
{
closed = 1;
nodes = (
"263 0 LINE",
"263 73 LINE",
"240 73 LINE SMOOTH",
"212 73 OFFCURVE",
"205 84 OFFCURVE",
"205 108 CURVE SMOOTH",
"205 259 LINE",
"318 259 LINE",
"418 73 LINE",
"370 73 LINE",
"370 0 LINE",
"589 0 LINE",
"589 73 LINE",
"562 73 LINE SMOOTH",
"534 73 OFFCURVE",
"517 81 OFFCURVE",
"504 105 CURVE SMOOTH",
"416 269 LINE",
"517 288 OFFCURVE",
"573 358 OFFCURVE",
"573 457 CURVE SMOOTH",
"573 580 OFFCURVE",
"493 647 OFFCURVE",
"360 647 CURVE SMOOTH",
"33 647 LINE",
"33 573 LINE",
"60 573 LINE SMOOTH",
"90 573 OFFCURVE",
"99 561 OFFCURVE",
"99 537 CURVE SMOOTH",
"99 110 LINE SMOOTH",
"99 86 OFFCURVE",
"90 73 OFFCURVE",
"60 73 CURVE SMOOTH",
"33 73 LINE",
"33 0 LINE"
);
},
{
closed = 1;
nodes = (
"351 -158 LINE",
"351 -62 LINE",
"259 -62 LINE",
"259 -158 LINE"
);
},
{
closed = 1;
nodes = (
"205 573 LINE",
"344 573 LINE SMOOTH",
"432 573 OFFCURVE",
"470 540 OFFCURVE",
"470 457 CURVE SMOOTH",
"470 378 OFFCURVE",
"430 333 OFFCURVE",
"344 333 CURVE SMOOTH",
"205 333 LINE"
);
}
);
width = 622;
}
);
note = Rdotbelow;
rightKerningGroup = R;
unicode = 1E5A;
},
{
glyphname = Rdotbelowmacron;
lastChange = "2015-08-01 09:24:48 +0000";
layers = (
{
layerId = "C94C01B0-3DB6-4E3E-9BA4-195D35EE6A10";
name = Regular;
paths = (
{
closed = 1;
nodes = (
"263 0 LINE",
"263 73 LINE",
"240 73 LINE SMOOTH",
"212 73 OFFCURVE",
"205 84 OFFCURVE",
"205 108 CURVE SMOOTH",
"205 259 LINE",
"318 259 LINE",
"418 73 LINE",
"370 73 LINE",
"370 0 LINE",
"589 0 LINE",
"589 73 LINE",
"562 73 LINE SMOOTH",
"534 73 OFFCURVE",
"517 81 OFFCURVE",
"504 105 CURVE SMOOTH",
"416 269 LINE",
"517 288 OFFCURVE",
"573 358 OFFCURVE",
"573 457 CURVE SMOOTH",
"573 580 OFFCURVE",
"493 647 OFFCURVE",
"360 647 CURVE SMOOTH",
"33 647 LINE",
"33 573 LINE",
"60 573 LINE SMOOTH",
"90 573 OFFCURVE",
"99 561 OFFCURVE",
"99 537 CURVE SMOOTH",
"99 110 LINE SMOOTH",
"99 86 OFFCURVE",
"90 73 OFFCURVE",
"60 73 CURVE SMOOTH",
"33 73 LINE",
"33 0 LINE"
);
},
{
closed = 1;
nodes = (
"343 -158 LINE",
"343 -62 LINE",
"251 -62 LINE",
"251 -158 LINE"
);
},
{
closed = 1;
nodes = (
"205 573 LINE",
"344 573 LINE SMOOTH",
"432 573 OFFCURVE",
"470 540 OFFCURVE",
"470 457 CURVE SMOOTH",
"470 378 OFFCURVE",
"430 333 OFFCURVE",
"344 333 CURVE SMOOTH",
"205 333 LINE"
);
},
{
closed = 1;
nodes = (
"434 721 LINE",
"434 790 LINE",
"145 790 LINE",
"145 721 LINE"
);
}
);
width = 622;
}
);
note = Rdotbelowmacron;
rightKerningGroup = R;
unicode = 1E5C;
},
{
glyphname = Rlinebelow;
lastChange = "2015-08-01 09:24:47 +0000";
layers = (
{
layerId = "C94C01B0-3DB6-4E3E-9BA4-195D35EE6A10";
name = Regular;
paths = (
{
closed = 1;
nodes = (
"263 0 LINE",
"263 73 LINE",
"240 73 LINE SMOOTH",
"212 73 OFFCURVE",
"205 84 OFFCURVE",
"205 108 CURVE SMOOTH",
"205 259 LINE",
"318 259 LINE",
"418 73 LINE",
"370 73 LINE",
"370 0 LINE",
"589 0 LINE",
"589 73 LINE",
"562 73 LINE SMOOTH",
"534 73 OFFCURVE",
"517 81 OFFCURVE",
"504 105 CURVE SMOOTH",
"416 269 LINE",
"517 288 OFFCURVE",
"573 358 OFFCURVE",
"573 457 CURVE SMOOTH",
"573 580 OFFCURVE",
"493 647 OFFCURVE",
"360 647 CURVE SMOOTH",
"33 647 LINE",
"33 573 LINE",
"60 573 LINE SMOOTH",
"90 573 OFFCURVE",
"99 561 OFFCURVE",
"99 537 CURVE SMOOTH",
"99 110 LINE SMOOTH",
"99 86 OFFCURVE",
"90 73 OFFCURVE",
"60 73 CURVE SMOOTH",
"33 73 LINE",
"33 0 LINE"
);
},
{
closed = 1;
nodes = (
"445 -132 LINE",
"445 -63 LINE",
"156 -63 LINE",
"156 -132 LINE"
);
},
{
closed = 1;
nodes = (
"205 573 LINE",
"344 573 LINE SMOOTH",
"432 573 OFFCURVE",
"470 540 OFFCURVE",
"470 457 CURVE SMOOTH",
"470 378 OFFCURVE",
"430 333 OFFCURVE",
"344 333 CURVE SMOOTH",
"205 333 LINE"
);
}
);
width = 622;
}
);
note = Rlinebelow;
rightKerningGroup = R;
unicode = 1E5E;
},
{
glyphname = S;
lastChange = "2015-08-01 09:24:47 +0000";
layers = (
{
layerId = "C94C01B0-3DB6-4E3E-9BA4-195D35EE6A10";
name = Regular;
paths = (
{
closed = 1;
nodes = (
"422 -15 OFFCURVE",
"501 61 OFFCURVE",
"501 161 CURVE SMOOTH",
"501 278 OFFCURVE",
"420 314 OFFCURVE",
"295 364 CURVE SMOOTH",
"220 394 OFFCURVE",
"142 420 OFFCURVE",
"142 493 CURVE SMOOTH",
"142 562 OFFCURVE",
"194 588 OFFCURVE",
"266 588 CURVE SMOOTH",
"311 588 OFFCURVE",
"353 579 OFFCURVE",
"382 562 CURVE",
"382 500 LINE",
"489 500 LINE",
"489 593 LINE",
"440 631 OFFCURVE",
"365 662 OFFCURVE",
"271 662 CURVE SMOOTH",
"142 662 OFFCURVE",
"39 608 OFFCURVE",
"39 490 CURVE SMOOTH",
"39 385 OFFCURVE",
"118 339 OFFCURVE",
"252 287 CURVE SMOOTH",
"343 251 OFFCURVE",
"398 225 OFFCURVE",
"398 157 CURVE SMOOTH",
"398 94 OFFCURVE",
"356 59 OFFCURVE",
"276 59 CURVE SMOOTH",
"225 59 OFFCURVE",
"173 72 OFFCURVE",
"140 92 CURVE",
"140 157 LINE",
"33 157 LINE",
"33 59 LINE",
"91 15 OFFCURVE",
"179 -15 OFFCURVE",
"274 -15 CURVE SMOOTH"
);
}
);
width = 534;
}
);
leftKerningGroup = dollar;
note = S;
rightKerningGroup = dollar;
unicode = 0053;
},
{
glyphname = Sacute;
lastChange = "2015-08-01 09:24:44 +0000";
layers = (
{
layerId = "C94C01B0-3DB6-4E3E-9BA4-195D35EE6A10";
name = Regular;
paths = (
{
closed = 1;
nodes = (
"422 -15 OFFCURVE",
"501 61 OFFCURVE",
"501 161 CURVE SMOOTH",
"501 278 OFFCURVE",
"420 314 OFFCURVE",
"295 364 CURVE SMOOTH",
"220 394 OFFCURVE",
"142 420 OFFCURVE",
"142 493 CURVE SMOOTH",
"142 562 OFFCURVE",
"194 588 OFFCURVE",
"266 588 CURVE SMOOTH",
"311 588 OFFCURVE",
"353 579 OFFCURVE",
"382 562 CURVE",
"382 500 LINE",
"489 500 LINE",
"489 593 LINE",
"440 631 OFFCURVE",
"365 662 OFFCURVE",
"271 662 CURVE SMOOTH",
"142 662 OFFCURVE",
"39 608 OFFCURVE",
"39 490 CURVE SMOOTH",
"39 385 OFFCURVE",
"118 339 OFFCURVE",
"252 287 CURVE SMOOTH",
"343 251 OFFCURVE",
"398 225 OFFCURVE",
"398 157 CURVE SMOOTH",
"398 94 OFFCURVE",
"356 59 OFFCURVE",
"276 59 CURVE SMOOTH",
"225 59 OFFCURVE",
"173 72 OFFCURVE",
"140 92 CURVE",
"140 157 LINE",
"33 157 LINE",
"33 59 LINE",
"91 15 OFFCURVE",
"179 -15 OFFCURVE",
"274 -15 CURVE SMOOTH"
);
},
{
closed = 1;
nodes = (
"294 701 LINE",
"408 880 LINE",
"283 880 LINE",
"203 701 LINE"
);
}
);
width = 534;
}
);
leftKerningGroup = dollar;
note = Sacute;
rightKerningGroup = dollar;
unicode = 015A;
},
{
glyphname = Scaron;
lastChange = "2015-08-01 09:24:50 +0000";
layers = (
{
layerId = "C94C01B0-3DB6-4E3E-9BA4-195D35EE6A10";
name = Regular;
paths = (
{
closed = 1;
nodes = (
"422 -15 OFFCURVE",
"501 61 OFFCURVE",
"501 161 CURVE SMOOTH",
"501 278 OFFCURVE",
"420 314 OFFCURVE",
"295 364 CURVE SMOOTH",
"220 394 OFFCURVE",
"142 420 OFFCURVE",
"142 493 CURVE SMOOTH",
"142 562 OFFCURVE",
"194 588 OFFCURVE",
"266 588 CURVE SMOOTH",
"311 588 OFFCURVE",
"353 579 OFFCURVE",
"382 562 CURVE",
"382 500 LINE",
"489 500 LINE",
"489 593 LINE",
"440 631 OFFCURVE",
"365 662 OFFCURVE",
"271 662 CURVE SMOOTH",
"142 662 OFFCURVE",
"39 608 OFFCURVE",
"39 490 CURVE SMOOTH",
"39 385 OFFCURVE",
"118 339 OFFCURVE",
"252 287 CURVE SMOOTH",
"343 251 OFFCURVE",
"398 225 OFFCURVE",
"398 157 CURVE SMOOTH",
"398 94 OFFCURVE",
"356 59 OFFCURVE",
"276 59 CURVE SMOOTH",
"225 59 OFFCURVE",
"173 72 OFFCURVE",
"140 92 CURVE",
"140 157 LINE",
"33 157 LINE",
"33 59 LINE",
"91 15 OFFCURVE",
"179 -15 OFFCURVE",
"274 -15 CURVE SMOOTH"
);
},
{
closed = 1;
nodes = (
"325 701 LINE",
"450 889 LINE",
"350 889 LINE",
"273 763 LINE",
"196 889 LINE",
"97 889 LINE",
"222 701 LINE"
);
}
);
width = 534;
}
);
leftKerningGroup = dollar;
note = Scaron;
rightKerningGroup = dollar;
unicode = 0160;
},
{
glyphname = Scedilla;
lastChange = "2015-08-01 09:24:44 +0000";
layers = (
{
layerId = "C94C01B0-3DB6-4E3E-9BA4-195D35EE6A10";
name = Regular;
paths = (
{
closed = 1;
nodes = (
"422 -15 OFFCURVE",
"501 61 OFFCURVE",
"501 161 CURVE SMOOTH",
"501 278 OFFCURVE",
"420 314 OFFCURVE",
"295 364 CURVE SMOOTH",
"220 394 OFFCURVE",
"142 420 OFFCURVE",
"142 493 CURVE SMOOTH",
"142 562 OFFCURVE",
"194 588 OFFCURVE",
"266 588 CURVE SMOOTH",
"311 588 OFFCURVE",
"353 579 OFFCURVE",
"382 562 CURVE",
"382 500 LINE",
"489 500 LINE",
"489 593 LINE",
"440 631 OFFCURVE",
"365 662 OFFCURVE",
"271 662 CURVE SMOOTH",
"142 662 OFFCURVE",
"39 608 OFFCURVE",
"39 490 CURVE SMOOTH",
"39 385 OFFCURVE",
"118 339 OFFCURVE",
"252 287 CURVE SMOOTH",
"343 251 OFFCURVE",
"398 225 OFFCURVE",
"398 157 CURVE SMOOTH",
"398 94 OFFCURVE",
"356 59 OFFCURVE",
"276 59 CURVE SMOOTH",
"225 59 OFFCURVE",
"173 72 OFFCURVE",
"140 92 CURVE",
"140 157 LINE",
"33 157 LINE",
"33 59 LINE",
"91 15 OFFCURVE",
"179 -15 OFFCURVE",
"274 -15 CURVE SMOOTH"
);
},
{
closed = 1;
nodes = (
"344 -228 OFFCURVE",
"388 -194 OFFCURVE",
"388 -133 CURVE SMOOTH",
"388 -86 OFFCURVE",
"367 -56 OFFCURVE",
"308 -46 CURVE",
"315 0 LINE",
"220 0 LINE",
"208 -82 LINE",
"284 -82 OFFCURVE",
"299 -97 OFFCURVE",
"299 -130 CURVE SMOOTH",
"299 -154 OFFCURVE",
"281 -166 OFFCURVE",
"243 -166 CURVE SMOOTH",
"220 -166 OFFCURVE",
"196 -161 OFFCURVE",
"177 -153 CURVE",
"177 -215 LINE",
"201 -224 OFFCURVE",
"224 -228 OFFCURVE",
"252 -228 CURVE SMOOTH"
);
}
);
width = 534;
}
);
leftKerningGroup = dollar;
note = Scedilla;
rightKerningGroup = dollar;
unicode = 015E;
},
{
glyphname = Scircumflex;
lastChange = "2015-08-01 09:24:51 +0000";
layers = (
{
layerId = "C94C01B0-3DB6-4E3E-9BA4-195D35EE6A10";
name = Regular;
paths = (
{
closed = 1;
nodes = (
"422 -15 OFFCURVE",
"501 61 OFFCURVE",
"501 161 CURVE SMOOTH",
"501 278 OFFCURVE",
"420 314 OFFCURVE",
"295 364 CURVE SMOOTH",
"220 394 OFFCURVE",
"142 420 OFFCURVE",
"142 493 CURVE SMOOTH",
"142 562 OFFCURVE",
"194 588 OFFCURVE",
"266 588 CURVE SMOOTH",
"311 588 OFFCURVE",
"353 579 OFFCURVE",
"382 562 CURVE",
"382 500 LINE",
"489 500 LINE",
"489 593 LINE",
"440 631 OFFCURVE",
"365 662 OFFCURVE",
"271 662 CURVE SMOOTH",
"142 662 OFFCURVE",
"39 608 OFFCURVE",
"39 490 CURVE SMOOTH",
"39 385 OFFCURVE",
"118 339 OFFCURVE",
"252 287 CURVE SMOOTH",
"343 251 OFFCURVE",
"398 225 OFFCURVE",
"398 157 CURVE SMOOTH",
"398 94 OFFCURVE",
"356 59 OFFCURVE",
"276 59 CURVE SMOOTH",
"225 59 OFFCURVE",
"173 72 OFFCURVE",
"140 92 CURVE",
"140 157 LINE",
"33 157 LINE",
"33 59 LINE",
"91 15 OFFCURVE",
"179 -15 OFFCURVE",
"274 -15 CURVE SMOOTH"
);
},
{
closed = 1;
nodes = (
"193 701 LINE",
"270 827 LINE",
"347 701 LINE",
"447 701 LINE",
"322 889 LINE",
"219 889 LINE",
"94 701 LINE"
);
}
);
width = 534;
}
);
leftKerningGroup = dollar;
note = Scircumflex;
rightKerningGroup = dollar;
unicode = 015C;
},
{
glyphname = Scommaaccent;
lastChange = "2015-08-01 09:24:49 +0000";
layers = (
{
layerId = "C94C01B0-3DB6-4E3E-9BA4-195D35EE6A10";
name = Regular;
paths = (
{
closed = 1;
nodes = (
"422 -15 OFFCURVE",
"501 61 OFFCURVE",
"501 161 CURVE SMOOTH",
"501 278 OFFCURVE",
"420 314 OFFCURVE",
"295 364 CURVE SMOOTH",
"220 394 OFFCURVE",
"142 420 OFFCURVE",
"142 493 CURVE SMOOTH",
"142 562 OFFCURVE",
"194 588 OFFCURVE",
"266 588 CURVE SMOOTH",
"311 588 OFFCURVE",
"353 579 OFFCURVE",
"382 562 CURVE",
"382 500 LINE",
"489 500 LINE",
"489 593 LINE",
"440 631 OFFCURVE",
"365 662 OFFCURVE",
"271 662 CURVE SMOOTH",
"142 662 OFFCURVE",
"39 608 OFFCURVE",
"39 490 CURVE SMOOTH",
"39 385 OFFCURVE",
"118 339 OFFCURVE",
"252 287 CURVE SMOOTH",
"343 251 OFFCURVE",
"398 225 OFFCURVE",
"398 157 CURVE SMOOTH",
"398 94 OFFCURVE",
"356 59 OFFCURVE",
"276 59 CURVE SMOOTH",
"225 59 OFFCURVE",
"173 72 OFFCURVE",
"140 92 CURVE",
"140 157 LINE",
"33 157 LINE",
"33 59 LINE",
"91 15 OFFCURVE",
"179 -15 OFFCURVE",
"274 -15 CURVE SMOOTH"
);
},
{
closed = 1;
nodes = (
"250 -244 LINE",
"345 -49 LINE",
"212 -49 LINE",
"151 -244 LINE"
);
}
);
width = 534;
}
);
leftKerningGroup = dollar;
note = Scommaaccent;
rightKerningGroup = dollar;
unicode = 0218;
},
{
glyphname = Sdotaccent;
lastChange = "2015-08-01 09:24:48 +0000";
layers = (
{
layerId = "C94C01B0-3DB6-4E3E-9BA4-195D35EE6A10";
name = Regular;
paths = (
{
closed = 1;
nodes = (
"422 -15 OFFCURVE",
"501 61 OFFCURVE",
"501 161 CURVE SMOOTH",
"501 278 OFFCURVE",
"420 314 OFFCURVE",
"295 364 CURVE SMOOTH",
"220 394 OFFCURVE",
"142 420 OFFCURVE",
"142 493 CURVE SMOOTH",
"142 562 OFFCURVE",
"194 588 OFFCURVE",
"266 588 CURVE SMOOTH",
"311 588 OFFCURVE",
"353 579 OFFCURVE",
"382 562 CURVE",
"382 500 LINE",
"489 500 LINE",
"489 593 LINE",
"440 631 OFFCURVE",
"365 662 OFFCURVE",
"271 662 CURVE SMOOTH",
"142 662 OFFCURVE",
"39 608 OFFCURVE",
"39 490 CURVE SMOOTH",
"39 385 OFFCURVE",
"118 339 OFFCURVE",
"252 287 CURVE SMOOTH",
"343 251 OFFCURVE",
"398 225 OFFCURVE",
"398 157 CURVE SMOOTH",
"398 94 OFFCURVE",
"356 59 OFFCURVE",
"276 59 CURVE SMOOTH",
"225 59 OFFCURVE",
"173 72 OFFCURVE",
"140 92 CURVE",
"140 157 LINE",
"33 157 LINE",
"33 59 LINE",
"91 15 OFFCURVE",
"179 -15 OFFCURVE",
"274 -15 CURVE SMOOTH"
);
},
{
closed = 1;
nodes = (
"316 720 LINE",
"316 816 LINE",
"224 816 LINE",
"224 720 LINE"
);
}
);
width = 534;
}
);
leftKerningGroup = dollar;
note = Sdotaccent;
rightKerningGroup = dollar;
unicode = 1E60;
},
{
glyphname = Sdotbelow;
lastChange = "2015-08-01 09:24:50 +0000";
layers = (
{
layerId = "C94C01B0-3DB6-4E3E-9BA4-195D35EE6A10";
name = Regular;
paths = (
{
closed = 1;
nodes = (
"422 -15 OFFCURVE",
"501 61 OFFCURVE",
"501 161 CURVE SMOOTH",
"501 278 OFFCURVE",
"420 314 OFFCURVE",
"295 364 CURVE SMOOTH",
"220 394 OFFCURVE",
"142 420 OFFCURVE",
"142 493 CURVE SMOOTH",
"142 562 OFFCURVE",
"194 588 OFFCURVE",
"266 588 CURVE SMOOTH",
"311 588 OFFCURVE",
"353 579 OFFCURVE",
"382 562 CURVE",
"382 500 LINE",
"489 500 LINE",
"489 593 LINE",
"440 631 OFFCURVE",
"365 662 OFFCURVE",
"271 662 CURVE SMOOTH",
"142 662 OFFCURVE",
"39 608 OFFCURVE",
"39 490 CURVE SMOOTH",
"39 385 OFFCURVE",
"118 339 OFFCURVE",
"252 287 CURVE SMOOTH",
"343 251 OFFCURVE",
"398 225 OFFCURVE",
"398 157 CURVE SMOOTH",
"398 94 OFFCURVE",
"356 59 OFFCURVE",
"276 59 CURVE SMOOTH",
"225 59 OFFCURVE",
"173 72 OFFCURVE",
"140 92 CURVE",
"140 157 LINE",
"33 157 LINE",
"33 59 LINE",
"91 15 OFFCURVE",
"179 -15 OFFCURVE",
"274 -15 CURVE SMOOTH"
);
},
{
closed = 1;
nodes = (
"304 -158 LINE",
"304 -62 LINE",
"212 -62 LINE",
"212 -158 LINE"
);
}
);
width = 534;
}
);
leftKerningGroup = dollar;
note = Sdotbelow;
rightKerningGroup = dollar;
unicode = 1E62;
},
{
glyphname = Germandbls;
lastChange = "2015-08-01 09:24:31 +0000";
layers = (
{
layerId = "C94C01B0-3DB6-4E3E-9BA4-195D35EE6A10";
name = Regular;
paths = (
{
closed = 1;
nodes = (
"567 -15 OFFCURVE",
"630 71 OFFCURVE",
"630 185 CURVE SMOOTH",
"630 307 OFFCURVE",
"579 371 OFFCURVE",
"447 377 CURVE",
"570 524 LINE",
"570 609 OFFCURVE",
"493 690 OFFCURVE",
"341 690 CURVE SMOOTH",
"153 690 OFFCURVE",
"82 589 OFFCURVE",
"82 457 CURVE SMOOTH",
"82 141 LINE SMOOTH",
"82 98 OFFCURVE",
"84 72 OFFCURVE",
"48 72 CURVE SMOOTH",
"23 72 LINE",
"23 0 LINE",
"190 0 LINE",
"190 457 LINE SMOOTH",
"190 561 OFFCURVE",
"233 616 OFFCURVE",
"339 616 CURVE SMOOTH",
"419 616 OFFCURVE",
"463 578 OFFCURVE",
"463 542 CURVE",
"316 361 LINE",
"316 306 LINE",
"408 306 LINE SMOOTH",
"490 306 OFFCURVE",
"526 274 OFFCURVE",
"526 184 CURVE SMOOTH",
"526 104 OFFCURVE",
"492 57 OFFCURVE",
"420 57 CURVE SMOOTH",
"381 57 OFFCURVE",
"351 62 OFFCURVE",
"316 81 CURVE",
"281 20 LINE",
"325 -6 OFFCURVE",
"377 -15 OFFCURVE",
"427 -15 CURVE SMOOTH"
);
}
);
width = 663;
}
);
note = uni1E9E;
unicode = 1E9E;
},
{
glyphname = Schwa;
lastChange = "2015-08-01 09:24:47 +0000";
layers = (
{
layerId = "C94C01B0-3DB6-4E3E-9BA4-195D35EE6A10";
name = Regular;
paths = (
{
closed = 1;
nodes = (
"537 -15 OFFCURVE",
"643 106 OFFCURVE",
"643 335 CURVE SMOOTH",
"643 562 OFFCURVE",
"507 662 OFFCURVE",
"328 662 CURVE SMOOTH",
"216 662 OFFCURVE",
"127 639 OFFCURVE",
"55 585 CURVE",
"55 493 LINE",
"162 493 LINE",
"162 557 LINE",
"199 577 OFFCURVE",
"254 588 OFFCURVE",
"328 588 CURVE SMOOTH",
"452 588 OFFCURVE",
"539 514 OFFCURVE",
"539 364 CURVE",
"33 364 LINE",
"33 300 LINE SMOOTH",
"33 118 OFFCURVE",
"128 -15 OFFCURVE",
"334 -15 CURVE SMOOTH"
);
},
{
closed = 1;
nodes = (
"204 59 OFFCURVE",
"142 143 OFFCURVE",
"142 289 CURVE",
"539 289 LINE",
"539 163 OFFCURVE",
"482 59 OFFCURVE",
"334 59 CURVE SMOOTH"
);
}
);
width = 676;
}
);
note = uni018F;
unicode = 018F;
},
{
glyphname = T;
lastChange = "2015-08-01 09:24:47 +0000";
layers = (
{
layerId = "C94C01B0-3DB6-4E3E-9BA4-195D35EE6A10";
name = Regular;
paths = (
{
closed = 1;
nodes = (
"404 0 LINE",
"404 74 LINE",
"377 74 LINE SMOOTH",
"347 74 OFFCURVE",
"338 86 OFFCURVE",
"338 110 CURVE SMOOTH",
"338 572 LINE",
"429 572 LINE SMOOTH",
"457 572 OFFCURVE",
"467 562 OFFCURVE",
"467 536 CURVE SMOOTH",
"467 504 LINE",
"546 504 LINE",
"546 646 LINE",
"23 646 LINE",
"23 504 LINE",
"102 504 LINE",
"102 536 LINE SMOOTH",
"102 562 OFFCURVE",
"113 572 OFFCURVE",
"140 572 CURVE SMOOTH",
"232 572 LINE",
"232 110 LINE SMOOTH",
"232 86 OFFCURVE",
"223 74 OFFCURVE",
"193 74 CURVE SMOOTH",
"166 74 LINE",
"166 0 LINE"
);
}
);
width = 569;
}
);
leftKerningGroup = T;
note = T;
rightKerningGroup = T;
unicode = 0054;
},
{
glyphname = Tbar;
lastChange = "2015-08-01 09:24:51 +0000";
layers = (
{
layerId = "C94C01B0-3DB6-4E3E-9BA4-195D35EE6A10";
name = Regular;
paths = (
{
closed = 1;
nodes = (
"404 0 LINE",
"404 74 LINE",
"377 74 LINE SMOOTH",
"347 74 OFFCURVE",
"338 86 OFFCURVE",
"338 110 CURVE SMOOTH",
"338 572 LINE",
"429 572 LINE SMOOTH",
"457 572 OFFCURVE",
"467 562 OFFCURVE",
"467 536 CURVE SMOOTH",
"467 504 LINE",
"546 504 LINE",
"546 646 LINE",
"23 646 LINE",
"23 504 LINE",
"102 504 LINE",
"102 536 LINE SMOOTH",
"102 562 OFFCURVE",
"113 572 OFFCURVE",
"140 572 CURVE SMOOTH",
"232 572 LINE",
"232 110 LINE SMOOTH",
"232 86 OFFCURVE",
"223 74 OFFCURVE",
"193 74 CURVE SMOOTH",
"166 74 LINE",
"166 0 LINE"
);
},
{
closed = 1;
nodes = (
"464 293 LINE",
"464 362 LINE",
"122 362 LINE",
"122 293 LINE"
);
}
);
width = 569;
}
);
leftKerningGroup = T;
note = Tbar;
rightKerningGroup = T;
unicode = 0166;
},
{
glyphname = Tcaron;
lastChange = "2015-08-01 09:24:48 +0000";
layers = (
{
layerId = "C94C01B0-3DB6-4E3E-9BA4-195D35EE6A10";
name = Regular;
paths = (
{
closed = 1;
nodes = (
"404 0 LINE",
"404 74 LINE",
"377 74 LINE SMOOTH",
"347 74 OFFCURVE",
"338 86 OFFCURVE",
"338 110 CURVE SMOOTH",
"338 572 LINE",
"429 572 LINE SMOOTH",
"457 572 OFFCURVE",
"467 562 OFFCURVE",
"467 536 CURVE SMOOTH",
"467 504 LINE",
"546 504 LINE",
"546 646 LINE",
"23 646 LINE",
"23 504 LINE",
"102 504 LINE",
"102 536 LINE SMOOTH",
"102 562 OFFCURVE",
"113 572 OFFCURVE",
"140 572 CURVE SMOOTH",
"232 572 LINE",
"232 110 LINE SMOOTH",
"232 86 OFFCURVE",
"223 74 OFFCURVE",
"193 74 CURVE SMOOTH",
"166 74 LINE",
"166 0 LINE"
);
},
{
closed = 1;
nodes = (
"336 701 LINE",
"461 889 LINE",
"361 889 LINE",
"284 763 LINE",
"207 889 LINE",
"108 889 LINE",
"233 701 LINE"
);
}
);
width = 569;
}
);
leftKerningGroup = T;
note = Tcaron;
rightKerningGroup = T;
unicode = 0164;
},
{
glyphname = Tcedilla;
lastChange = "2015-08-01 09:24:49 +0000";
layers = (
{
layerId = "C94C01B0-3DB6-4E3E-9BA4-195D35EE6A10";
name = Regular;
paths = (
{
closed = 1;
nodes = (
"404 0 LINE",
"404 74 LINE",
"377 74 LINE SMOOTH",
"347 74 OFFCURVE",
"338 86 OFFCURVE",
"338 110 CURVE SMOOTH",
"338 572 LINE",
"429 572 LINE SMOOTH",
"457 572 OFFCURVE",
"467 562 OFFCURVE",
"467 536 CURVE SMOOTH",
"467 504 LINE",
"546 504 LINE",
"546 646 LINE",
"23 646 LINE",
"23 504 LINE",
"102 504 LINE",
"102 536 LINE SMOOTH",
"102 562 OFFCURVE",
"113 572 OFFCURVE",
"140 572 CURVE SMOOTH",
"232 572 LINE",
"232 110 LINE SMOOTH",
"232 86 OFFCURVE",
"223 74 OFFCURVE",
"193 74 CURVE SMOOTH",
"166 74 LINE",
"166 0 LINE"
);
},
{
closed = 1;
nodes = (
"343 -228 OFFCURVE",
"388 -194 OFFCURVE",
"388 -133 CURVE SMOOTH",
"388 -86 OFFCURVE",
"366 -56 OFFCURVE",
"307 -46 CURVE",
"314 0 LINE",
"219 0 LINE",
"207 -82 LINE",
"283 -82 OFFCURVE",
"299 -97 OFFCURVE",
"299 -130 CURVE SMOOTH",
"299 -154 OFFCURVE",
"280 -166 OFFCURVE",
"242 -166 CURVE SMOOTH",
"219 -166 OFFCURVE",
"195 -161 OFFCURVE",
"176 -153 CURVE",
"176 -215 LINE",
"200 -224 OFFCURVE",
"223 -228 OFFCURVE",
"252 -228 CURVE SMOOTH"
);
}
);
width = 569;
}
);
leftKerningGroup = T;
note = Tcedilla;
rightKerningGroup = T;
unicode = 0162;
},
{
glyphname = Tcommaaccent;
lastChange = "2015-08-01 09:24:44 +0000";
layers = (
{
layerId = "C94C01B0-3DB6-4E3E-9BA4-195D35EE6A10";
name = Regular;
paths = (
{
closed = 1;
nodes = (
"404 0 LINE",
"404 74 LINE",
"377 74 LINE SMOOTH",
"347 74 OFFCURVE",
"338 86 OFFCURVE",
"338 110 CURVE SMOOTH",
"338 572 LINE",
"429 572 LINE SMOOTH",
"457 572 OFFCURVE",
"467 562 OFFCURVE",
"467 536 CURVE SMOOTH",
"467 504 LINE",
"546 504 LINE",
"546 646 LINE",
"23 646 LINE",
"23 504 LINE",
"102 504 LINE",
"102 536 LINE SMOOTH",
"102 562 OFFCURVE",
"113 572 OFFCURVE",
"140 572 CURVE SMOOTH",
"232 572 LINE",
"232 110 LINE SMOOTH",
"232 86 OFFCURVE",
"223 74 OFFCURVE",
"193 74 CURVE SMOOTH",
"166 74 LINE",
"166 0 LINE"
);
},
{
closed = 1;
nodes = (
"296 -253 LINE",
"358 -49 LINE",
"242 -49 LINE",
"211 -253 LINE"
);
}
);
width = 569;
}
);
leftKerningGroup = T;
note = Tcommaaccent;
rightKerningGroup = T;
unicode = 021A;
},
{
glyphname = Tdotbelow;
lastChange = "2015-08-01 09:24:50 +0000";
layers = (
{
layerId = "C94C01B0-3DB6-4E3E-9BA4-195D35EE6A10";
name = Regular;
paths = (
{
closed = 1;
nodes = (
"404 0 LINE",
"404 74 LINE",
"377 74 LINE SMOOTH",
"347 74 OFFCURVE",
"338 86 OFFCURVE",
"338 110 CURVE SMOOTH",
"338 572 LINE",
"429 572 LINE SMOOTH",
"457 572 OFFCURVE",
"467 562 OFFCURVE",
"467 536 CURVE SMOOTH",
"467 504 LINE",
"546 504 LINE",
"546 646 LINE",
"23 646 LINE",
"23 504 LINE",
"102 504 LINE",
"102 536 LINE SMOOTH",
"102 562 OFFCURVE",
"113 572 OFFCURVE",
"140 572 CURVE SMOOTH",
"232 572 LINE",
"232 110 LINE SMOOTH",
"232 86 OFFCURVE",
"223 74 OFFCURVE",
"193 74 CURVE SMOOTH",
"166 74 LINE",
"166 0 LINE"
);
},
{
closed = 1;
nodes = (
"319 -158 LINE",
"319 -62 LINE",
"227 -62 LINE",
"227 -158 LINE"
);
}
);
width = 569;
}
);
leftKerningGroup = T;
note = Tdotbelow;
rightKerningGroup = T;
unicode = 1E6C;
},
{
glyphname = Tlinebelow;
lastChange = "2015-08-01 09:24:44 +0000";
layers = (
{
layerId = "C94C01B0-3DB6-4E3E-9BA4-195D35EE6A10";
name = Regular;
paths = (
{
closed = 1;
nodes = (
"404 0 LINE",
"404 74 LINE",
"377 74 LINE SMOOTH",
"347 74 OFFCURVE",
"338 86 OFFCURVE",
"338 110 CURVE SMOOTH",
"338 572 LINE",
"429 572 LINE SMOOTH",
"457 572 OFFCURVE",
"467 562 OFFCURVE",
"467 536 CURVE SMOOTH",
"467 504 LINE",
"546 504 LINE",
"546 646 LINE",
"23 646 LINE",
"23 504 LINE",
"102 504 LINE",
"102 536 LINE SMOOTH",
"102 562 OFFCURVE",
"113 572 OFFCURVE",
"140 572 CURVE SMOOTH",
"232 572 LINE",
"232 110 LINE SMOOTH",
"232 86 OFFCURVE",
"223 74 OFFCURVE",
"193 74 CURVE SMOOTH",
"166 74 LINE",
"166 0 LINE"
);
},
{
closed = 1;
nodes = (
"420 -132 LINE",
"420 -63 LINE",
"131 -63 LINE",
"131 -132 LINE"
);
}
);
width = 569;
}
);
leftKerningGroup = T;
note = Tlinebelow;
rightKerningGroup = T;
unicode = 1E6E;
},
{
glyphname = U;
lastChange = "2015-08-01 09:24:51 +0000";
layers = (
{
layerId = "C94C01B0-3DB6-4E3E-9BA4-195D35EE6A10";
name = Regular;
paths = (
{
closed = 1;
nodes = (
"499 -15 OFFCURVE",
"577 65 OFFCURVE",
"577 182 CURVE SMOOTH",
"577 539 LINE SMOOTH",
"577 564 OFFCURVE",
"588 575 OFFCURVE",
"614 575 CURVE SMOOTH",
"638 575 LINE",
"638 647 LINE",
"415 647 LINE",
"415 575 LINE",
"434 575 LINE SMOOTH",
"460 575 OFFCURVE",
"471 564 OFFCURVE",
"471 537 CURVE SMOOTH",
"471 176 LINE SMOOTH",
"471 95 OFFCURVE",
"422 58 OFFCURVE",
"330 58 CURVE SMOOTH",
"237 58 OFFCURVE",
"189 95 OFFCURVE",
"189 176 CURVE SMOOTH",
"189 537 LINE SMOOTH",
"189 564 OFFCURVE",
"199 575 OFFCURVE",
"225 575 CURVE SMOOTH",
"244 575 LINE",
"244 647 LINE",
"23 647 LINE",
"23 575 LINE",
"46 575 LINE SMOOTH",
"73 575 OFFCURVE",
"83 564 OFFCURVE",
"83 539 CURVE SMOOTH",
"83 182 LINE SMOOTH",
"83 65 OFFCURVE",
"160 -15 OFFCURVE",
"330 -15 CURVE SMOOTH"
);
}
);
width = 661;
}
);
leftKerningGroup = U;
note = U;
rightKerningGroup = U;
unicode = 0055;
},
{
glyphname = Uacute;
lastChange = "2015-08-01 09:24:44 +0000";
layers = (
{
layerId = "C94C01B0-3DB6-4E3E-9BA4-195D35EE6A10";
name = Regular;
paths = (
{
closed = 1;
nodes = (
"499 -15 OFFCURVE",
"577 65 OFFCURVE",
"577 182 CURVE SMOOTH",
"577 539 LINE SMOOTH",
"577 564 OFFCURVE",
"588 575 OFFCURVE",
"614 575 CURVE SMOOTH",
"638 575 LINE",
"638 647 LINE",
"415 647 LINE",
"415 575 LINE",
"434 575 LINE SMOOTH",
"460 575 OFFCURVE",
"471 564 OFFCURVE",
"471 537 CURVE SMOOTH",
"471 176 LINE SMOOTH",
"471 95 OFFCURVE",
"422 58 OFFCURVE",
"330 58 CURVE SMOOTH",
"237 58 OFFCURVE",
"189 95 OFFCURVE",
"189 176 CURVE SMOOTH",
"189 537 LINE SMOOTH",
"189 564 OFFCURVE",
"199 575 OFFCURVE",
"225 575 CURVE SMOOTH",
"244 575 LINE",
"244 647 LINE",
"23 647 LINE",
"23 575 LINE",
"46 575 LINE SMOOTH",
"73 575 OFFCURVE",
"83 564 OFFCURVE",
"83 539 CURVE SMOOTH",
"83 182 LINE SMOOTH",
"83 65 OFFCURVE",
"160 -15 OFFCURVE",
"330 -15 CURVE SMOOTH"
);
},
{
closed = 1;
nodes = (
"350 701 LINE",
"464 880 LINE",
"339 880 LINE",
"259 701 LINE"
);
}
);
width = 661;
}
);
leftKerningGroup = U;
note = Uacute;
rightKerningGroup = U;
unicode = 00DA;
},
{
glyphname = Ubreve;
lastChange = "2015-08-01 09:24:49 +0000";
layers = (
{
layerId = "C94C01B0-3DB6-4E3E-9BA4-195D35EE6A10";
name = Regular;
paths = (
{
closed = 1;
nodes = (
"499 -15 OFFCURVE",
"577 65 OFFCURVE",
"577 182 CURVE SMOOTH",
"577 539 LINE SMOOTH",
"577 564 OFFCURVE",
"588 575 OFFCURVE",
"614 575 CURVE SMOOTH",
"638 575 LINE",
"638 647 LINE",
"415 647 LINE",
"415 575 LINE",
"434 575 LINE SMOOTH",
"460 575 OFFCURVE",
"471 564 OFFCURVE",
"471 537 CURVE SMOOTH",
"471 176 LINE SMOOTH",
"471 95 OFFCURVE",
"422 58 OFFCURVE",
"330 58 CURVE SMOOTH",
"237 58 OFFCURVE",
"189 95 OFFCURVE",
"189 176 CURVE SMOOTH",
"189 537 LINE SMOOTH",
"189 564 OFFCURVE",
"199 575 OFFCURVE",
"225 575 CURVE SMOOTH",
"244 575 LINE",
"244 647 LINE",
"23 647 LINE",
"23 575 LINE",
"46 575 LINE SMOOTH",
"73 575 OFFCURVE",
"83 564 OFFCURVE",
"83 539 CURVE SMOOTH",
"83 182 LINE SMOOTH",
"83 65 OFFCURVE",
"160 -15 OFFCURVE",
"330 -15 CURVE SMOOTH"
);
},
{
closed = 1;
nodes = (
"426 701 OFFCURVE",
"488 757 OFFCURVE",
"488 844 CURVE",
"401 844 LINE",
"401 796 OFFCURVE",
"376 769 OFFCURVE",
"329 769 CURVE SMOOTH",
"284 769 OFFCURVE",
"257 796 OFFCURVE",
"257 844 CURVE",
"170 844 LINE",
"170 757 OFFCURVE",
"232 701 OFFCURVE",
"329 701 CURVE SMOOTH"
);
}
);
width = 661;
}
);
leftKerningGroup = U;
note = Ubreve;
rightKerningGroup = U;
unicode = 016C;
},
{
glyphname = Ucaron;
lastChange = "2015-08-01 09:24:49 +0000";
layers = (
{
layerId = "C94C01B0-3DB6-4E3E-9BA4-195D35EE6A10";
name = Regular;
paths = (
{
closed = 1;
nodes = (
"499 -15 OFFCURVE",
"577 65 OFFCURVE",
"577 182 CURVE SMOOTH",
"577 539 LINE SMOOTH",
"577 564 OFFCURVE",
"588 575 OFFCURVE",
"614 575 CURVE SMOOTH",
"638 575 LINE",
"638 647 LINE",
"415 647 LINE",
"415 575 LINE",
"434 575 LINE SMOOTH",
"460 575 OFFCURVE",
"471 564 OFFCURVE",
"471 537 CURVE SMOOTH",
"471 176 LINE SMOOTH",
"471 95 OFFCURVE",
"422 58 OFFCURVE",
"330 58 CURVE SMOOTH",
"237 58 OFFCURVE",
"189 95 OFFCURVE",
"189 176 CURVE SMOOTH",
"189 537 LINE SMOOTH",
"189 564 OFFCURVE",
"199 575 OFFCURVE",
"225 575 CURVE SMOOTH",
"244 575 LINE",
"244 647 LINE",
"23 647 LINE",
"23 575 LINE",
"46 575 LINE SMOOTH",
"73 575 OFFCURVE",
"83 564 OFFCURVE",
"83 539 CURVE SMOOTH",
"83 182 LINE SMOOTH",
"83 65 OFFCURVE",
"160 -15 OFFCURVE",
"330 -15 CURVE SMOOTH"
);
},
{
closed = 1;
nodes = (
"382 701 LINE",
"507 889 LINE",
"407 889 LINE",
"330 763 LINE",
"253 889 LINE",
"154 889 LINE",
"279 701 LINE"
);
}
);
width = 661;
}
);
leftKerningGroup = U;
note = Ucaron;
rightKerningGroup = U;
unicode = 01D3;
},
{
glyphname = Ucircumflex;
lastChange = "2015-08-01 09:24:44 +0000";
layers = (
{
layerId = "C94C01B0-3DB6-4E3E-9BA4-195D35EE6A10";
name = Regular;
paths = (
{
closed = 1;
nodes = (
"499 -15 OFFCURVE",
"577 65 OFFCURVE",
"577 182 CURVE SMOOTH",
"577 539 LINE SMOOTH",
"577 564 OFFCURVE",
"588 575 OFFCURVE",
"614 575 CURVE SMOOTH",
"638 575 LINE",
"638 647 LINE",
"415 647 LINE",
"415 575 LINE",
"434 575 LINE SMOOTH",
"460 575 OFFCURVE",
"471 564 OFFCURVE",
"471 537 CURVE SMOOTH",
"471 176 LINE SMOOTH",
"471 95 OFFCURVE",
"422 58 OFFCURVE",
"330 58 CURVE SMOOTH",
"237 58 OFFCURVE",
"189 95 OFFCURVE",
"189 176 CURVE SMOOTH",
"189 537 LINE SMOOTH",
"189 564 OFFCURVE",
"199 575 OFFCURVE",
"225 575 CURVE SMOOTH",
"244 575 LINE",
"244 647 LINE",
"23 647 LINE",
"23 575 LINE",
"46 575 LINE SMOOTH",
"73 575 OFFCURVE",
"83 564 OFFCURVE",
"83 539 CURVE SMOOTH",
"83 182 LINE SMOOTH",
"83 65 OFFCURVE",
"160 -15 OFFCURVE",
"330 -15 CURVE SMOOTH"
);
},
{
closed = 1;
nodes = (
"253 701 LINE",
"330 827 LINE",
"407 701 LINE",
"507 701 LINE",
"382 889 LINE",
"279 889 LINE",
"154 701 LINE"
);
}
);
width = 661;
}
);
leftKerningGroup = U;
note = Ucircumflex;
rightKerningGroup = U;
unicode = 00DB;
},
{
glyphname = Udieresis;
lastChange = "2015-08-01 09:24:48 +0000";
layers = (
{
layerId = "C94C01B0-3DB6-4E3E-9BA4-195D35EE6A10";
name = Regular;
paths = (
{
closed = 1;
nodes = (
"500 -15 OFFCURVE",
"578 65 OFFCURVE",
"578 182 CURVE SMOOTH",
"578 539 LINE SMOOTH",
"578 564 OFFCURVE",
"589 575 OFFCURVE",
"615 575 CURVE SMOOTH",
"639 575 LINE",
"639 647 LINE",
"416 647 LINE",
"416 575 LINE",
"435 575 LINE SMOOTH",
"461 575 OFFCURVE",
"472 564 OFFCURVE",
"472 537 CURVE SMOOTH",
"472 176 LINE SMOOTH",
"472 95 OFFCURVE",
"423 58 OFFCURVE",
"331 58 CURVE SMOOTH",
"238 58 OFFCURVE",
"190 95 OFFCURVE",
"190 176 CURVE SMOOTH",
"190 537 LINE SMOOTH",
"190 564 OFFCURVE",
"200 575 OFFCURVE",
"226 575 CURVE SMOOTH",
"245 575 LINE",
"245 647 LINE",
"24 647 LINE",
"24 575 LINE",
"47 575 LINE SMOOTH",
"74 575 OFFCURVE",
"84 564 OFFCURVE",
"84 539 CURVE SMOOTH",
"84 182 LINE SMOOTH",
"84 65 OFFCURVE",
"161 -15 OFFCURVE",
"331 -15 CURVE SMOOTH"
);
},
{
closed = 1;
nodes = (
"270 720 LINE",
"270 816 LINE",
"178 816 LINE",
"178 720 LINE"
);
},
{
closed = 1;
nodes = (
"484 720 LINE",
"484 816 LINE",
"391 816 LINE",
"391 720 LINE"
);
}
);
width = 662;
}
);
leftKerningGroup = U;
note = Udieresis;
rightKerningGroup = U;
unicode = 00DC;
},
{
glyphname = Udieresisacute;
lastChange = "2015-08-01 09:24:47 +0000";
layers = (
{
layerId = "C94C01B0-3DB6-4E3E-9BA4-195D35EE6A10";
name = Regular;
paths = (
{
closed = 1;
nodes = (
"499 -15 OFFCURVE",
"577 65 OFFCURVE",
"577 182 CURVE SMOOTH",
"577 539 LINE SMOOTH",
"577 564 OFFCURVE",
"588 575 OFFCURVE",
"614 575 CURVE SMOOTH",
"638 575 LINE",
"638 647 LINE",
"415 647 LINE",
"415 575 LINE",
"434 575 LINE SMOOTH",
"460 575 OFFCURVE",
"471 564 OFFCURVE",
"471 537 CURVE SMOOTH",
"471 176 LINE SMOOTH",
"471 95 OFFCURVE",
"422 58 OFFCURVE",
"330 58 CURVE SMOOTH",
"237 58 OFFCURVE",
"189 95 OFFCURVE",
"189 176 CURVE SMOOTH",
"189 537 LINE SMOOTH",
"189 564 OFFCURVE",
"199 575 OFFCURVE",
"225 575 CURVE SMOOTH",
"244 575 LINE",
"244 647 LINE",
"23 647 LINE",
"23 575 LINE",
"46 575 LINE SMOOTH",
"73 575 OFFCURVE",
"83 564 OFFCURVE",
"83 539 CURVE SMOOTH",
"83 182 LINE SMOOTH",
"83 65 OFFCURVE",
"160 -15 OFFCURVE",
"330 -15 CURVE SMOOTH"
);
},
{
closed = 1;
nodes = (
"271 724 LINE",
"271 820 LINE",
"179 820 LINE",
"179 724 LINE"
);
},
{
closed = 1;
nodes = (
"485 724 LINE",
"485 820 LINE",
"392 820 LINE",
"392 724 LINE"
);
},
{
closed = 1;
nodes = (
"372 841 LINE",
"470 968 LINE",
"357 968 LINE",
"294 841 LINE"
);
}
);
width = 661;
}
);
leftKerningGroup = U;
note = Udieresisacute;
rightKerningGroup = U;
unicode = 01D7;
},
{
glyphname = Udieresiscaron;
lastChange = "2015-08-01 09:24:51 +0000";
layers = (
{
layerId = "C94C01B0-3DB6-4E3E-9BA4-195D35EE6A10";
name = Regular;
paths = (
{
closed = 1;
nodes = (
"499 -15 OFFCURVE",
"577 65 OFFCURVE",
"577 182 CURVE SMOOTH",
"577 539 LINE SMOOTH",
"577 564 OFFCURVE",
"588 575 OFFCURVE",
"614 575 CURVE SMOOTH",
"638 575 LINE",
"638 647 LINE",
"415 647 LINE",
"415 575 LINE",
"434 575 LINE SMOOTH",
"460 575 OFFCURVE",
"471 564 OFFCURVE",
"471 537 CURVE SMOOTH",
"471 176 LINE SMOOTH",
"471 95 OFFCURVE",
"422 58 OFFCURVE",
"330 58 CURVE SMOOTH",
"237 58 OFFCURVE",
"189 95 OFFCURVE",
"189 176 CURVE SMOOTH",
"189 537 LINE SMOOTH",
"189 564 OFFCURVE",
"199 575 OFFCURVE",
"225 575 CURVE SMOOTH",
"244 575 LINE",
"244 647 LINE",
"23 647 LINE",
"23 575 LINE",
"46 575 LINE SMOOTH",
"73 575 OFFCURVE",
"83 564 OFFCURVE",
"83 539 CURVE SMOOTH",
"83 182 LINE SMOOTH",
"83 65 OFFCURVE",
"160 -15 OFFCURVE",
"330 -15 CURVE SMOOTH"
);
},
{
closed = 1;
nodes = (
"268 724 LINE",
"268 820 LINE",
"175 820 LINE",
"175 724 LINE"
);
},
{
closed = 1;
nodes = (
"481 724 LINE",
"481 820 LINE",
"389 820 LINE",
"389 724 LINE"
);
},
{
closed = 1;
nodes = (
"379 841 LINE",
"486 976 LINE",
"392 976 LINE",
"328 891 LINE",
"266 976 LINE",
"172 976 LINE",
"278 841 LINE"
);
}
);
width = 661;
}
);
leftKerningGroup = U;
note = Udieresiscaron;
rightKerningGroup = U;
unicode = 01D9;
},
{
glyphname = Udieresisgrave;
lastChange = "2015-08-01 09:24:47 +0000";
layers = (
{
layerId = "C94C01B0-3DB6-4E3E-9BA4-195D35EE6A10";
name = Regular;
paths = (
{
closed = 1;
nodes = (
"499 -15 OFFCURVE",
"577 65 OFFCURVE",
"577 182 CURVE SMOOTH",
"577 539 LINE SMOOTH",
"577 564 OFFCURVE",
"588 575 OFFCURVE",
"614 575 CURVE SMOOTH",
"638 575 LINE",
"638 647 LINE",
"415 647 LINE",
"415 575 LINE",
"434 575 LINE SMOOTH",
"460 575 OFFCURVE",
"471 564 OFFCURVE",
"471 537 CURVE SMOOTH",
"471 176 LINE SMOOTH",
"471 95 OFFCURVE",
"422 58 OFFCURVE",
"330 58 CURVE SMOOTH",
"237 58 OFFCURVE",
"189 95 OFFCURVE",
"189 176 CURVE SMOOTH",
"189 537 LINE SMOOTH",
"189 564 OFFCURVE",
"199 575 OFFCURVE",
"225 575 CURVE SMOOTH",
"244 575 LINE",
"244 647 LINE",
"23 647 LINE",
"23 575 LINE",
"46 575 LINE SMOOTH",
"73 575 OFFCURVE",
"83 564 OFFCURVE",
"83 539 CURVE SMOOTH",
"83 182 LINE SMOOTH",
"83 65 OFFCURVE",
"160 -15 OFFCURVE",
"330 -15 CURVE SMOOTH"
);
},
{
closed = 1;
nodes = (
"268 724 LINE",
"268 820 LINE",
"175 820 LINE",
"175 724 LINE"
);
},
{
closed = 1;
nodes = (
"366 841 LINE",
"303 968 LINE",
"190 968 LINE",
"288 841 LINE"
);
},
{
closed = 1;
nodes = (
"481 724 LINE",
"481 820 LINE",
"389 820 LINE",
"389 724 LINE"
);
}
);
width = 661;
}
);
leftKerningGroup = U;
note = Udieresisgrave;
rightKerningGroup = U;
unicode = 01DB;
},
{
glyphname = Udieresismacron;
lastChange = "2015-08-01 09:24:51 +0000";
layers = (
{
layerId = "C94C01B0-3DB6-4E3E-9BA4-195D35EE6A10";
name = Regular;
paths = (
{
closed = 1;
nodes = (
"499 -15 OFFCURVE",
"577 65 OFFCURVE",
"577 182 CURVE SMOOTH",
"577 539 LINE SMOOTH",
"577 564 OFFCURVE",
"588 575 OFFCURVE",
"614 575 CURVE SMOOTH",
"638 575 LINE",
"638 647 LINE",
"415 647 LINE",
"415 575 LINE",
"434 575 LINE SMOOTH",
"460 575 OFFCURVE",
"471 564 OFFCURVE",
"471 537 CURVE SMOOTH",
"471 176 LINE SMOOTH",
"471 95 OFFCURVE",
"422 58 OFFCURVE",
"330 58 CURVE SMOOTH",
"237 58 OFFCURVE",
"189 95 OFFCURVE",
"189 176 CURVE SMOOTH",
"189 537 LINE SMOOTH",
"189 564 OFFCURVE",
"199 575 OFFCURVE",
"225 575 CURVE SMOOTH",
"244 575 LINE",
"244 647 LINE",
"23 647 LINE",
"23 575 LINE",
"46 575 LINE SMOOTH",
"73 575 OFFCURVE",
"83 564 OFFCURVE",
"83 539 CURVE SMOOTH",
"83 182 LINE SMOOTH",
"83 65 OFFCURVE",
"160 -15 OFFCURVE",
"330 -15 CURVE SMOOTH"
);
},
{
closed = 1;
nodes = (
"268 712 LINE",
"268 808 LINE",
"176 808 LINE",
"176 712 LINE"
);
},
{
closed = 1;
nodes = (
"482 712 LINE",
"482 808 LINE",
"389 808 LINE",
"389 712 LINE"
);
},
{
closed = 1;
nodes = (
"474 880 LINE",
"474 949 LINE",
"185 949 LINE",
"185 880 LINE"
);
}
);
width = 661;
}
);
leftKerningGroup = U;
note = Udieresismacron;
rightKerningGroup = U;
unicode = 01D5;
},
{
glyphname = Udotbelow;
lastChange = "2015-08-01 09:24:44 +0000";
layers = (
{
layerId = "C94C01B0-3DB6-4E3E-9BA4-195D35EE6A10";
name = Regular;
paths = (
{
closed = 1;
nodes = (
"499 -15 OFFCURVE",
"577 65 OFFCURVE",
"577 182 CURVE SMOOTH",
"577 539 LINE SMOOTH",
"577 564 OFFCURVE",
"588 575 OFFCURVE",
"614 575 CURVE SMOOTH",
"638 575 LINE",
"638 647 LINE",
"415 647 LINE",
"415 575 LINE",
"434 575 LINE SMOOTH",
"460 575 OFFCURVE",
"471 564 OFFCURVE",
"471 537 CURVE SMOOTH",
"471 176 LINE SMOOTH",
"471 95 OFFCURVE",
"422 58 OFFCURVE",
"330 58 CURVE SMOOTH",
"237 58 OFFCURVE",
"189 95 OFFCURVE",
"189 176 CURVE SMOOTH",
"189 537 LINE SMOOTH",
"189 564 OFFCURVE",
"199 575 OFFCURVE",
"225 575 CURVE SMOOTH",
"244 575 LINE",
"244 647 LINE",
"23 647 LINE",
"23 575 LINE",
"46 575 LINE SMOOTH",
"73 575 OFFCURVE",
"83 564 OFFCURVE",
"83 539 CURVE SMOOTH",
"83 182 LINE SMOOTH",
"83 65 OFFCURVE",
"160 -15 OFFCURVE",
"330 -15 CURVE SMOOTH"
);
},
{
closed = 1;
nodes = (
"377 -158 LINE",
"377 -62 LINE",
"285 -62 LINE",
"285 -158 LINE"
);
}
);
width = 661;
}
);
leftKerningGroup = U;
note = Udotbelow;
rightKerningGroup = U;
unicode = 1EE4;
},
{
glyphname = Ugrave;
lastChange = "2015-08-01 09:24:50 +0000";
layers = (
{
layerId = "C94C01B0-3DB6-4E3E-9BA4-195D35EE6A10";
name = Regular;
paths = (
{
closed = 1;
nodes = (
"499 -15 OFFCURVE",
"577 65 OFFCURVE",
"577 182 CURVE SMOOTH",
"577 539 LINE SMOOTH",
"577 564 OFFCURVE",
"588 575 OFFCURVE",
"614 575 CURVE SMOOTH",
"638 575 LINE",
"638 647 LINE",
"415 647 LINE",
"415 575 LINE",
"434 575 LINE SMOOTH",
"460 575 OFFCURVE",
"471 564 OFFCURVE",
"471 537 CURVE SMOOTH",
"471 176 LINE SMOOTH",
"471 95 OFFCURVE",
"422 58 OFFCURVE",
"330 58 CURVE SMOOTH",
"237 58 OFFCURVE",
"189 95 OFFCURVE",
"189 176 CURVE SMOOTH",
"189 537 LINE SMOOTH",
"189 564 OFFCURVE",
"199 575 OFFCURVE",
"225 575 CURVE SMOOTH",
"244 575 LINE",
"244 647 LINE",
"23 647 LINE",
"23 575 LINE",
"46 575 LINE SMOOTH",
"73 575 OFFCURVE",
"83 564 OFFCURVE",
"83 539 CURVE SMOOTH",
"83 182 LINE SMOOTH",
"83 65 OFFCURVE",
"160 -15 OFFCURVE",
"330 -15 CURVE SMOOTH"
);
},
{
closed = 1;
nodes = (
"365 701 LINE",
"285 880 LINE",
"159 880 LINE",
"273 701 LINE"
);
}
);
width = 661;
}
);
leftKerningGroup = U;
note = Ugrave;
rightKerningGroup = U;
unicode = 00D9;
},
{
glyphname = Uhookabove;
lastChange = "2015-08-01 09:24:45 +0000";
layers = (
{
layerId = "C94C01B0-3DB6-4E3E-9BA4-195D35EE6A10";
name = Regular;
paths = (
{
closed = 1;
nodes = (
"499 -15 OFFCURVE",
"577 65 OFFCURVE",
"577 182 CURVE SMOOTH",
"577 539 LINE SMOOTH",
"577 564 OFFCURVE",
"588 575 OFFCURVE",
"614 575 CURVE SMOOTH",
"638 575 LINE",
"638 647 LINE",
"415 647 LINE",
"415 575 LINE",
"434 575 LINE SMOOTH",
"460 575 OFFCURVE",
"471 564 OFFCURVE",
"471 537 CURVE SMOOTH",
"471 176 LINE SMOOTH",
"471 95 OFFCURVE",
"422 58 OFFCURVE",
"330 58 CURVE SMOOTH",
"237 58 OFFCURVE",
"189 95 OFFCURVE",
"189 176 CURVE SMOOTH",
"189 537 LINE SMOOTH",
"189 564 OFFCURVE",
"199 575 OFFCURVE",
"225 575 CURVE SMOOTH",
"244 575 LINE",
"244 647 LINE",
"23 647 LINE",
"23 575 LINE",
"46 575 LINE SMOOTH",
"73 575 OFFCURVE",
"83 564 OFFCURVE",
"83 539 CURVE SMOOTH",
"83 182 LINE SMOOTH",
"83 65 OFFCURVE",
"160 -15 OFFCURVE",
"330 -15 CURVE SMOOTH"
);
},
{
closed = 1;
nodes = (
"342 701 LINE",
"342 741 LINE",
"385 753 OFFCURVE",
"407 779 OFFCURVE",
"407 821 CURVE SMOOTH",
"407 882 OFFCURVE",
"363 905 OFFCURVE",
"292 905 CURVE SMOOTH",
"263 905 OFFCURVE",
"236 900 OFFCURVE",
"220 894 CURVE",
"220 835 LINE",
"233 840 OFFCURVE",
"252 844 OFFCURVE",
"269 844 CURVE SMOOTH",
"305 844 OFFCURVE",
"318 835 OFFCURVE",
"318 809 CURVE SMOOTH",
"318 784 OFFCURVE",
"305 766 OFFCURVE",
"256 766 CURVE",
"256 701 LINE"
);
}
);
width = 661;
}
);
leftKerningGroup = U;
note = Uhookabove;
rightKerningGroup = U;
unicode = 1EE6;
},
{
glyphname = Uhorn;
lastChange = "2015-08-01 09:24:48 +0000";
layers = (
{
layerId = "C94C01B0-3DB6-4E3E-9BA4-195D35EE6A10";
name = Regular;
paths = (
{
closed = 1;
nodes = (
"499 -15 OFFCURVE",
"576 65 OFFCURVE",
"576 182 CURVE SMOOTH",
"576 504 LINE",
"693 510 OFFCURVE",
"735 567 OFFCURVE",
"735 652 CURVE SMOOTH",
"735 689 LINE",
"633 689 LINE",
"633 653 LINE SMOOTH",
"633 607 OFFCURVE",
"621 583 OFFCURVE",
"576 580 CURVE",
"576 647 LINE",
"415 647 LINE",
"415 575 LINE",
"434 575 LINE SMOOTH",
"460 575 OFFCURVE",
"471 564 OFFCURVE",
"471 537 CURVE SMOOTH",
"471 176 LINE SMOOTH",
"471 95 OFFCURVE",
"422 58 OFFCURVE",
"330 58 CURVE SMOOTH",
"237 58 OFFCURVE",
"189 95 OFFCURVE",
"189 176 CURVE SMOOTH",
"189 537 LINE SMOOTH",
"189 564 OFFCURVE",
"199 575 OFFCURVE",
"225 575 CURVE SMOOTH",
"244 575 LINE",
"244 647 LINE",
"23 647 LINE",
"23 575 LINE",
"46 575 LINE SMOOTH",
"73 575 OFFCURVE",
"83 564 OFFCURVE",
"83 539 CURVE SMOOTH",
"83 182 LINE SMOOTH",
"83 65 OFFCURVE",
"160 -15 OFFCURVE",
"330 -15 CURVE SMOOTH"
);
}
);
width = 733;
}
);
leftKerningGroup = u;
note = Uhorn;
rightKerningGroup = U;
unicode = 01AF;
},
{
glyphname = Uhornacute;
lastChange = "2015-08-01 09:24:45 +0000";
layers = (
{
layerId = "C94C01B0-3DB6-4E3E-9BA4-195D35EE6A10";
name = Regular;
paths = (
{
closed = 1;
nodes = (
"499 -15 OFFCURVE",
"576 65 OFFCURVE",
"576 182 CURVE SMOOTH",
"576 504 LINE",
"693 510 OFFCURVE",
"735 567 OFFCURVE",
"735 652 CURVE SMOOTH",
"735 689 LINE",
"633 689 LINE",
"633 653 LINE SMOOTH",
"633 607 OFFCURVE",
"621 583 OFFCURVE",
"576 580 CURVE",
"576 647 LINE",
"415 647 LINE",
"415 575 LINE",
"434 575 LINE SMOOTH",
"460 575 OFFCURVE",
"471 564 OFFCURVE",
"471 537 CURVE SMOOTH",
"471 176 LINE SMOOTH",
"471 95 OFFCURVE",
"422 58 OFFCURVE",
"330 58 CURVE SMOOTH",
"237 58 OFFCURVE",
"189 95 OFFCURVE",
"189 176 CURVE SMOOTH",
"189 537 LINE SMOOTH",
"189 564 OFFCURVE",
"199 575 OFFCURVE",
"225 575 CURVE SMOOTH",
"244 575 LINE",
"244 647 LINE",
"23 647 LINE",
"23 575 LINE",
"46 575 LINE SMOOTH",
"73 575 OFFCURVE",
"83 564 OFFCURVE",
"83 539 CURVE SMOOTH",
"83 182 LINE SMOOTH",
"83 65 OFFCURVE",
"160 -15 OFFCURVE",
"330 -15 CURVE SMOOTH"
);
},
{
closed = 1;
nodes = (
"353 701 LINE",
"467 880 LINE",
"342 880 LINE",
"262 701 LINE"
);
}
);
width = 733;
}
);
leftKerningGroup = U;
note = Uhornacute;
rightKerningGroup = U;
unicode = 1EE8;
},
{
glyphname = Uhorndotbelow;
lastChange = "2015-08-01 09:24:49 +0000";
layers = (
{
layerId = "C94C01B0-3DB6-4E3E-9BA4-195D35EE6A10";
name = Regular;
paths = (
{
closed = 1;
nodes = (
"499 -15 OFFCURVE",
"576 65 OFFCURVE",
"576 182 CURVE SMOOTH",
"576 504 LINE",
"693 510 OFFCURVE",
"735 567 OFFCURVE",
"735 652 CURVE SMOOTH",
"735 689 LINE",
"633 689 LINE",
"633 653 LINE SMOOTH",
"633 607 OFFCURVE",
"621 583 OFFCURVE",
"576 580 CURVE",
"576 647 LINE",
"415 647 LINE",
"415 575 LINE",
"434 575 LINE SMOOTH",
"460 575 OFFCURVE",
"471 564 OFFCURVE",
"471 537 CURVE SMOOTH",
"471 176 LINE SMOOTH",
"471 95 OFFCURVE",
"422 58 OFFCURVE",
"330 58 CURVE SMOOTH",
"237 58 OFFCURVE",
"189 95 OFFCURVE",
"189 176 CURVE SMOOTH",
"189 537 LINE SMOOTH",
"189 564 OFFCURVE",
"199 575 OFFCURVE",
"225 575 CURVE SMOOTH",
"244 575 LINE",
"244 647 LINE",
"23 647 LINE",
"23 575 LINE",
"46 575 LINE SMOOTH",
"73 575 OFFCURVE",
"83 564 OFFCURVE",
"83 539 CURVE SMOOTH",
"83 182 LINE SMOOTH",
"83 65 OFFCURVE",
"160 -15 OFFCURVE",
"330 -15 CURVE SMOOTH"
);
},
{
closed = 1;
nodes = (
"363 -158 LINE",
"363 -62 LINE",
"271 -62 LINE",
"271 -158 LINE"
);
}
);
width = 733;
}
);
leftKerningGroup = U;
note = Uhorndotbelow;
rightKerningGroup = U;
unicode = 1EF0;
},
{
glyphname = Uhorngrave;
lastChange = "2015-08-01 09:24:47 +0000";
layers = (
{
layerId = "C94C01B0-3DB6-4E3E-9BA4-195D35EE6A10";
name = Regular;
paths = (
{
closed = 1;
nodes = (
"499 -15 OFFCURVE",
"576 65 OFFCURVE",
"576 182 CURVE SMOOTH",
"576 504 LINE",
"693 510 OFFCURVE",
"735 567 OFFCURVE",
"735 652 CURVE SMOOTH",
"735 689 LINE",
"633 689 LINE",
"633 653 LINE SMOOTH",
"633 607 OFFCURVE",
"621 583 OFFCURVE",
"576 580 CURVE",
"576 647 LINE",
"415 647 LINE",
"415 575 LINE",
"434 575 LINE SMOOTH",
"460 575 OFFCURVE",
"471 564 OFFCURVE",
"471 537 CURVE SMOOTH",
"471 176 LINE SMOOTH",
"471 95 OFFCURVE",
"422 58 OFFCURVE",
"330 58 CURVE SMOOTH",
"237 58 OFFCURVE",
"189 95 OFFCURVE",
"189 176 CURVE SMOOTH",
"189 537 LINE SMOOTH",
"189 564 OFFCURVE",
"199 575 OFFCURVE",
"225 575 CURVE SMOOTH",
"244 575 LINE",
"244 647 LINE",
"23 647 LINE",
"23 575 LINE",
"46 575 LINE SMOOTH",
"73 575 OFFCURVE",
"83 564 OFFCURVE",
"83 539 CURVE SMOOTH",
"83 182 LINE SMOOTH",
"83 65 OFFCURVE",
"160 -15 OFFCURVE",
"330 -15 CURVE SMOOTH"
);
},
{
closed = 1;
nodes = (
"371 701 LINE",
"291 880 LINE",
"165 880 LINE",
"279 701 LINE"
);
}
);
width = 733;
}
);
leftKerningGroup = U;
note = Uhorngrave;
rightKerningGroup = U;
unicode = 1EEA;
},
{
glyphname = Uhornhookabove;
lastChange = "2015-08-01 09:24:45 +0000";
layers = (
{
layerId = "C94C01B0-3DB6-4E3E-9BA4-195D35EE6A10";
name = Regular;
paths = (
{
closed = 1;
nodes = (
"499 -15 OFFCURVE",
"576 65 OFFCURVE",
"576 182 CURVE SMOOTH",
"576 504 LINE",
"693 510 OFFCURVE",
"735 567 OFFCURVE",
"735 652 CURVE SMOOTH",
"735 689 LINE",
"633 689 LINE",
"633 653 LINE SMOOTH",
"633 607 OFFCURVE",
"621 583 OFFCURVE",
"576 580 CURVE",
"576 647 LINE",
"415 647 LINE",
"415 575 LINE",
"434 575 LINE SMOOTH",
"460 575 OFFCURVE",
"471 564 OFFCURVE",
"471 537 CURVE SMOOTH",
"471 176 LINE SMOOTH",
"471 95 OFFCURVE",
"422 58 OFFCURVE",
"330 58 CURVE SMOOTH",
"237 58 OFFCURVE",
"189 95 OFFCURVE",
"189 176 CURVE SMOOTH",
"189 537 LINE SMOOTH",
"189 564 OFFCURVE",
"199 575 OFFCURVE",
"225 575 CURVE SMOOTH",
"244 575 LINE",
"244 647 LINE",
"23 647 LINE",
"23 575 LINE",
"46 575 LINE SMOOTH",
"73 575 OFFCURVE",
"83 564 OFFCURVE",
"83 539 CURVE SMOOTH",
"83 182 LINE SMOOTH",
"83 65 OFFCURVE",
"160 -15 OFFCURVE",
"330 -15 CURVE SMOOTH"
);
},
{
closed = 1;
nodes = (
"361 701 LINE",
"361 741 LINE",
"404 753 OFFCURVE",
"426 779 OFFCURVE",
"426 821 CURVE SMOOTH",
"426 882 OFFCURVE",
"382 905 OFFCURVE",
"311 905 CURVE SMOOTH",
"282 905 OFFCURVE",
"255 900 OFFCURVE",
"239 894 CURVE",
"239 835 LINE",
"252 840 OFFCURVE",
"271 844 OFFCURVE",
"288 844 CURVE SMOOTH",
"324 844 OFFCURVE",
"337 835 OFFCURVE",
"337 809 CURVE SMOOTH",
"337 784 OFFCURVE",
"324 766 OFFCURVE",
"275 766 CURVE",
"275 701 LINE"
);
}
);
width = 733;
}
);
leftKerningGroup = U;
note = Uhornhookabove;
rightKerningGroup = U;
unicode = 1EEC;
},
{
glyphname = Uhorntilde;
lastChange = "2015-08-01 09:24:50 +0000";
layers = (
{
layerId = "C94C01B0-3DB6-4E3E-9BA4-195D35EE6A10";
name = Regular;
paths = (
{
closed = 1;
nodes = (
"499 -15 OFFCURVE",
"576 65 OFFCURVE",
"576 182 CURVE SMOOTH",
"576 504 LINE",
"693 510 OFFCURVE",
"735 567 OFFCURVE",
"735 652 CURVE SMOOTH",
"735 689 LINE",
"633 689 LINE",
"633 653 LINE SMOOTH",
"633 607 OFFCURVE",
"621 583 OFFCURVE",
"576 580 CURVE",
"576 647 LINE",
"415 647 LINE",
"415 575 LINE",
"434 575 LINE SMOOTH",
"460 575 OFFCURVE",
"471 564 OFFCURVE",
"471 537 CURVE SMOOTH",
"471 176 LINE SMOOTH",
"471 95 OFFCURVE",
"422 58 OFFCURVE",
"330 58 CURVE SMOOTH",
"237 58 OFFCURVE",
"189 95 OFFCURVE",
"189 176 CURVE SMOOTH",
"189 537 LINE SMOOTH",
"189 564 OFFCURVE",
"199 575 OFFCURVE",
"225 575 CURVE SMOOTH",
"244 575 LINE",
"244 647 LINE",
"23 647 LINE",
"23 575 LINE",
"46 575 LINE SMOOTH",
"73 575 OFFCURVE",
"83 564 OFFCURVE",
"83 539 CURVE SMOOTH",
"83 182 LINE SMOOTH",
"83 65 OFFCURVE",
"160 -15 OFFCURVE",
"330 -15 CURVE SMOOTH"
);
},
{
closed = 1;
nodes = (
"212 701 LINE",
"212 742 OFFCURVE",
"228 754 OFFCURVE",
"257 754 CURVE SMOOTH",
"309 754 OFFCURVE",
"346 701 OFFCURVE",
"417 701 CURVE SMOOTH",
"490 701 OFFCURVE",
"524 742 OFFCURVE",
"524 838 CURVE",
"446 838 LINE",
"446 797 OFFCURVE",
"431 784 OFFCURVE",
"402 784 CURVE SMOOTH",
"353 784 OFFCURVE",
"315 838 OFFCURVE",
"243 838 CURVE SMOOTH",
"169 838 OFFCURVE",
"134 795 OFFCURVE",
"134 701 CURVE"
);
}
);
width = 733;
}
);
leftKerningGroup = U;
note = Uhorntilde;
rightKerningGroup = U;
unicode = 1EEE;
},
{
glyphname = Uhungarumlaut;
lastChange = "2015-08-01 09:24:46 +0000";
layers = (
{
layerId = "C94C01B0-3DB6-4E3E-9BA4-195D35EE6A10";
name = Regular;
paths = (
{
closed = 1;
nodes = (
"499 -15 OFFCURVE",
"577 65 OFFCURVE",
"577 182 CURVE SMOOTH",
"577 539 LINE SMOOTH",
"577 564 OFFCURVE",
"588 575 OFFCURVE",
"614 575 CURVE SMOOTH",
"638 575 LINE",
"638 647 LINE",
"415 647 LINE",
"415 575 LINE",
"434 575 LINE SMOOTH",
"460 575 OFFCURVE",
"471 564 OFFCURVE",
"471 537 CURVE SMOOTH",
"471 176 LINE SMOOTH",
"471 95 OFFCURVE",
"422 58 OFFCURVE",
"330 58 CURVE SMOOTH",
"237 58 OFFCURVE",
"189 95 OFFCURVE",
"189 176 CURVE SMOOTH",
"189 537 LINE SMOOTH",
"189 564 OFFCURVE",
"199 575 OFFCURVE",
"225 575 CURVE SMOOTH",
"244 575 LINE",
"244 647 LINE",
"23 647 LINE",
"23 575 LINE",
"46 575 LINE SMOOTH",
"73 575 OFFCURVE",
"83 564 OFFCURVE",
"83 539 CURVE SMOOTH",
"83 182 LINE SMOOTH",
"83 65 OFFCURVE",
"160 -15 OFFCURVE",
"330 -15 CURVE SMOOTH"
);
},
{
closed = 1;
nodes = (
"252 700 LINE",
"372 888 LINE",
"244 888 LINE",
"157 700 LINE"
);
},
{
closed = 1;
nodes = (
"451 700 LINE",
"572 888 LINE",
"443 888 LINE",
"357 700 LINE"
);
}
);
width = 661;
}
);
leftKerningGroup = U;
note = Uhungarumlaut;
rightKerningGroup = U;
unicode = 0170;
},
{
glyphname = Umacron;
lastChange = "2015-08-01 09:24:50 +0000";
layers = (
{
layerId = "C94C01B0-3DB6-4E3E-9BA4-195D35EE6A10";
name = Regular;
paths = (
{
closed = 1;
nodes = (
"499 -15 OFFCURVE",
"577 65 OFFCURVE",
"577 182 CURVE SMOOTH",
"577 539 LINE SMOOTH",
"577 564 OFFCURVE",
"588 575 OFFCURVE",
"614 575 CURVE SMOOTH",
"638 575 LINE",
"638 647 LINE",
"415 647 LINE",
"415 575 LINE",
"434 575 LINE SMOOTH",
"460 575 OFFCURVE",
"471 564 OFFCURVE",
"471 537 CURVE SMOOTH",
"471 176 LINE SMOOTH",
"471 95 OFFCURVE",
"422 58 OFFCURVE",
"330 58 CURVE SMOOTH",
"237 58 OFFCURVE",
"189 95 OFFCURVE",
"189 176 CURVE SMOOTH",
"189 537 LINE SMOOTH",
"189 564 OFFCURVE",
"199 575 OFFCURVE",
"225 575 CURVE SMOOTH",
"244 575 LINE",
"244 647 LINE",
"23 647 LINE",
"23 575 LINE",
"46 575 LINE SMOOTH",
"73 575 OFFCURVE",
"83 564 OFFCURVE",
"83 539 CURVE SMOOTH",
"83 182 LINE SMOOTH",
"83 65 OFFCURVE",
"160 -15 OFFCURVE",
"330 -15 CURVE SMOOTH"
);
},
{
closed = 1;
nodes = (
"455 721 LINE",
"455 790 LINE",
"166 790 LINE",
"166 721 LINE"
);
}
);
width = 661;
}
);
leftKerningGroup = U;
note = Umacron;
rightKerningGroup = U;
unicode = 016A;
},
{
glyphname = Uogonek;
lastChange = "2015-08-01 09:24:44 +0000";
layers = (
{
layerId = "C94C01B0-3DB6-4E3E-9BA4-195D35EE6A10";
name = Regular;
paths = (
{
closed = 1;
nodes = (
"499 -15 OFFCURVE",
"576 65 OFFCURVE",
"576 182 CURVE SMOOTH",
"576 539 LINE SMOOTH",
"576 564 OFFCURVE",
"587 575 OFFCURVE",
"613 575 CURVE SMOOTH",
"637 575 LINE",
"637 647 LINE",
"415 647 LINE",
"415 575 LINE",
"434 575 LINE SMOOTH",
"460 575 OFFCURVE",
"471 564 OFFCURVE",
"471 537 CURVE SMOOTH",
"471 176 LINE SMOOTH",
"471 95 OFFCURVE",
"422 58 OFFCURVE",
"330 58 CURVE SMOOTH",
"237 58 OFFCURVE",
"189 95 OFFCURVE",
"189 176 CURVE SMOOTH",
"189 537 LINE SMOOTH",
"189 564 OFFCURVE",
"199 575 OFFCURVE",
"225 575 CURVE SMOOTH",
"244 575 LINE",
"244 647 LINE",
"23 647 LINE",
"23 575 LINE",
"46 575 LINE SMOOTH",
"73 575 OFFCURVE",
"83 564 OFFCURVE",
"83 539 CURVE SMOOTH",
"83 182 LINE SMOOTH",
"83 65 OFFCURVE",
"160 -15 OFFCURVE",
"330 -15 CURVE SMOOTH"
);
},
{
closed = 1;
nodes = (
"388 -207 OFFCURVE",
"406 -202 OFFCURVE",
"423 -191 CURVE",
"423 -129 LINE",
"410 -134 OFFCURVE",
"395 -137 OFFCURVE",
"381 -137 CURVE SMOOTH",
"356 -137 OFFCURVE",
"344 -122 OFFCURVE",
"344 -91 CURVE SMOOTH",
"344 -55 OFFCURVE",
"361 -27 OFFCURVE",
"394 0 CURVE",
"307 0 LINE",
"275 -27 OFFCURVE",
"255 -67 OFFCURVE",
"255 -111 CURVE SMOOTH",
"255 -173 OFFCURVE",
"292 -203 OFFCURVE",
"339 -208 CURVE",
"348 -208 OFFCURVE",
"356 -209 OFFCURVE",
"364 -209 CURVE"
);
}
);
width = 660;
}
);
leftKerningGroup = U;
note = Uogonek;
rightKerningGroup = U;
unicode = 0172;
},
